<?xml version="1.0" encoding="UTF-8" standalone="no"?>
<!DOCTYPE svg PUBLIC "-//W3C//DTD SVG 1.1//EN" "http://www.w3.org/Graphics/SVG/1.1/DTD/svg11.dtd">
<svg xmlns:dc="http://purl.org/dc/elements/1.1/" version="1.1" xmlns:xl="http://www.w3.org/1999/xlink" xmlns="http://www.w3.org/2000/svg" viewBox="3610.5 1475 712.5 803" width="712.5" height="803">
  <defs>
    <filter id="Shadow" filterUnits="userSpaceOnUse" x="3539.25" y="1394.7">
      <feGaussianBlur in="SourceAlpha" result="blur" stdDeviation="1.308"/>
      <feOffset in="blur" result="offset" dx="0" dy="2"/>
      <feFlood flood-color="black" flood-opacity=".5" result="flood"/>
      <feComposite in="flood" in2="offset" operator="in" result="color"/>
      <feMerge>
        <feMergeNode in="color"/>
        <feMergeNode in="SourceGraphic"/>
      </feMerge>
    </filter>
    <marker orient="auto" overflow="visible" markerUnits="strokeWidth" id="FilledArrow_Marker" stroke-linejoin="miter" stroke-miterlimit="10" viewBox="-1 -4 10 8" markerWidth="10" markerHeight="8" color="black">
      <g>
        <path d="M 8 0 L 0 -3 L 0 3 Z" fill="currentColor" stroke="currentColor" stroke-width="1"/>
      </g>
    </marker>
  </defs>
  <g id="Canvas_1" fill-opacity="1" stroke="none" stroke-dasharray="none" fill="none" stroke-opacity="1">
    <title>Canvas 1</title>
    <g id="Canvas_1_Layer_1">
      <title>Layer 1</title>
      <g id="Group_436">
        <g id="Graphic_254" filter="url(#Shadow)">
          <path d="M 3636.5 1683.1191 L 3636.5 1635.1191 C 3636.5 1631.8071 3669.316 1629.1191 3709.75 1629.1191 C 3750.184 1629.1191 3783 1631.8071 3783 1635.1191 L 3783 1683.1191 C 3783 1686.4311 3750.184 1689.1191 3709.75 1689.1191 C 3669.316 1689.1191 3636.5 1686.4311 3636.5 1683.1191" fill="#e5e6ff"/>
          <path d="M 3636.5 1683.1191 L 3636.5 1635.1191 C 3636.5 1631.8071 3669.316 1629.1191 3709.75 1629.1191 C 3750.184 1629.1191 3783 1631.8071 3783 1635.1191 L 3783 1683.1191 C 3783 1686.4311 3750.184 1689.1191 3709.75 1689.1191 C 3669.316 1689.1191 3636.5 1686.4311 3636.5 1683.1191 M 3636.5 1635.1191 C 3636.5 1638.4311 3669.316 1641.1191 3709.75 1641.1191 C 3750.184 1641.1191 3783 1638.4311 3783 1635.1191" stroke="black" stroke-linecap="round" stroke-linejoin="round" stroke-width="1"/>
          <text transform="translate(3641.5 1652.8951)" fill="black">
            <tspan font-family="Helvetica Neue" font-size="16" fill="black" x="42.914" y="15">Testing</tspan>
          </text>
        </g>
        <g id="Graphic_245" filter="url(#Shadow)">
          <path d="M 3838.9 1571.9991 L 3838.9 1523.9991 C 3838.9 1520.6871 3871.716 1517.9991 3912.15 1517.9991 C 3952.584 1517.9991 3985.4 1520.6871 3985.4 1523.9991 L 3985.4 1571.9991 C 3985.4 1575.3111 3952.584 1577.9991 3912.15 1577.9991 C 3871.716 1577.9991 3838.9 1575.3111 3838.9 1571.9991" fill="#ffeabb"/>
          <path d="M 3838.9 1571.9991 L 3838.9 1523.9991 C 3838.9 1520.6871 3871.716 1517.9991 3912.15 1517.9991 C 3952.584 1517.9991 3985.4 1520.6871 3985.4 1523.9991 L 3985.4 1571.9991 C 3985.4 1575.3111 3952.584 1577.9991 3912.15 1577.9991 C 3871.716 1577.9991 3838.9 1575.3111 3838.9 1571.9991 M 3838.9 1523.9991 C 3838.9 1527.3111 3871.716 1529.9991 3912.15 1529.9991 C 3952.584 1529.9991 3985.4 1527.3111 3985.4 1523.9991" stroke="black" stroke-linecap="round" stroke-linejoin="round" stroke-width="1"/>
          <text transform="translate(3843.9 1541.7751)" fill="black">
            <tspan font-family="Helvetica Neue" font-size="16" fill="black" x="40.546" y="15">All Data</tspan>
          </text>
        </g>
        <g id="Line_244">
          <line x1="3860.6638" y1="1576.2657" x2="3769.9144" y2="1626.0882" marker-end="url(#FilledArrow_Marker)" stroke="black" stroke-linecap="round" stroke-linejoin="round" stroke-width="1"/>
        </g>
        <g id="Line_243">
          <line x1="3959.703" y1="1576.5619" x2="4041.11" y2="1625.4588" marker-end="url(#FilledArrow_Marker)" stroke="black" stroke-linecap="round" stroke-linejoin="round" stroke-width="1"/>
        </g>
        <g id="Graphic_264"/>
        <g id="Graphic_255">
          <path d="M 4023.9 1683.1191 L 4023.9 1635.1191 C 4023.9 1631.8071 4056.716 1629.1191 4097.15 1629.1191 C 4137.584 1629.1191 4170.4 1631.8071 4170.4 1635.1191 L 4170.4 1683.1191 C 4170.4 1686.4311 4137.584 1689.1191 4097.15 1689.1191 C 4056.716 1689.1191 4023.9 1686.4311 4023.9 1683.1191 M 4023.9 1635.1191 C 4023.9 1638.4311 4056.716 1641.1191 4097.15 1641.1191 C 4137.584 1641.1191 4170.4 1638.4311 4170.4 1635.1191" stroke="black" stroke-linecap="round" stroke-linejoin="round" stroke-width="1"/>
          <text transform="translate(4028.9 1652.8951)" fill="black">
            <tspan font-family="Helvetica Neue" font-size="16" fill="black" x="27.802" y="15">Not Testing</tspan>
          </text>
        </g>
        <g id="Group_248">
          <g id="Graphic_253">
            <path d="M 4121.6685 1774.115 L 4121.6685 1736.235 C 4121.6685 1733.6213 4144.146 1731.5 4171.842 1731.5 C 4199.5374 1731.5 4222.015 1733.6213 4222.015 1736.235 L 4222.015 1774.115 C 4222.015 1776.7287 4199.5374 1778.85 4171.842 1778.85 C 4144.146 1778.85 4121.6685 1776.7287 4121.6685 1774.115" fill="#fffbf1"/>
            <path d="M 4121.6685 1774.115 L 4121.6685 1736.235 C 4121.6685 1733.6213 4144.146 1731.5 4171.842 1731.5 C 4199.5374 1731.5 4222.015 1733.6213 4222.015 1736.235 L 4222.015 1774.115 C 4222.015 1776.7287 4199.5374 1778.85 4171.842 1778.85 C 4144.146 1778.85 4121.6685 1776.7287 4121.6685 1774.115 M 4121.6685 1736.235 C 4121.6685 1738.8487 4144.146 1740.97 4171.842 1740.97 C 4199.5374 1740.97 4222.015 1738.8487 4222.015 1736.235" stroke="black" stroke-linecap="round" stroke-linejoin="round" stroke-width="1"/>
          </g>
          <g id="Line_252">
            <path d="M 4121.6 1744.4093 C 4121.6 1744.4093 4141.1185 1747.9582 4169.547 1747.9213 C 4197.976 1747.8843 4221.9465 1744.279 4221.9465 1744.279" stroke="black" stroke-linecap="round" stroke-linejoin="round" stroke-width="1"/>
          </g>
          <g id="Line_251">
            <path d="M 4122.3535 1751.7556 C 4122.3535 1751.7556 4141.872 1755.3045 4170.3006 1755.2676 C 4198.7293 1755.2307 4222.7 1751.6253 4222.7 1751.6253" stroke="black" stroke-linecap="round" stroke-linejoin="round" stroke-width="1"/>
          </g>
          <g id="Line_250">
            <path d="M 4121.6 1759.102 C 4121.6 1759.102 4141.1185 1762.6509 4169.547 1762.614 C 4197.976 1762.577 4221.9465 1758.9716 4221.9465 1758.9716" stroke="black" stroke-linecap="round" stroke-linejoin="round" stroke-width="1"/>
          </g>
          <g id="Line_249">
            <path d="M 4122.3535 1766.4483 C 4122.3535 1766.4483 4141.872 1769.9972 4170.3006 1769.9603 C 4198.7293 1769.9234 4222.7 1766.318 4222.7 1766.318" stroke="black" stroke-linecap="round" stroke-linejoin="round" stroke-width="1"/>
          </g>
        </g>
        <g id="Line_246">
          <line x1="4120.241" y1="1688.8146" x2="4147.604" y2="1724.0048" marker-end="url(#FilledArrow_Marker)" stroke="black" stroke-linecap="round" stroke-linejoin="round" stroke-width="1"/>
        </g>
        <g id="Graphic_242">
          <rect x="4048.5" y="1843.5" width="48.54948" height="20.50105" fill="#ffeabb" fill-opacity=".20827085"/>
          <rect x="4048.5" y="1843.5" width="48.54948" height="20.50105" stroke="black" stroke-linecap="round" stroke-linejoin="round" stroke-width="1"/>
          <text transform="translate(4053.5 1848.1245)" fill="black">
            <tspan font-family="Helvetica Neue" font-size="9" fill="black" x="5.51824" y="9">glmnet</tspan>
          </text>
        </g>
        <g id="Graphic_241">
          <rect x="4147.8753" y="1843.5" width="48.54948" height="20.50105" fill="#ffeabb" fill-opacity=".20827085"/>
          <rect x="4147.8753" y="1843.5" width="48.54948" height="20.50105" stroke="black" stroke-linecap="round" stroke-linejoin="round" stroke-width="1"/>
          <text transform="translate(4152.8753 1848.1245)" fill="black">
            <tspan font-family="Helvetica Neue" font-size="9" fill="black" x="11.60674" y="9">tree</tspan>
          </text>
        </g>
        <g id="Graphic_240">
          <rect x="4256.2" y="1843.5" width="48.54948" height="20.50105" fill="#ffeabb" fill-opacity=".20827085"/>
          <rect x="4256.2" y="1843.5" width="48.54948" height="20.50105" stroke="black" stroke-linecap="round" stroke-linejoin="round" stroke-width="1"/>
          <text transform="translate(4261.2 1848.1245)" fill="black">
            <tspan font-family="Helvetica Neue" font-size="9" fill="black" x="2.4402402" y="9">Xgboost</tspan>
          </text>
        </g>
        <g id="Line_239">
          <line x1="4148.59" y1="1778.3114" x2="4090.094" y2="1836.517" marker-end="url(#FilledArrow_Marker)" stroke="black" stroke-linecap="round" stroke-linejoin="round" stroke-width="1"/>
        </g>
        <g id="Line_238">
          <line x1="4195.002" y1="1778.605" x2="4261.3804" y2="1836.9632" marker-end="url(#FilledArrow_Marker)" stroke="black" stroke-linecap="round" stroke-linejoin="round" stroke-width="1"/>
        </g>
        <g id="Graphic_234" filter="url(#Shadow)">
          <path d="M 3935 1779.175 L 3935 1731.175 C 3935 1727.863 3967.816 1725.175 4008.25 1725.175 C 4048.684 1725.175 4081.5 1727.863 4081.5 1731.175 L 4081.5 1779.175 C 4081.5 1782.487 4048.684 1785.175 4008.25 1785.175 C 3967.816 1785.175 3935 1782.487 3935 1779.175" fill="#ffeabb"/>
          <path d="M 3935 1779.175 L 3935 1731.175 C 3935 1727.863 3967.816 1725.175 4008.25 1725.175 C 4048.684 1725.175 4081.5 1727.863 4081.5 1731.175 L 4081.5 1779.175 C 4081.5 1782.487 4048.684 1785.175 4008.25 1785.175 C 3967.816 1785.175 3935 1782.487 3935 1779.175 M 3935 1731.175 C 3935 1734.487 3967.816 1737.175 4008.25 1737.175 C 4048.684 1737.175 4081.5 1734.487 4081.5 1731.175" stroke="black" stroke-linecap="round" stroke-linejoin="round" stroke-width="1"/>
          <text transform="translate(3940 1748.951)" fill="black">
            <tspan font-family="Helvetica Neue" font-size="16" fill="black" x="40.394" y="15">Training</tspan>
          </text>
        </g>
        <g id="Line_233">
          <line x1="4076.6667" y1="1689.1191" x2="4045.8807" y2="1718.8428" marker-end="url(#FilledArrow_Marker)" stroke="black" stroke-linecap="round" stroke-linejoin="round" stroke-width="1"/>
        </g>
        <g id="Graphic_231">
          <rect x="4141.146" y="1743.007" width="62.008" height="24.335999" fill="#fffbf1"/>
          <text transform="translate(4146.146 1748.007)" fill="black">
            <tspan font-family="Helvetica Neue" font-size="12" fill="black" x="8171241e-19" y="11">Validation</tspan>
          </text>
        </g>
        <g id="Line_335">
          <line x1="4170.4" y1="1779" x2="4171.6783" y2="1833.6027" marker-end="url(#FilledArrow_Marker)" stroke="black" stroke-linecap="round" stroke-linejoin="round" stroke-width="1"/>
        </g>
      </g>
    </g>
  </g>
</svg>
