<?xml version="1.0" encoding="UTF-8" standalone="no"?>
<!DOCTYPE svg PUBLIC "-//W3C//DTD SVG 1.1//EN" "http://www.w3.org/Graphics/SVG/1.1/DTD/svg11.dtd">
<svg xmlns:xl="http://www.w3.org/1999/xlink" xmlns="http://www.w3.org/2000/svg" version="1.1" xmlns:dc="http://purl.org/dc/elements/1.1/" viewBox="1527 2417 744.5 847.1253" width="744.5" height="847.1253">
  <defs>
    <marker orient="auto" overflow="visible" markerUnits="strokeWidth" id="FilledArrow_Marker" stroke-linejoin="miter" stroke-miterlimit="10" viewBox="-1 -4 10 8" markerWidth="10" markerHeight="8" color="black">
      <g>
        <path d="M 8 0 L 0 -3 L 0 3 Z" fill="currentColor" stroke="currentColor" stroke-width="1"/>
      </g>
    </marker>
    <filter id="Shadow" filterUnits="userSpaceOnUse" x="1452.55" y="2332.2875">
      <feGaussianBlur in="SourceAlpha" result="blur" stdDeviation="1.308"/>
      <feOffset in="blur" result="offset" dx="0" dy="2"/>
      <feFlood flood-color="black" flood-opacity=".5" result="flood"/>
      <feComposite in="flood" in2="offset" operator="in" result="color"/>
      <feMerge>
        <feMergeNode in="color"/>
        <feMergeNode in="SourceGraphic"/>
      </feMerge>
    </filter>
    <marker orient="auto" overflow="visible" markerUnits="strokeWidth" id="FilledArrow_Marker_2" stroke-linejoin="miter" stroke-miterlimit="10" viewBox="-1 -4 10 8" markerWidth="10" markerHeight="8" color="black">
      <g>
        <path d="M 8 0 L 0 -3 L 0 3 Z" fill="currentColor" stroke="currentColor" stroke-width="1"/>
      </g>
    </marker>
  </defs>
  <g id="Canvas_1" fill-opacity="1" stroke="none" stroke-opacity="1" fill="none" stroke-dasharray="none">
    <title>Canvas 1</title>
    <g id="Canvas_1_Layer_1">
      <title>Layer 1</title>
      <g id="Group_684">
        <g id="Graphic_683"/>
        <g id="Graphic_682">
          <path d="M 1913.5 2631.2444 L 1913.5 2583.2444 C 1913.5 2579.9324 1946.316 2577.2444 1986.75 2577.2444 C 2027.184 2577.2444 2060 2579.9324 2060 2583.2444 L 2060 2631.2444 C 2060 2634.5564 2027.184 2637.2444 1986.75 2637.2444 C 1946.316 2637.2444 1913.5 2634.5564 1913.5 2631.2444" fill="#ffeabb"/>
          <path d="M 1913.5 2631.2444 L 1913.5 2583.2444 C 1913.5 2579.9324 1946.316 2577.2444 1986.75 2577.2444 C 2027.184 2577.2444 2060 2579.9324 2060 2583.2444 L 2060 2631.2444 C 2060 2634.5564 2027.184 2637.2444 1986.75 2637.2444 C 1946.316 2637.2444 1913.5 2634.5564 1913.5 2631.2444 M 1913.5 2583.2444 C 1913.5 2586.5564 1946.316 2589.2444 1986.75 2589.2444 C 2027.184 2589.2444 2060 2586.5564 2060 2583.2444" stroke="black" stroke-linecap="round" stroke-linejoin="round" stroke-width="1"/>
          <text transform="translate(1918.5 2601.0204)" fill="black">
            <tspan font-family="Helvetica Neue" font-size="16" fill="black" x="27.802" y="15">Not Testing</tspan>
          </text>
        </g>
        <g id="Graphic_681">
          <path d="M 1617.5 2631.2444 L 1617.5 2583.2444 C 1617.5 2579.9324 1650.316 2577.2444 1690.75 2577.2444 C 1731.184 2577.2444 1764 2579.9324 1764 2583.2444 L 1764 2631.2444 C 1764 2634.5564 1731.184 2637.2444 1690.75 2637.2444 C 1650.316 2637.2444 1617.5 2634.5564 1617.5 2631.2444" fill="#7a81ff" fill-opacity=".181819"/>
          <path d="M 1617.5 2631.2444 L 1617.5 2583.2444 C 1617.5 2579.9324 1650.316 2577.2444 1690.75 2577.2444 C 1731.184 2577.2444 1764 2579.9324 1764 2583.2444 L 1764 2631.2444 C 1764 2634.5564 1731.184 2637.2444 1690.75 2637.2444 C 1650.316 2637.2444 1617.5 2634.5564 1617.5 2631.2444 M 1617.5 2583.2444 C 1617.5 2586.5564 1650.316 2589.2444 1690.75 2589.2444 C 1731.184 2589.2444 1764 2586.5564 1764 2583.2444" stroke="black" stroke-linecap="round" stroke-linejoin="round" stroke-width="1"/>
          <text transform="translate(1622.5 2601.0204)" fill="black">
            <tspan font-family="Helvetica Neue" font-size="16" fill="black" x="42.914" y="15">Testing</tspan>
          </text>
        </g>
        <g id="Graphic_680">
          <path d="M 1774.5 2511.1253 L 1774.5 2463.1253 C 1774.5 2459.8133 1807.316 2457.1253 1847.75 2457.1253 C 1888.184 2457.1253 1921 2459.8133 1921 2463.1253 L 1921 2511.1253 C 1921 2514.4373 1888.184 2517.1253 1847.75 2517.1253 C 1807.316 2517.1253 1774.5 2514.4373 1774.5 2511.1253 M 1774.5 2463.1253 C 1774.5 2466.4373 1807.316 2469.1253 1847.75 2469.1253 C 1888.184 2469.1253 1921 2466.4373 1921 2463.1253" stroke="black" stroke-linecap="round" stroke-linejoin="round" stroke-width="1"/>
          <text transform="translate(1779.5 2480.9013)" fill="black">
            <tspan font-family="Helvetica Neue" font-size="16" fill="black" x="40.546" y="15">All Data</tspan>
          </text>
        </g>
        <g id="Line_679">
          <line x1="1809.681" y1="2516.2515" x2="1736.6817" y2="2572.1025" marker-end="url(#FilledArrow_Marker)" stroke="black" stroke-linecap="round" stroke-linejoin="round" stroke-width="1"/>
        </g>
        <g id="Line_678">
          <line x1="1881.6767" y1="2516.4436" x2="1945.3327" y2="2571.453" marker-end="url(#FilledArrow_Marker)" stroke="black" stroke-linecap="round" stroke-linejoin="round" stroke-width="1"/>
        </g>
        <g id="Graphic_675" filter="url(#Shadow)">
          <path d="M 1810 2780.1253 L 1810 2732.1253 C 1810 2728.8133 1842.816 2726.1253 1883.25 2726.1253 C 1923.684 2726.1253 1956.5 2728.8133 1956.5 2732.1253 L 1956.5 2780.1253 C 1956.5 2783.4373 1923.684 2786.1253 1883.25 2786.1253 C 1842.816 2786.1253 1810 2783.4373 1810 2780.1253" fill="#fffbf1"/>
          <path d="M 1810 2780.1253 L 1810 2732.1253 C 1810 2728.8133 1842.816 2726.1253 1883.25 2726.1253 C 1923.684 2726.1253 1956.5 2728.8133 1956.5 2732.1253 L 1956.5 2780.1253 C 1956.5 2783.4373 1923.684 2786.1253 1883.25 2786.1253 C 1842.816 2786.1253 1810 2783.4373 1810 2780.1253 M 1810 2732.1253 C 1810 2735.4373 1842.816 2738.1253 1883.25 2738.1253 C 1923.684 2738.1253 1956.5 2735.4373 1956.5 2732.1253" stroke="black" stroke-linecap="round" stroke-linejoin="round" stroke-width="1"/>
          <text transform="translate(1815 2749.9013)" fill="black">
            <tspan font-family="Helvetica Neue" font-size="16" fill="black" x="40.394" y="15">Training</tspan>
          </text>
        </g>
        <g id="Line_674">
          <line x1="1966.0633" y1="2637.0015" x2="1909.5877" y2="2718.2395" marker-end="url(#FilledArrow_Marker)" stroke="black" stroke-linecap="round" stroke-linejoin="round" stroke-width="1"/>
        </g>
        <g id="Graphic_673">
          <path d="M 2022.5 2774.5253 L 2022.5 2737.7253 C 2022.5 2735.186 2044.34 2733.1253 2071.25 2733.1253 C 2098.16 2733.1253 2120 2735.186 2120 2737.7253 L 2120 2774.5253 C 2120 2777.0645 2098.16 2779.1253 2071.25 2779.1253 C 2044.34 2779.1253 2022.5 2777.0645 2022.5 2774.5253" fill="#7a81ff" fill-opacity=".08"/>
          <path d="M 2022.5 2774.5253 L 2022.5 2737.7253 C 2022.5 2735.186 2044.34 2733.1253 2071.25 2733.1253 C 2098.16 2733.1253 2120 2735.186 2120 2737.7253 L 2120 2774.5253 C 2120 2777.0645 2098.16 2779.1253 2071.25 2779.1253 C 2044.34 2779.1253 2022.5 2777.0645 2022.5 2774.5253 M 2022.5 2737.7253 C 2022.5 2740.2645 2044.34 2742.3253 2071.25 2742.3253 C 2098.16 2742.3253 2120 2740.2645 2120 2737.7253" stroke="black" stroke-linecap="round" stroke-linejoin="round" stroke-width="1"/>
          <text transform="translate(2027.5 2751.0773)" fill="black">
            <tspan font-family="Helvetica Neue" font-size="16" fill="black" x="9.078" y="15">Validation</tspan>
          </text>
        </g>
        <g id="Line_672">
          <line x1="2003.6854" y1="2637.083" x2="2053.4026" y2="2724.68" marker-end="url(#FilledArrow_Marker_2)" stroke="black" stroke-linecap="round" stroke-linejoin="round" stroke-width="1"/>
        </g>
      </g>
    </g>
  </g>
</svg>
