<?xml version="1.0" encoding="UTF-8" standalone="no"?>
<!DOCTYPE svg PUBLIC "-//W3C//DTD SVG 1.1//EN" "http://www.w3.org/Graphics/SVG/1.1/DTD/svg11.dtd">
<svg xmlns:xl="http://www.w3.org/1999/xlink" xmlns:dc="http://purl.org/dc/elements/1.1/" xmlns="http://www.w3.org/2000/svg" version="1.1" viewBox="6544 2522 744.5 847.1253" width="744.5" height="847.1253">
  <defs>
    <marker orient="auto" overflow="visible" markerUnits="strokeWidth" id="FilledArrow_Marker" stroke-linejoin="miter" stroke-miterlimit="10" viewBox="-1 -4 10 8" markerWidth="10" markerHeight="8" color="black">
      <g>
        <path d="M 8 0 L 0 -3 L 0 3 Z" fill="currentColor" stroke="currentColor" stroke-width="1"/>
      </g>
    </marker>
    <filter id="Shadow" filterUnits="userSpaceOnUse" x="6469.55" y="2437.2875">
      <feGaussianBlur in="SourceAlpha" result="blur" stdDeviation="1.308"/>
      <feOffset in="blur" result="offset" dx="0" dy="2"/>
      <feFlood flood-color="black" flood-opacity=".5" result="flood"/>
      <feComposite in="flood" in2="offset" operator="in" result="color"/>
      <feMerge>
        <feMergeNode in="color"/>
        <feMergeNode in="SourceGraphic"/>
      </feMerge>
    </filter>
  </defs>
  <g id="Canvas_1" stroke-opacity="1" stroke="none" stroke-dasharray="none" fill-opacity="1" fill="none">
    <title>Canvas 1</title>
    <g id="Canvas_1_Layer_1">
      <title>Layer 1</title>
      <g id="Group_607">
        <g id="Graphic_585"/>
        <g id="Graphic_584">
          <path d="M 6956 3106.2505 L 7098.5 3106.2505 C 7099.6046 3106.2505 7100.5 3107.146 7100.5 3108.2505 L 7100.5 3164.2505 C 7100.5 3165.355 7099.6046 3166.2505 7098.5 3166.2505 L 6956 3166.2505 C 6954.8954 3166.2505 6954 3165.355 6954 3164.2505 L 6954 3108.2505 C 6954 3107.146 6954.8954 3106.2505 6956 3106.2505 Z" fill="#ffeabb"/>
          <path d="M 6956 3106.2505 L 7098.5 3106.2505 C 7099.6046 3106.2505 7100.5 3107.146 7100.5 3108.2505 L 7100.5 3164.2505 C 7100.5 3165.355 7099.6046 3166.2505 7098.5 3166.2505 L 6956 3166.2505 C 6954.8954 3166.2505 6954 3165.355 6954 3164.2505 L 6954 3108.2505 C 6954 3107.146 6954.8954 3106.2505 6956 3106.2505 Z" stroke="black" stroke-linecap="round" stroke-linejoin="round" stroke-width="1"/>
          <text transform="translate(6959 3127.0265)" fill="black">
            <tspan font-family="Helvetica Neue" font-size="16" fill="black" x="18.018" y="15">Final model fit</tspan>
          </text>
        </g>
        <g id="Graphic_583">
          <path d="M 6956 2988.3758 L 7098.5 2988.3758 C 7099.6046 2988.3758 7100.5 2989.2712 7100.5 2990.3758 L 7100.5 3046.3758 C 7100.5 3047.4804 7099.6046 3048.3758 7098.5 3048.3758 L 6956 3048.3758 C 6954.8954 3048.3758 6954 3047.4804 6954 3046.3758 L 6954 2990.3758 C 6954 2989.2712 6954.8954 2988.3758 6956 2988.3758 Z" fill="#7a81ff" fill-opacity=".08"/>
          <path d="M 6956 2988.3758 L 7098.5 2988.3758 C 7099.6046 2988.3758 7100.5 2989.2712 7100.5 2990.3758 L 7100.5 3046.3758 C 7100.5 3047.4804 7099.6046 3048.3758 7098.5 3048.3758 L 6956 3048.3758 C 6954.8954 3048.3758 6954 3047.4804 6954 3046.3758 L 6954 2990.3758 C 6954 2989.2712 6954.8954 2988.3758 6956 2988.3758 Z" stroke="black" stroke-linecap="round" stroke-linejoin="round" stroke-width="1"/>
          <text transform="translate(6959 3009.1518)" fill="black">
            <tspan font-family="Helvetica Neue" font-size="16" fill="black" x="14.762" y="15">Select a Model</tspan>
          </text>
        </g>
        <g id="Graphic_582">
          <path d="M 6956 3224.1253 L 7098.5 3224.1253 C 7099.6046 3224.1253 7100.5 3225.0207 7100.5 3226.1253 L 7100.5 3282.1253 C 7100.5 3283.23 7099.6046 3284.1253 7098.5 3284.1253 L 6956 3284.1253 C 6954.8954 3284.1253 6954 3283.23 6954 3282.1253 L 6954 3226.1253 C 6954 3225.0207 6954.8954 3224.1253 6956 3224.1253 Z" fill="#7a81ff" fill-opacity=".181819"/>
          <path d="M 6956 3224.1253 L 7098.5 3224.1253 C 7099.6046 3224.1253 7100.5 3225.0207 7100.5 3226.1253 L 7100.5 3282.1253 C 7100.5 3283.23 7099.6046 3284.1253 7098.5 3284.1253 L 6956 3284.1253 C 6954.8954 3284.1253 6954 3283.23 6954 3282.1253 L 6954 3226.1253 C 6954 3225.0207 6954.8954 3224.1253 6956 3224.1253 Z" stroke="black" stroke-linecap="round" stroke-linejoin="round" stroke-width="1"/>
          <text transform="translate(6959 3235.6773)" fill="black">
            <tspan font-family="Helvetica Neue" font-size="16" fill="black" x="24.242" y="15">Verify model </tspan>
            <tspan font-family="Helvetica Neue" font-size="16" fill="black" x="22.762" y="33.448">performance</tspan>
          </text>
        </g>
        <g id="Line_581">
          <line x1="7027.25" y1="3048.3758" x2="7027.25" y2="3096.3505" marker-end="url(#FilledArrow_Marker)" stroke="black" stroke-linecap="round" stroke-linejoin="round" stroke-width="1"/>
        </g>
        <g id="Line_580">
          <line x1="7027.25" y1="3166.2505" x2="7027.25" y2="3214.2253" marker-end="url(#FilledArrow_Marker)" stroke="black" stroke-linecap="round" stroke-linejoin="round" stroke-width="1"/>
        </g>
        <g id="Graphic_578">
          <path d="M 6657.5 2734.2444 L 6657.5 2686.2444 C 6657.5 2682.9324 6690.316 2680.2444 6730.75 2680.2444 C 6771.184 2680.2444 6804 2682.9324 6804 2686.2444 L 6804 2734.2444 C 6804 2737.5564 6771.184 2740.2444 6730.75 2740.2444 C 6690.316 2740.2444 6657.5 2737.5564 6657.5 2734.2444" fill="#7a81ff" fill-opacity=".181819"/>
          <path d="M 6657.5 2734.2444 L 6657.5 2686.2444 C 6657.5 2682.9324 6690.316 2680.2444 6730.75 2680.2444 C 6771.184 2680.2444 6804 2682.9324 6804 2686.2444 L 6804 2734.2444 C 6804 2737.5564 6771.184 2740.2444 6730.75 2740.2444 C 6690.316 2740.2444 6657.5 2737.5564 6657.5 2734.2444 M 6657.5 2686.2444 C 6657.5 2689.5564 6690.316 2692.2444 6730.75 2692.2444 C 6771.184 2692.2444 6804 2689.5564 6804 2686.2444" stroke="black" stroke-linecap="round" stroke-linejoin="round" stroke-width="1"/>
          <text transform="translate(6662.5 2704.0204)" fill="black">
            <tspan font-family="Helvetica Neue" font-size="16" fill="black" x="42.914" y="15">Testing</tspan>
          </text>
        </g>
        <g id="Line_577">
          <path d="M 6718.368 2740.159 C 6693.031 2806.6832 6642.932 2970.469 6708.3696 3090.504 C 6759.916 3185.0578 6868.279 3225.18 6944.317 3242.0687" marker-end="url(#FilledArrow_Marker)" stroke="black" stroke-linecap="round" stroke-linejoin="round" stroke-width="1"/>
        </g>
        <g id="Graphic_576">
          <path d="M 6814.5 2614.1253 L 6814.5 2566.1253 C 6814.5 2562.8133 6847.316 2560.1253 6887.75 2560.1253 C 6928.184 2560.1253 6961 2562.8133 6961 2566.1253 L 6961 2614.1253 C 6961 2617.4373 6928.184 2620.1253 6887.75 2620.1253 C 6847.316 2620.1253 6814.5 2617.4373 6814.5 2614.1253 M 6814.5 2566.1253 C 6814.5 2569.4373 6847.316 2572.1253 6887.75 2572.1253 C 6928.184 2572.1253 6961 2569.4373 6961 2566.1253" stroke="black" stroke-linecap="round" stroke-linejoin="round" stroke-width="1"/>
          <text transform="translate(6819.5 2583.9013)" fill="black">
            <tspan font-family="Helvetica Neue" font-size="16" fill="black" x="40.546" y="15">All Data</tspan>
          </text>
        </g>
        <g id="Line_575">
          <line x1="6849.681" y1="2619.2515" x2="6776.682" y2="2675.1025" marker-end="url(#FilledArrow_Marker)" stroke="black" stroke-linecap="round" stroke-linejoin="round" stroke-width="1"/>
        </g>
        <g id="Graphic_573">
          <rect x="6954" y="2907" width="48.54948" height="20.50105" fill="#f6f5ff"/>
          <rect x="6954" y="2907" width="48.54948" height="20.50105" stroke="black" stroke-linecap="round" stroke-linejoin="round" stroke-width="1"/>
          <text transform="translate(6959 2911.6245)" fill="black">
            <tspan font-family="Helvetica Neue" font-size="9" fill="black" x="3.5247402" y="9">Logistic</tspan>
          </text>
        </g>
        <g id="Graphic_572">
          <rect x="7051.9505" y="2907" width="48.54948" height="20.50105" fill="#f6f5ff"/>
          <rect x="7051.9505" y="2907" width="48.54948" height="20.50105" stroke="black" stroke-linecap="round" stroke-linejoin="round" stroke-width="1"/>
          <text transform="translate(7056.9505 2911.6245)" fill="black">
            <tspan font-family="Helvetica Neue" font-size="9" fill="black" x="2.4402402" y="9">Xgboost</tspan>
          </text>
        </g>
        <g id="Line_571">
          <line x1="7014.1315" y1="2839.041" x2="6987.1" y2="2898.0007" marker-end="url(#FilledArrow_Marker)" stroke="black" stroke-linecap="round" stroke-linejoin="round" stroke-width="1"/>
        </g>
        <g id="Line_570">
          <line x1="7030.262" y1="2839.041" x2="7065.185" y2="2898.465" marker-end="url(#FilledArrow_Marker)" stroke="black" stroke-linecap="round" stroke-linejoin="round" stroke-width="1"/>
        </g>
        <g id="Line_569">
          <line x1="6983.239" y1="2927.501" x2="7008.406" y2="2979.4657" marker-end="url(#FilledArrow_Marker)" stroke="black" stroke-linecap="round" stroke-linejoin="round" stroke-width="1"/>
        </g>
        <g id="Line_568">
          <line x1="7071.261" y1="2927.501" x2="7046.094" y2="2979.4657" marker-end="url(#FilledArrow_Marker)" stroke="black" stroke-linecap="round" stroke-linejoin="round" stroke-width="1"/>
        </g>
        <g id="Graphic_567" filter="url(#Shadow)">
          <path d="M 6947.9505 2734.2444 L 6947.9505 2686.2444 C 6947.9505 2682.9324 6980.7665 2680.2444 7021.2005 2680.2444 C 7061.6345 2680.2444 7094.4505 2682.9324 7094.4505 2686.2444 L 7094.4505 2734.2444 C 7094.4505 2737.5564 7061.6345 2740.2444 7021.2005 2740.2444 C 6980.7665 2740.2444 6947.9505 2737.5564 6947.9505 2734.2444" fill="#ffeabb"/>
          <path d="M 6947.9505 2734.2444 L 6947.9505 2686.2444 C 6947.9505 2682.9324 6980.7665 2680.2444 7021.2005 2680.2444 C 7061.6345 2680.2444 7094.4505 2682.9324 7094.4505 2686.2444 L 7094.4505 2734.2444 C 7094.4505 2737.5564 7061.6345 2740.2444 7021.2005 2740.2444 C 6980.7665 2740.2444 6947.9505 2737.5564 6947.9505 2734.2444 M 6947.9505 2686.2444 C 6947.9505 2689.5564 6980.7665 2692.2444 7021.2005 2692.2444 C 7061.6345 2692.2444 7094.4505 2689.5564 7094.4505 2686.2444" stroke="black" stroke-linecap="round" stroke-linejoin="round" stroke-width="1"/>
          <text transform="translate(6952.9505 2704.0204)" fill="black">
            <tspan font-family="Helvetica Neue" font-size="16" fill="black" x="40.394" y="15">Training</tspan>
          </text>
        </g>
        <g id="Line_586">
          <line x1="6920.382" y1="2619.4978" x2="6981.21" y2="2674.2487" marker-end="url(#FilledArrow_Marker)" stroke="black" stroke-linecap="round" stroke-linejoin="round" stroke-width="1"/>
        </g>
        <g id="Line_588">
          <line x1="7021.0905" y1="2740.2444" x2="7020.931" y2="2783.7223" marker-end="url(#FilledArrow_Marker)" stroke="black" stroke-linecap="round" stroke-linejoin="round" stroke-width="1"/>
        </g>
        <g id="Line_589">
          <path d="M 7056.447 2739.5046 C 7112.38 2788.5555 7215.332 2890.6427 7216.579 2978.4933 C 7217.5146 3044.3506 7161.054 3085.3085 7109.558 3108.9313" marker-end="url(#FilledArrow_Marker)" stroke="black" stroke-linecap="round" stroke-linejoin="round" stroke-width="1"/>
        </g>
        <g id="Group_606">
          <g id="Graphic_603">
            <path d="M 6953.118 2847.6222 L 6953.118 2799.6222 C 6953.118 2796.3102 6983.433 2793.6222 7020.785 2793.6222 C 7058.137 2793.6222 7088.4515 2796.3102 7088.4515 2799.6222 L 7088.4515 2847.6222 C 7088.4515 2850.9342 7058.137 2853.6222 7020.785 2853.6222 C 6983.433 2853.6222 6953.118 2850.9342 6953.118 2847.6222" fill="#f6f5ff"/>
            <path d="M 6953.118 2847.6222 L 6953.118 2799.6222 C 6953.118 2796.3102 6983.433 2793.6222 7020.785 2793.6222 C 7058.137 2793.6222 7088.4515 2796.3102 7088.4515 2799.6222 L 7088.4515 2847.6222 C 7088.4515 2850.9342 7058.137 2853.6222 7020.785 2853.6222 C 6983.433 2853.6222 6953.118 2850.9342 6953.118 2847.6222 M 6953.118 2799.6222 C 6953.118 2802.9342 6983.433 2805.6222 7020.785 2805.6222 C 7058.137 2805.6222 7088.4515 2802.9342 7088.4515 2799.6222" stroke="black" stroke-linecap="round" stroke-linejoin="round" stroke-width="1"/>
          </g>
          <g id="Line_602">
            <path d="M 6953.026 2809.9803 C 6953.026 2809.9803 6979.3496 2814.4773 7017.69 2814.4305 C 7056.031 2814.3838 7088.359 2809.815 7088.359 2809.815" stroke="black" stroke-linecap="round" stroke-linejoin="round" stroke-width="1"/>
          </g>
          <g id="Line_601">
            <path d="M 6954.042 2819.2893 C 6954.042 2819.2893 6980.366 2823.7863 7018.706 2823.7395 C 7057.047 2823.6928 7089.375 2819.124 7089.375 2819.124" stroke="black" stroke-linecap="round" stroke-linejoin="round" stroke-width="1"/>
          </g>
          <g id="Line_600">
            <path d="M 6953.026 2828.5983 C 6953.026 2828.5983 6979.3496 2833.0953 7017.69 2833.0485 C 7056.031 2833.0017 7088.359 2828.433 7088.359 2828.433" stroke="black" stroke-linecap="round" stroke-linejoin="round" stroke-width="1"/>
          </g>
          <g id="Line_599">
            <path d="M 6954.042 2837.9073 C 6954.042 2837.9073 6980.366 2842.4043 7018.706 2842.3575 C 7057.047 2842.3107 7089.375 2837.742 7089.375 2837.742" stroke="black" stroke-linecap="round" stroke-linejoin="round" stroke-width="1"/>
          </g>
          <g id="Graphic_594">
            <rect x="6974.289" y="2808.2034" width="93.82355" height="30.83759" fill="#f6f5ff"/>
            <text transform="translate(6991.4165 2816.4542)" fill="black">
              <tspan font-family="Helvetica Neue" font-size="12" fill="black" x="0" y="11">Resamples</tspan>
            </text>
          </g>
        </g>
      </g>
    </g>
  </g>
</svg>
