<?xml version="1.0" encoding="UTF-8" standalone="no"?>
<!DOCTYPE svg PUBLIC "-//W3C//DTD SVG 1.1//EN" "http://www.w3.org/Graphics/SVG/1.1/DTD/svg11.dtd">
<svg xmlns="http://www.w3.org/2000/svg" xmlns:xl="http://www.w3.org/1999/xlink" xmlns:dc="http://purl.org/dc/elements/1.1/" version="1.1" viewBox="553 2515 744.5 416" width="744.5" height="416">
  <defs>
    <marker orient="auto" overflow="visible" markerUnits="strokeWidth" id="FilledArrow_Marker" stroke-linejoin="miter" stroke-miterlimit="10" viewBox="-1 -4 10 8" markerWidth="10" markerHeight="8" color="black">
      <g>
        <path d="M 8 0 L 0 -3 L 0 3 Z" fill="currentColor" stroke="currentColor" stroke-width="1"/>
      </g>
    </marker>
    <filter id="Shadow" filterUnits="userSpaceOnUse" x="478.55" y="2473.4">
      <feGaussianBlur in="SourceAlpha" result="blur" stdDeviation="1.308"/>
      <feOffset in="blur" result="offset" dx="0" dy="2"/>
      <feFlood flood-color="black" flood-opacity=".5" result="flood"/>
      <feComposite in="flood" in2="offset" operator="in" result="color"/>
      <feMerge>
        <feMergeNode in="color"/>
        <feMergeNode in="SourceGraphic"/>
      </feMerge>
    </filter>
  </defs>
  <g id="Canvas_1" fill-opacity="1" stroke="none" stroke-dasharray="none" stroke-opacity="1" fill="none">
    <title>Canvas 1</title>
    <g id="Canvas_1_Layer_1">
      <title>Layer 1</title>
      <g id="Group_795">
        <g id="Graphic_794"/>
        <g id="Graphic_793">
          <path d="M 939.5 2729.2444 L 939.5 2681.2444 C 939.5 2677.9324 972.316 2675.2444 1012.75 2675.2444 C 1053.184 2675.2444 1086 2677.9324 1086 2681.2444 L 1086 2729.2444 C 1086 2732.5564 1053.184 2735.2444 1012.75 2735.2444 C 972.316 2735.2444 939.5 2732.5564 939.5 2729.2444" fill="#ffeabb"/>
          <path d="M 939.5 2729.2444 L 939.5 2681.2444 C 939.5 2677.9324 972.316 2675.2444 1012.75 2675.2444 C 1053.184 2675.2444 1086 2677.9324 1086 2681.2444 L 1086 2729.2444 C 1086 2732.5564 1053.184 2735.2444 1012.75 2735.2444 C 972.316 2735.2444 939.5 2732.5564 939.5 2729.2444 M 939.5 2681.2444 C 939.5 2684.5564 972.316 2687.2444 1012.75 2687.2444 C 1053.184 2687.2444 1086 2684.5564 1086 2681.2444" stroke="black" stroke-linecap="round" stroke-linejoin="round" stroke-width="1"/>
          <text transform="translate(944.5 2699.0204)" fill="black">
            <tspan font-family="Helvetica Neue" font-size="16" fill="black" x="27.802" y="15">Not Testing</tspan>
          </text>
        </g>
        <g id="Graphic_792">
          <path d="M 643.5 2729.2444 L 643.5 2681.2444 C 643.5 2677.9324 676.316 2675.2444 716.75 2675.2444 C 757.184 2675.2444 790 2677.9324 790 2681.2444 L 790 2729.2444 C 790 2732.5564 757.184 2735.2444 716.75 2735.2444 C 676.316 2735.2444 643.5 2732.5564 643.5 2729.2444" fill="#7a81ff" fill-opacity=".181819"/>
          <path d="M 643.5 2729.2444 L 643.5 2681.2444 C 643.5 2677.9324 676.316 2675.2444 716.75 2675.2444 C 757.184 2675.2444 790 2677.9324 790 2681.2444 L 790 2729.2444 C 790 2732.5564 757.184 2735.2444 716.75 2735.2444 C 676.316 2735.2444 643.5 2732.5564 643.5 2729.2444 M 643.5 2681.2444 C 643.5 2684.5564 676.316 2687.2444 716.75 2687.2444 C 757.184 2687.2444 790 2684.5564 790 2681.2444" stroke="black" stroke-linecap="round" stroke-linejoin="round" stroke-width="1"/>
          <text transform="translate(648.5 2699.0204)" fill="black">
            <tspan font-family="Helvetica Neue" font-size="16" fill="black" x="42.914" y="15">Testing</tspan>
          </text>
        </g>
        <g id="Graphic_791">
          <path d="M 800.5 2609.1253 L 800.5 2561.1253 C 800.5 2557.8133 833.316 2555.1253 873.75 2555.1253 C 914.184 2555.1253 947 2557.8133 947 2561.1253 L 947 2609.1253 C 947 2612.4373 914.184 2615.1253 873.75 2615.1253 C 833.316 2615.1253 800.5 2612.4373 800.5 2609.1253 M 800.5 2561.1253 C 800.5 2564.4373 833.316 2567.1253 873.75 2567.1253 C 914.184 2567.1253 947 2564.4373 947 2561.1253" stroke="black" stroke-linecap="round" stroke-linejoin="round" stroke-width="1"/>
          <text transform="translate(805.5 2578.9013)" fill="black">
            <tspan font-family="Helvetica Neue" font-size="16" fill="black" x="40.546" y="15">All Data</tspan>
          </text>
        </g>
        <g id="Line_790">
          <line x1="835.681" y1="2614.2515" x2="762.6817" y2="2670.1025" marker-end="url(#FilledArrow_Marker)" stroke="black" stroke-linecap="round" stroke-linejoin="round" stroke-width="1"/>
        </g>
        <g id="Line_789">
          <line x1="907.6767" y1="2614.4436" x2="971.3327" y2="2669.453" marker-end="url(#FilledArrow_Marker)" stroke="black" stroke-linecap="round" stroke-linejoin="round" stroke-width="1"/>
        </g>
        <g id="Graphic_788" filter="url(#Shadow)">
          <path d="M 836 2878.1253 L 836 2830.1253 C 836 2826.8133 868.816 2824.1253 909.25 2824.1253 C 949.684 2824.1253 982.5 2826.8133 982.5 2830.1253 L 982.5 2878.1253 C 982.5 2881.4373 949.684 2884.1253 909.25 2884.1253 C 868.816 2884.1253 836 2881.4373 836 2878.1253" fill="#fffbf1"/>
          <path d="M 836 2878.1253 L 836 2830.1253 C 836 2826.8133 868.816 2824.1253 909.25 2824.1253 C 949.684 2824.1253 982.5 2826.8133 982.5 2830.1253 L 982.5 2878.1253 C 982.5 2881.4373 949.684 2884.1253 909.25 2884.1253 C 868.816 2884.1253 836 2881.4373 836 2878.1253 M 836 2830.1253 C 836 2833.4373 868.816 2836.1253 909.25 2836.1253 C 949.684 2836.1253 982.5 2833.4373 982.5 2830.1253" stroke="black" stroke-linecap="round" stroke-linejoin="round" stroke-width="1"/>
          <text transform="translate(841 2847.9013)" fill="black">
            <tspan font-family="Helvetica Neue" font-size="16" fill="black" x="40.394" y="15">Training</tspan>
          </text>
        </g>
        <g id="Line_787">
          <line x1="992.0633" y1="2735.0015" x2="935.5877" y2="2816.2395" marker-end="url(#FilledArrow_Marker)" stroke="black" stroke-linecap="round" stroke-linejoin="round" stroke-width="1"/>
        </g>
        <g id="Graphic_786">
          <path d="M 1048.5 2872.5253 L 1048.5 2835.7253 C 1048.5 2833.186 1070.34 2831.1253 1097.25 2831.1253 C 1124.16 2831.1253 1146 2833.186 1146 2835.7253 L 1146 2872.5253 C 1146 2875.0645 1124.16 2877.1253 1097.25 2877.1253 C 1070.34 2877.1253 1048.5 2875.0645 1048.5 2872.5253" fill="#7a81ff" fill-opacity=".08"/>
          <path d="M 1048.5 2872.5253 L 1048.5 2835.7253 C 1048.5 2833.186 1070.34 2831.1253 1097.25 2831.1253 C 1124.16 2831.1253 1146 2833.186 1146 2835.7253 L 1146 2872.5253 C 1146 2875.0645 1124.16 2877.1253 1097.25 2877.1253 C 1070.34 2877.1253 1048.5 2875.0645 1048.5 2872.5253 M 1048.5 2835.7253 C 1048.5 2838.2645 1070.34 2840.3253 1097.25 2840.3253 C 1124.16 2840.3253 1146 2838.2645 1146 2835.7253" stroke="black" stroke-linecap="round" stroke-linejoin="round" stroke-width="1"/>
          <text transform="translate(1053.5 2849.0773)" fill="black">
            <tspan font-family="Helvetica Neue" font-size="16" fill="black" x="9.078" y="15">Validation</tspan>
          </text>
        </g>
        <g id="Line_785">
          <line x1="1029.6854" y1="2735.083" x2="1079.4026" y2="2822.68" marker-end="url(#FilledArrow_Marker)" stroke="black" stroke-linecap="round" stroke-linejoin="round" stroke-width="1"/>
        </g>
      </g>
    </g>
  </g>
</svg>
