<?xml version="1.0" encoding="UTF-8" standalone="no"?>
<!DOCTYPE svg PUBLIC "-//W3C//DTD SVG 1.1//EN" "http://www.w3.org/Graphics/SVG/1.1/DTD/svg11.dtd">
<svg xmlns="http://www.w3.org/2000/svg" xmlns:xl="http://www.w3.org/1999/xlink" xmlns:dc="http://purl.org/dc/elements/1.1/" version="1.1" viewBox="5625.1 1452.2505 713.5 804" width="713.5" height="804">
  <defs>
    <filter id="Shadow" filterUnits="userSpaceOnUse" x="5553.75" y="1371.8505">
      <feGaussianBlur in="SourceAlpha" result="blur" stdDeviation="1.308"/>
      <feOffset in="blur" result="offset" dx="0" dy="2"/>
      <feFlood flood-color="black" flood-opacity=".5" result="flood"/>
      <feComposite in="flood" in2="offset" operator="in" result="color"/>
      <feMerge>
        <feMergeNode in="color"/>
        <feMergeNode in="SourceGraphic"/>
      </feMerge>
    </filter>
    <marker orient="auto" overflow="visible" markerUnits="strokeWidth" id="FilledArrow_Marker" stroke-linejoin="miter" stroke-miterlimit="10" viewBox="-1 -4 10 8" markerWidth="10" markerHeight="8" color="black">
      <g>
        <path d="M 8 0 L 0 -3 L 0 3 Z" fill="currentColor" stroke="currentColor" stroke-width="1"/>
      </g>
    </marker>
  </defs>
  <g id="Canvas_1" stroke="none" stroke-opacity="1" fill="none" stroke-dasharray="none" fill-opacity="1">
    <title>Canvas 1</title>
    <g id="Canvas_1_Layer_1">
      <title>Layer 1</title>
      <g id="Group_439">
        <g id="Group_437">
          <g id="Graphic_431"/>
          <g id="Graphic_430" filter="url(#Shadow)">
            <path d="M 6115.5 2012.2505 L 6258 2012.2505 C 6259.1046 2012.2505 6260 2013.146 6260 2014.2505 L 6260 2070.2505 C 6260 2071.355 6259.1046 2072.2505 6258 2072.2505 L 6115.5 2072.2505 C 6114.3954 2072.2505 6113.5 2071.355 6113.5 2070.2505 L 6113.5 2014.2505 C 6113.5 2013.146 6114.3954 2012.2505 6115.5 2012.2505 Z" fill="#ffeabb"/>
            <path d="M 6115.5 2012.2505 L 6258 2012.2505 C 6259.1046 2012.2505 6260 2013.146 6260 2014.2505 L 6260 2070.2505 C 6260 2071.355 6259.1046 2072.2505 6258 2072.2505 L 6115.5 2072.2505 C 6114.3954 2072.2505 6113.5 2071.355 6113.5 2070.2505 L 6113.5 2014.2505 C 6113.5 2013.146 6114.3954 2012.2505 6115.5 2012.2505 Z" stroke="black" stroke-linecap="round" stroke-linejoin="round" stroke-width="1"/>
            <text transform="translate(6118.5 2033.0265)" fill="black">
              <tspan font-family="Helvetica Neue" font-size="16" fill="black" x="18.018" y="15">Final model fit</tspan>
            </text>
          </g>
          <g id="Graphic_429" filter="url(#Shadow)">
            <path d="M 6115.5 1908.7505 L 6258 1908.7505 C 6259.1046 1908.7505 6260 1909.646 6260 1910.7505 L 6260 1966.7505 C 6260 1967.855 6259.1046 1968.7505 6258 1968.7505 L 6115.5 1968.7505 C 6114.3954 1968.7505 6113.5 1967.855 6113.5 1966.7505 L 6113.5 1910.7505 C 6113.5 1909.646 6114.3954 1908.7505 6115.5 1908.7505 Z" fill="#fffbf1"/>
            <path d="M 6115.5 1908.7505 L 6258 1908.7505 C 6259.1046 1908.7505 6260 1909.646 6260 1910.7505 L 6260 1966.7505 C 6260 1967.855 6259.1046 1968.7505 6258 1968.7505 L 6115.5 1968.7505 C 6114.3954 1968.7505 6113.5 1967.855 6113.5 1966.7505 L 6113.5 1910.7505 C 6113.5 1909.646 6114.3954 1908.7505 6115.5 1908.7505 Z" stroke="black" stroke-linecap="round" stroke-linejoin="round" stroke-width="1"/>
            <text transform="translate(6118.5 1929.5265)" fill="black">
              <tspan font-family="Helvetica Neue" font-size="16" fill="black" x="14.762" y="15">Select a Model</tspan>
            </text>
          </g>
          <g id="Graphic_428" filter="url(#Shadow)">
            <path d="M 6115.5 2115.7505 L 6258 2115.7505 C 6259.1046 2115.7505 6260 2116.646 6260 2117.7505 L 6260 2173.7505 C 6260 2174.855 6259.1046 2175.7505 6258 2175.7505 L 6115.5 2175.7505 C 6114.3954 2175.7505 6113.5 2174.855 6113.5 2173.7505 L 6113.5 2117.7505 C 6113.5 2116.646 6114.3954 2115.7505 6115.5 2115.7505 Z" fill="#e5e6ff"/>
            <path d="M 6115.5 2115.7505 L 6258 2115.7505 C 6259.1046 2115.7505 6260 2116.646 6260 2117.7505 L 6260 2173.7505 C 6260 2174.855 6259.1046 2175.7505 6258 2175.7505 L 6115.5 2175.7505 C 6114.3954 2175.7505 6113.5 2174.855 6113.5 2173.7505 L 6113.5 2117.7505 C 6113.5 2116.646 6114.3954 2115.7505 6115.5 2115.7505 Z" stroke="black" stroke-linecap="round" stroke-linejoin="round" stroke-width="1"/>
            <text transform="translate(6118.5 2127.3025)" fill="black">
              <tspan font-family="Helvetica Neue" font-size="16" fill="black" x="24.242" y="15">Verify model </tspan>
              <tspan font-family="Helvetica Neue" font-size="16" fill="black" x="22.762" y="33.448">performance</tspan>
            </text>
          </g>
          <g id="Line_427">
            <line x1="6186.75" y1="1968.7505" x2="6186.75" y2="2002.3505" marker-end="url(#FilledArrow_Marker)" stroke="black" stroke-linecap="round" stroke-linejoin="round" stroke-width="1"/>
          </g>
          <g id="Line_426">
            <line x1="6186.75" y1="2072.2505" x2="6186.75" y2="2105.8505" marker-end="url(#FilledArrow_Marker)" stroke="black" stroke-linecap="round" stroke-linejoin="round" stroke-width="1"/>
          </g>
          <g id="Graphic_425">
            <path d="M 6038.5 1660.3697 L 6038.5 1612.3697 C 6038.5 1609.0577 6071.316 1606.3697 6111.75 1606.3697 C 6152.184 1606.3697 6185 1609.0577 6185 1612.3697 L 6185 1660.3697 C 6185 1663.6817 6152.184 1666.3697 6111.75 1666.3697 C 6071.316 1666.3697 6038.5 1663.6817 6038.5 1660.3697 M 6038.5 1612.3697 C 6038.5 1615.6817 6071.316 1618.3697 6111.75 1618.3697 C 6152.184 1618.3697 6185 1615.6817 6185 1612.3697" stroke="black" stroke-linecap="round" stroke-linejoin="round" stroke-width="1"/>
            <text transform="translate(6043.5 1630.1457)" fill="black">
              <tspan font-family="Helvetica Neue" font-size="16" fill="black" x="27.802" y="15">Not Testing</tspan>
            </text>
          </g>
          <g id="Graphic_424" filter="url(#Shadow)">
            <path d="M 5651.1 1660.3697 L 5651.1 1612.3697 C 5651.1 1609.0577 5683.916 1606.3697 5724.35 1606.3697 C 5764.784 1606.3697 5797.6 1609.0577 5797.6 1612.3697 L 5797.6 1660.3697 C 5797.6 1663.6817 5764.784 1666.3697 5724.35 1666.3697 C 5683.916 1666.3697 5651.1 1663.6817 5651.1 1660.3697" fill="#e5e6ff"/>
            <path d="M 5651.1 1660.3697 L 5651.1 1612.3697 C 5651.1 1609.0577 5683.916 1606.3697 5724.35 1606.3697 C 5764.784 1606.3697 5797.6 1609.0577 5797.6 1612.3697 L 5797.6 1660.3697 C 5797.6 1663.6817 5764.784 1666.3697 5724.35 1666.3697 C 5683.916 1666.3697 5651.1 1663.6817 5651.1 1660.3697 M 5651.1 1612.3697 C 5651.1 1615.6817 5683.916 1618.3697 5724.35 1618.3697 C 5764.784 1618.3697 5797.6 1615.6817 5797.6 1612.3697" stroke="black" stroke-linecap="round" stroke-linejoin="round" stroke-width="1"/>
            <text transform="translate(5656.1 1630.1457)" fill="black">
              <tspan font-family="Helvetica Neue" font-size="16" fill="black" x="42.914" y="15">Testing</tspan>
            </text>
          </g>
          <g id="Group_418">
            <g id="Graphic_423">
              <path d="M 6136.2685 1751.3655 L 6136.2685 1713.4855 C 6136.2685 1710.8718 6158.746 1708.7505 6186.442 1708.7505 C 6214.1374 1708.7505 6236.615 1710.8718 6236.615 1713.4855 L 6236.615 1751.3655 C 6236.615 1753.9792 6214.1374 1756.1005 6186.442 1756.1005 C 6158.746 1756.1005 6136.2685 1753.9792 6136.2685 1751.3655" fill="#fffbf1"/>
              <path d="M 6136.2685 1751.3655 L 6136.2685 1713.4855 C 6136.2685 1710.8718 6158.746 1708.7505 6186.442 1708.7505 C 6214.1374 1708.7505 6236.615 1710.8718 6236.615 1713.4855 L 6236.615 1751.3655 C 6236.615 1753.9792 6214.1374 1756.1005 6186.442 1756.1005 C 6158.746 1756.1005 6136.2685 1753.9792 6136.2685 1751.3655 M 6136.2685 1713.4855 C 6136.2685 1716.0992 6158.746 1718.2205 6186.442 1718.2205 C 6214.1374 1718.2205 6236.615 1716.0992 6236.615 1713.4855" stroke="black" stroke-linecap="round" stroke-linejoin="round" stroke-width="1"/>
            </g>
            <g id="Line_422">
              <path d="M 6136.2 1721.6598 C 6136.2 1721.6598 6155.7185 1725.2087 6184.147 1725.1718 C 6212.576 1725.1349 6236.5465 1721.5295 6236.5465 1721.5295" stroke="black" stroke-linecap="round" stroke-linejoin="round" stroke-width="1"/>
            </g>
            <g id="Line_421">
              <path d="M 6136.9535 1729.0062 C 6136.9535 1729.0062 6156.472 1732.555 6184.9006 1732.5181 C 6213.329 1732.4812 6237.3 1728.8758 6237.3 1728.8758" stroke="black" stroke-linecap="round" stroke-linejoin="round" stroke-width="1"/>
            </g>
            <g id="Line_420">
              <path d="M 6136.2 1736.3525 C 6136.2 1736.3525 6155.7185 1739.9014 6184.147 1739.8645 C 6212.576 1739.8275 6236.5465 1736.2222 6236.5465 1736.2222" stroke="black" stroke-linecap="round" stroke-linejoin="round" stroke-width="1"/>
            </g>
            <g id="Line_419">
              <path d="M 6136.9535 1743.6989 C 6136.9535 1743.6989 6156.472 1747.2478 6184.9006 1747.2108 C 6213.329 1747.174 6237.3 1743.5685 6237.3 1743.5685" stroke="black" stroke-linecap="round" stroke-linejoin="round" stroke-width="1"/>
            </g>
          </g>
          <g id="Line_417">
            <path d="M 5720.047 1666.3595 C 5710.9615 1742.547 5698.54 1945.678 5803.5 2061.3025 C 5886.533 2152.7717 6018.278 2162.2147 6103.625 2156.8663" marker-end="url(#FilledArrow_Marker)" stroke="black" stroke-linecap="round" stroke-linejoin="round" stroke-width="1"/>
          </g>
          <g id="Line_416">
            <line x1="6134.841" y1="1666.065" x2="6162.204" y2="1701.2553" marker-end="url(#FilledArrow_Marker)" stroke="black" stroke-linecap="round" stroke-linejoin="round" stroke-width="1"/>
          </g>
          <g id="Graphic_415" filter="url(#Shadow)">
            <path d="M 5853.5 1549.2497 L 5853.5 1501.2497 C 5853.5 1497.9377 5886.316 1495.2497 5926.75 1495.2497 C 5967.184 1495.2497 6e3 1497.9377 6e3 1501.2497 L 6e3 1549.2497 C 6e3 1552.5617 5967.184 1555.2497 5926.75 1555.2497 C 5886.316 1555.2497 5853.5 1552.5617 5853.5 1549.2497" fill="#ffeabb"/>
            <path d="M 5853.5 1549.2497 L 5853.5 1501.2497 C 5853.5 1497.9377 5886.316 1495.2497 5926.75 1495.2497 C 5967.184 1495.2497 6e3 1497.9377 6e3 1501.2497 L 6e3 1549.2497 C 6e3 1552.5617 5967.184 1555.2497 5926.75 1555.2497 C 5886.316 1555.2497 5853.5 1552.5617 5853.5 1549.2497 M 5853.5 1501.2497 C 5853.5 1504.5617 5886.316 1507.2497 5926.75 1507.2497 C 5967.184 1507.2497 6e3 1504.5617 6e3 1501.2497" stroke="black" stroke-linecap="round" stroke-linejoin="round" stroke-width="1"/>
            <text transform="translate(5858.5 1519.0257)" fill="black">
              <tspan font-family="Helvetica Neue" font-size="16" fill="black" x="40.546" y="15">All Data</tspan>
            </text>
          </g>
          <g id="Line_414">
            <line x1="5875.264" y1="1553.5162" x2="5784.5144" y2="1603.3387" marker-end="url(#FilledArrow_Marker)" stroke="black" stroke-linecap="round" stroke-linejoin="round" stroke-width="1"/>
          </g>
          <g id="Line_413">
            <line x1="5974.303" y1="1553.8124" x2="6055.71" y2="1602.7094" marker-end="url(#FilledArrow_Marker)" stroke="black" stroke-linecap="round" stroke-linejoin="round" stroke-width="1"/>
          </g>
          <g id="Graphic_412">
            <rect x="6113.5" y="1822.175" width="48.54948" height="20.50105" fill="#ffeabb" fill-opacity=".20827085"/>
            <rect x="6113.5" y="1822.175" width="48.54948" height="20.50105" stroke="black" stroke-linecap="round" stroke-linejoin="round" stroke-width="1"/>
            <text transform="translate(6118.5 1826.7995)" fill="black">
              <tspan font-family="Helvetica Neue" font-size="9" fill="black" x="3.5247402" y="9">Logistic</tspan>
            </text>
          </g>
          <g id="Graphic_410">
            <rect x="6211.4505" y="1822.175" width="48.54948" height="20.50105" fill="#ffeabb" fill-opacity=".20827085"/>
            <rect x="6211.4505" y="1822.175" width="48.54948" height="20.50105" stroke="black" stroke-linecap="round" stroke-linejoin="round" stroke-width="1"/>
            <text transform="translate(6216.4505 1826.7995)" fill="black">
              <tspan font-family="Helvetica Neue" font-size="9" fill="black" x="2.4402402" y="9">Xgboost</tspan>
            </text>
          </g>
          <g id="Line_409">
            <line x1="6174.98" y1="1755.9762" x2="6147.0956" y2="1813.2732" marker-end="url(#FilledArrow_Marker)" stroke="black" stroke-linecap="round" stroke-linejoin="round" stroke-width="1"/>
          </g>
          <g id="Line_408">
            <line x1="6209.602" y1="1755.8556" x2="6229.0315" y2="1812.8053" marker-end="url(#FilledArrow_Marker)" stroke="black" stroke-linecap="round" stroke-linejoin="round" stroke-width="1"/>
          </g>
          <g id="Line_407">
            <line x1="6142.496" y1="1842.676" x2="6168.7896" y2="1899.7586" marker-end="url(#FilledArrow_Marker)" stroke="black" stroke-linecap="round" stroke-linejoin="round" stroke-width="1"/>
          </g>
          <g id="Line_405">
            <line x1="6231.004" y1="1842.676" x2="6204.7104" y2="1899.7586" marker-end="url(#FilledArrow_Marker)" stroke="black" stroke-linecap="round" stroke-linejoin="round" stroke-width="1"/>
          </g>
          <g id="Graphic_404" filter="url(#Shadow)">
            <path d="M 5949.6 1756.4255 L 5949.6 1708.4255 C 5949.6 1705.1135 5982.416 1702.4255 6022.85 1702.4255 C 6063.284 1702.4255 6096.1 1705.1135 6096.1 1708.4255 L 6096.1 1756.4255 C 6096.1 1759.7375 6063.284 1762.4255 6022.85 1762.4255 C 5982.416 1762.4255 5949.6 1759.7375 5949.6 1756.4255" fill="#ffeabb"/>
            <path d="M 5949.6 1756.4255 L 5949.6 1708.4255 C 5949.6 1705.1135 5982.416 1702.4255 6022.85 1702.4255 C 6063.284 1702.4255 6096.1 1705.1135 6096.1 1708.4255 L 6096.1 1756.4255 C 6096.1 1759.7375 6063.284 1762.4255 6022.85 1762.4255 C 5982.416 1762.4255 5949.6 1759.7375 5949.6 1756.4255 M 5949.6 1708.4255 C 5949.6 1711.7375 5982.416 1714.4255 6022.85 1714.4255 C 6063.284 1714.4255 6096.1 1711.7375 6096.1 1708.4255" stroke="black" stroke-linecap="round" stroke-linejoin="round" stroke-width="1"/>
            <text transform="translate(5954.6 1726.2015)" fill="black">
              <tspan font-family="Helvetica Neue" font-size="16" fill="black" x="40.394" y="15">Training</tspan>
            </text>
          </g>
          <g id="Line_403">
            <line x1="6091.267" y1="1666.3697" x2="6060.481" y2="1696.0933" marker-end="url(#FilledArrow_Marker)" stroke="black" stroke-linecap="round" stroke-linejoin="round" stroke-width="1"/>
          </g>
          <g id="Line_402">
            <path d="M 6011.1256 1762.349 C 5993.648 1811.5097 5966.241 1910.2685 6e3 1974.0839 C 6021.8895 2015.4622 6064.6426 2032.9766 6103.724 2039.9312" marker-end="url(#FilledArrow_Marker)" stroke="black" stroke-linecap="round" stroke-linejoin="round" stroke-width="1"/>
          </g>
          <g id="Graphic_401">
            <rect x="6155.746" y="1720.2575" width="62.008" height="24.335999" fill="#fffbf1"/>
            <text transform="translate(6160.746 1725.2575)" fill="black">
              <tspan font-family="Helvetica Neue" font-size="12" fill="black" x="8171241e-19" y="11">Validation</tspan>
            </text>
          </g>
        </g>
        <g id="Graphic_438"/>
      </g>
    </g>
  </g>
</svg>
