<?xml version="1.0" encoding="UTF-8" standalone="no"?>
<!DOCTYPE svg PUBLIC "-//W3C//DTD SVG 1.1//EN" "http://www.w3.org/Graphics/SVG/1.1/DTD/svg11.dtd">
<svg xmlns:xl="http://www.w3.org/1999/xlink" xmlns="http://www.w3.org/2000/svg" version="1.1" xmlns:dc="http://purl.org/dc/elements/1.1/" viewBox="2537 2455 744.5 847.1253" width="744.5" height="847.1253">
  <defs>
    <marker orient="auto" overflow="visible" markerUnits="strokeWidth" id="FilledArrow_Marker" stroke-linejoin="miter" stroke-miterlimit="10" viewBox="-1 -4 10 8" markerWidth="10" markerHeight="8" color="black">
      <g>
        <path d="M 8 0 L 0 -3 L 0 3 Z" fill="currentColor" stroke="currentColor" stroke-width="1"/>
      </g>
    </marker>
    <filter id="Shadow" filterUnits="userSpaceOnUse" x="2462.55" y="2370.2875">
      <feGaussianBlur in="SourceAlpha" result="blur" stdDeviation="1.308"/>
      <feOffset in="blur" result="offset" dx="0" dy="2"/>
      <feFlood flood-color="black" flood-opacity=".5" result="flood"/>
      <feComposite in="flood" in2="offset" operator="in" result="color"/>
      <feMerge>
        <feMergeNode in="color"/>
        <feMergeNode in="SourceGraphic"/>
      </feMerge>
    </filter>
    <marker orient="auto" overflow="visible" markerUnits="strokeWidth" id="FilledArrow_Marker_2" stroke-linejoin="miter" stroke-miterlimit="10" viewBox="-1 -4 10 8" markerWidth="10" markerHeight="8" color="black">
      <g>
        <path d="M 8 0 L 0 -3 L 0 3 Z" fill="currentColor" stroke="currentColor" stroke-width="1"/>
      </g>
    </marker>
  </defs>
  <g id="Canvas_1" fill-opacity="1" stroke="none" stroke-opacity="1" fill="none" stroke-dasharray="none">
    <title>Canvas 1</title>
    <g id="Canvas_1_Layer_1">
      <title>Layer 1</title>
      <g id="Group_670">
        <g id="Graphic_669"/>
        <g id="Graphic_668">
          <path d="M 2923.5 2669.2444 L 2923.5 2621.2444 C 2923.5 2617.9324 2956.316 2615.2444 2996.75 2615.2444 C 3037.184 2615.2444 3070 2617.9324 3070 2621.2444 L 3070 2669.2444 C 3070 2672.5564 3037.184 2675.2444 2996.75 2675.2444 C 2956.316 2675.2444 2923.5 2672.5564 2923.5 2669.2444" fill="#ffeabb"/>
          <path d="M 2923.5 2669.2444 L 2923.5 2621.2444 C 2923.5 2617.9324 2956.316 2615.2444 2996.75 2615.2444 C 3037.184 2615.2444 3070 2617.9324 3070 2621.2444 L 3070 2669.2444 C 3070 2672.5564 3037.184 2675.2444 2996.75 2675.2444 C 2956.316 2675.2444 2923.5 2672.5564 2923.5 2669.2444 M 2923.5 2621.2444 C 2923.5 2624.5564 2956.316 2627.2444 2996.75 2627.2444 C 3037.184 2627.2444 3070 2624.5564 3070 2621.2444" stroke="black" stroke-linecap="round" stroke-linejoin="round" stroke-width="1"/>
          <text transform="translate(2928.5 2639.0204)" fill="black">
            <tspan font-family="Helvetica Neue" font-size="16" fill="black" x="27.802" y="15">Not Testing</tspan>
          </text>
        </g>
        <g id="Graphic_667">
          <path d="M 2627.5 2669.2444 L 2627.5 2621.2444 C 2627.5 2617.9324 2660.316 2615.2444 2700.75 2615.2444 C 2741.184 2615.2444 2774 2617.9324 2774 2621.2444 L 2774 2669.2444 C 2774 2672.5564 2741.184 2675.2444 2700.75 2675.2444 C 2660.316 2675.2444 2627.5 2672.5564 2627.5 2669.2444" fill="#7a81ff" fill-opacity=".181819"/>
          <path d="M 2627.5 2669.2444 L 2627.5 2621.2444 C 2627.5 2617.9324 2660.316 2615.2444 2700.75 2615.2444 C 2741.184 2615.2444 2774 2617.9324 2774 2621.2444 L 2774 2669.2444 C 2774 2672.5564 2741.184 2675.2444 2700.75 2675.2444 C 2660.316 2675.2444 2627.5 2672.5564 2627.5 2669.2444 M 2627.5 2621.2444 C 2627.5 2624.5564 2660.316 2627.2444 2700.75 2627.2444 C 2741.184 2627.2444 2774 2624.5564 2774 2621.2444" stroke="black" stroke-linecap="round" stroke-linejoin="round" stroke-width="1"/>
          <text transform="translate(2632.5 2639.0204)" fill="black">
            <tspan font-family="Helvetica Neue" font-size="16" fill="black" x="42.914" y="15">Testing</tspan>
          </text>
        </g>
        <g id="Graphic_666">
          <path d="M 2784.5 2549.1253 L 2784.5 2501.1253 C 2784.5 2497.8133 2817.316 2495.1253 2857.75 2495.1253 C 2898.184 2495.1253 2931 2497.8133 2931 2501.1253 L 2931 2549.1253 C 2931 2552.4373 2898.184 2555.1253 2857.75 2555.1253 C 2817.316 2555.1253 2784.5 2552.4373 2784.5 2549.1253 M 2784.5 2501.1253 C 2784.5 2504.4373 2817.316 2507.1253 2857.75 2507.1253 C 2898.184 2507.1253 2931 2504.4373 2931 2501.1253" stroke="black" stroke-linecap="round" stroke-linejoin="round" stroke-width="1"/>
          <text transform="translate(2789.5 2518.9013)" fill="black">
            <tspan font-family="Helvetica Neue" font-size="16" fill="black" x="40.546" y="15">All Data</tspan>
          </text>
        </g>
        <g id="Line_665">
          <line x1="2819.681" y1="2554.2515" x2="2746.6817" y2="2610.1025" marker-end="url(#FilledArrow_Marker)" stroke="black" stroke-linecap="round" stroke-linejoin="round" stroke-width="1"/>
        </g>
        <g id="Line_664">
          <line x1="2891.6767" y1="2554.4436" x2="2955.3327" y2="2609.453" marker-end="url(#FilledArrow_Marker)" stroke="black" stroke-linecap="round" stroke-linejoin="round" stroke-width="1"/>
        </g>
        <g id="Graphic_663">
          <rect x="2820" y="2883.8747" width="48.54948" height="20.50105" fill="#ffeabb" fill-opacity=".20827085"/>
          <rect x="2820" y="2883.8747" width="48.54948" height="20.50105" stroke="black" stroke-linecap="round" stroke-linejoin="round" stroke-width="1"/>
          <text transform="translate(2825 2888.4993)" fill="black">
            <tspan font-family="Helvetica Neue" font-size="9" fill="black" x="3.5247402" y="9">Logistic</tspan>
          </text>
        </g>
        <g id="Line_661">
          <line x1="2878.616" y1="2824.0053" x2="2853.6493" y2="2874.9838" marker-end="url(#FilledArrow_Marker)" stroke="black" stroke-linecap="round" stroke-linejoin="round" stroke-width="1"/>
        </g>
        <g id="Graphic_659" filter="url(#Shadow)">
          <path d="M 2820 2818.1253 L 2820 2770.1253 C 2820 2766.8133 2852.816 2764.1253 2893.25 2764.1253 C 2933.684 2764.1253 2966.5 2766.8133 2966.5 2770.1253 L 2966.5 2818.1253 C 2966.5 2821.4373 2933.684 2824.1253 2893.25 2824.1253 C 2852.816 2824.1253 2820 2821.4373 2820 2818.1253" fill="#fffbf1"/>
          <path d="M 2820 2818.1253 L 2820 2770.1253 C 2820 2766.8133 2852.816 2764.1253 2893.25 2764.1253 C 2933.684 2764.1253 2966.5 2766.8133 2966.5 2770.1253 L 2966.5 2818.1253 C 2966.5 2821.4373 2933.684 2824.1253 2893.25 2824.1253 C 2852.816 2824.1253 2820 2821.4373 2820 2818.1253 M 2820 2770.1253 C 2820 2773.4373 2852.816 2776.1253 2893.25 2776.1253 C 2933.684 2776.1253 2966.5 2773.4373 2966.5 2770.1253" stroke="black" stroke-linecap="round" stroke-linejoin="round" stroke-width="1"/>
          <text transform="translate(2825 2787.9013)" fill="black">
            <tspan font-family="Helvetica Neue" font-size="16" fill="black" x="40.394" y="15">Training</tspan>
          </text>
        </g>
        <g id="Line_658">
          <line x1="2976.0633" y1="2675.0015" x2="2919.5877" y2="2756.2395" marker-end="url(#FilledArrow_Marker)" stroke="black" stroke-linecap="round" stroke-linejoin="round" stroke-width="1"/>
        </g>
        <g id="Graphic_657">
          <path d="M 3032.5 2812.5253 L 3032.5 2775.7253 C 3032.5 2773.186 3054.34 2771.1253 3081.25 2771.1253 C 3108.16 2771.1253 3130 2773.186 3130 2775.7253 L 3130 2812.5253 C 3130 2815.0645 3108.16 2817.1253 3081.25 2817.1253 C 3054.34 2817.1253 3032.5 2815.0645 3032.5 2812.5253" fill="#7a81ff" fill-opacity=".08"/>
          <path d="M 3032.5 2812.5253 L 3032.5 2775.7253 C 3032.5 2773.186 3054.34 2771.1253 3081.25 2771.1253 C 3108.16 2771.1253 3130 2773.186 3130 2775.7253 L 3130 2812.5253 C 3130 2815.0645 3108.16 2817.1253 3081.25 2817.1253 C 3054.34 2817.1253 3032.5 2815.0645 3032.5 2812.5253 M 3032.5 2775.7253 C 3032.5 2778.2645 3054.34 2780.3253 3081.25 2780.3253 C 3108.16 2780.3253 3130 2778.2645 3130 2775.7253" stroke="black" stroke-linecap="round" stroke-linejoin="round" stroke-width="1"/>
          <text transform="translate(3037.5 2789.0773)" fill="black">
            <tspan font-family="Helvetica Neue" font-size="16" fill="black" x="9.078" y="15">Validation</tspan>
          </text>
        </g>
        <g id="Line_656">
          <line x1="3013.6854" y1="2675.083" x2="3063.4026" y2="2762.68" marker-end="url(#FilledArrow_Marker_2)" stroke="black" stroke-linecap="round" stroke-linejoin="round" stroke-width="1"/>
        </g>
      </g>
    </g>
  </g>
</svg>
