<?xml version="1.0" encoding="UTF-8" standalone="no"?>
<!DOCTYPE svg PUBLIC "-//W3C//DTD SVG 1.1//EN" "http://www.w3.org/Graphics/SVG/1.1/DTD/svg11.dtd">
<svg xmlns="http://www.w3.org/2000/svg" xmlns:xl="http://www.w3.org/1999/xlink" xmlns:dc="http://purl.org/dc/elements/1.1/" version="1.1" viewBox="3507.5 2514 744.5 847.1253" width="744.5" height="847.1253">
  <defs>
    <marker orient="auto" overflow="visible" markerUnits="strokeWidth" id="FilledArrow_Marker" stroke-linejoin="miter" stroke-miterlimit="10" viewBox="-1 -4 10 8" markerWidth="10" markerHeight="8" color="black">
      <g>
        <path d="M 8 0 L 0 -3 L 0 3 Z" fill="currentColor" stroke="currentColor" stroke-width="1"/>
      </g>
    </marker>
    <filter id="Shadow" filterUnits="userSpaceOnUse" x="3433.05" y="2429.2875">
      <feGaussianBlur in="SourceAlpha" result="blur" stdDeviation="1.308"/>
      <feOffset in="blur" result="offset" dx="0" dy="2"/>
      <feFlood flood-color="black" flood-opacity=".5" result="flood"/>
      <feComposite in="flood" in2="offset" operator="in" result="color"/>
      <feMerge>
        <feMergeNode in="color"/>
        <feMergeNode in="SourceGraphic"/>
      </feMerge>
    </filter>
  </defs>
  <g id="Canvas_1" fill-opacity="1" stroke="none" stroke-dasharray="none" stroke-opacity="1" fill="none">
    <title>Canvas 1</title>
    <g id="Canvas_1_Layer_1">
      <title>Layer 1</title>
      <g id="Group_743">
        <g id="Graphic_742"/>
        <g id="Graphic_740">
          <path d="M 3894 2728.2444 L 3894 2680.2444 C 3894 2676.9324 3926.816 2674.2444 3967.25 2674.2444 C 4007.684 2674.2444 4040.5 2676.9324 4040.5 2680.2444 L 4040.5 2728.2444 C 4040.5 2731.5564 4007.684 2734.2444 3967.25 2734.2444 C 3926.816 2734.2444 3894 2731.5564 3894 2728.2444" fill="#ffeabb"/>
          <path d="M 3894 2728.2444 L 3894 2680.2444 C 3894 2676.9324 3926.816 2674.2444 3967.25 2674.2444 C 4007.684 2674.2444 4040.5 2676.9324 4040.5 2680.2444 L 4040.5 2728.2444 C 4040.5 2731.5564 4007.684 2734.2444 3967.25 2734.2444 C 3926.816 2734.2444 3894 2731.5564 3894 2728.2444 M 3894 2680.2444 C 3894 2683.5564 3926.816 2686.2444 3967.25 2686.2444 C 4007.684 2686.2444 4040.5 2683.5564 4040.5 2680.2444" stroke="black" stroke-linecap="round" stroke-linejoin="round" stroke-width="1"/>
          <text transform="translate(3899 2698.0204)" fill="black">
            <tspan font-family="Helvetica Neue" font-size="16" fill="black" x="27.802" y="15">Not Testing</tspan>
          </text>
        </g>
        <g id="Graphic_739">
          <path d="M 3598 2728.2444 L 3598 2680.2444 C 3598 2676.9324 3630.816 2674.2444 3671.25 2674.2444 C 3711.684 2674.2444 3744.5 2676.9324 3744.5 2680.2444 L 3744.5 2728.2444 C 3744.5 2731.5564 3711.684 2734.2444 3671.25 2734.2444 C 3630.816 2734.2444 3598 2731.5564 3598 2728.2444" fill="#7a81ff" fill-opacity=".181819"/>
          <path d="M 3598 2728.2444 L 3598 2680.2444 C 3598 2676.9324 3630.816 2674.2444 3671.25 2674.2444 C 3711.684 2674.2444 3744.5 2676.9324 3744.5 2680.2444 L 3744.5 2728.2444 C 3744.5 2731.5564 3711.684 2734.2444 3671.25 2734.2444 C 3630.816 2734.2444 3598 2731.5564 3598 2728.2444 M 3598 2680.2444 C 3598 2683.5564 3630.816 2686.2444 3671.25 2686.2444 C 3711.684 2686.2444 3744.5 2683.5564 3744.5 2680.2444" stroke="black" stroke-linecap="round" stroke-linejoin="round" stroke-width="1"/>
          <text transform="translate(3603 2698.0204)" fill="black">
            <tspan font-family="Helvetica Neue" font-size="16" fill="black" x="42.914" y="15">Testing</tspan>
          </text>
        </g>
        <g id="Graphic_738">
          <path d="M 3755 2608.1253 L 3755 2560.1253 C 3755 2556.8133 3787.816 2554.1253 3828.25 2554.1253 C 3868.684 2554.1253 3901.5 2556.8133 3901.5 2560.1253 L 3901.5 2608.1253 C 3901.5 2611.4373 3868.684 2614.1253 3828.25 2614.1253 C 3787.816 2614.1253 3755 2611.4373 3755 2608.1253 M 3755 2560.1253 C 3755 2563.4373 3787.816 2566.1253 3828.25 2566.1253 C 3868.684 2566.1253 3901.5 2563.4373 3901.5 2560.1253" stroke="black" stroke-linecap="round" stroke-linejoin="round" stroke-width="1"/>
          <text transform="translate(3760 2577.9013)" fill="black">
            <tspan font-family="Helvetica Neue" font-size="16" fill="black" x="40.546" y="15">All Data</tspan>
          </text>
        </g>
        <g id="Line_737">
          <line x1="3790.181" y1="2613.2515" x2="3717.1817" y2="2669.1025" marker-end="url(#FilledArrow_Marker)" stroke="black" stroke-linecap="round" stroke-linejoin="round" stroke-width="1"/>
        </g>
        <g id="Line_736">
          <line x1="3862.1767" y1="2613.4436" x2="3925.8327" y2="2668.453" marker-end="url(#FilledArrow_Marker)" stroke="black" stroke-linecap="round" stroke-linejoin="round" stroke-width="1"/>
        </g>
        <g id="Graphic_735" filter="url(#Shadow)">
          <path d="M 3790.5 2877.1253 L 3790.5 2829.1253 C 3790.5 2825.8133 3823.316 2823.1253 3863.75 2823.1253 C 3904.184 2823.1253 3937 2825.8133 3937 2829.1253 L 3937 2877.1253 C 3937 2880.4373 3904.184 2883.1253 3863.75 2883.1253 C 3823.316 2883.1253 3790.5 2880.4373 3790.5 2877.1253" fill="#fffbf1"/>
          <path d="M 3790.5 2877.1253 L 3790.5 2829.1253 C 3790.5 2825.8133 3823.316 2823.1253 3863.75 2823.1253 C 3904.184 2823.1253 3937 2825.8133 3937 2829.1253 L 3937 2877.1253 C 3937 2880.4373 3904.184 2883.1253 3863.75 2883.1253 C 3823.316 2883.1253 3790.5 2880.4373 3790.5 2877.1253 M 3790.5 2829.1253 C 3790.5 2832.4373 3823.316 2835.1253 3863.75 2835.1253 C 3904.184 2835.1253 3937 2832.4373 3937 2829.1253" stroke="black" stroke-linecap="round" stroke-linejoin="round" stroke-width="1"/>
          <text transform="translate(3795.5 2846.9013)" fill="black">
            <tspan font-family="Helvetica Neue" font-size="16" fill="black" x="40.394" y="15">Training</tspan>
          </text>
        </g>
        <g id="Line_734">
          <line x1="3946.5633" y1="2734.0015" x2="3890.0877" y2="2815.2395" marker-end="url(#FilledArrow_Marker)" stroke="black" stroke-linecap="round" stroke-linejoin="round" stroke-width="1"/>
        </g>
        <g id="Graphic_733">
          <path d="M 4003 2871.5253 L 4003 2834.7253 C 4003 2832.186 4024.84 2830.1253 4051.75 2830.1253 C 4078.66 2830.1253 4100.5 2832.186 4100.5 2834.7253 L 4100.5 2871.5253 C 4100.5 2874.0645 4078.66 2876.1253 4051.75 2876.1253 C 4024.84 2876.1253 4003 2874.0645 4003 2871.5253" fill="#7a81ff" fill-opacity=".08"/>
          <path d="M 4003 2871.5253 L 4003 2834.7253 C 4003 2832.186 4024.84 2830.1253 4051.75 2830.1253 C 4078.66 2830.1253 4100.5 2832.186 4100.5 2834.7253 L 4100.5 2871.5253 C 4100.5 2874.0645 4078.66 2876.1253 4051.75 2876.1253 C 4024.84 2876.1253 4003 2874.0645 4003 2871.5253 M 4003 2834.7253 C 4003 2837.2645 4024.84 2839.3253 4051.75 2839.3253 C 4078.66 2839.3253 4100.5 2837.2645 4100.5 2834.7253" stroke="black" stroke-linecap="round" stroke-linejoin="round" stroke-width="1"/>
          <text transform="translate(4008 2848.0773)" fill="black">
            <tspan font-family="Helvetica Neue" font-size="16" fill="black" x="9.078" y="15">Validation</tspan>
          </text>
        </g>
        <g id="Line_732">
          <line x1="3984.1854" y1="2734.083" x2="4033.9026" y2="2821.68" marker-end="url(#FilledArrow_Marker)" stroke="black" stroke-linecap="round" stroke-linejoin="round" stroke-width="1"/>
        </g>
        <g id="Graphic_729">
          <ellipse cx="3800.25" cy="2946.5978" rx="42.2500675113548" ry="19.2857451023941" fill="#fffbf1"/>
          <ellipse cx="3800.25" cy="2946.5978" rx="42.2500675113548" ry="19.2857451023941" stroke="black" stroke-linecap="round" stroke-linejoin="round" stroke-width="1"/>
          <text transform="translate(3771.45 2938.0978)" fill="black">
            <tspan font-family="Helvetica Neue" font-size="14" fill="black" x="4.299999" y="13">Logistic</tspan>
          </text>
        </g>
        <g id="Line_728">
          <line x1="3843.527" y1="2882.8934" x2="3818.3295" y2="2919.9846" marker-end="url(#FilledArrow_Marker)" stroke="black" stroke-linecap="round" stroke-linejoin="round" stroke-width="1"/>
        </g>
        <g id="Graphic_727">
          <ellipse cx="3931.25" cy="2946.1635" rx="42.2500675113553" ry="18.8514574734569" fill="#fffbf1"/>
          <ellipse cx="3931.25" cy="2946.1635" rx="42.2500675113553" ry="18.8514574734569" stroke="black" stroke-linecap="round" stroke-linejoin="round" stroke-width="1"/>
          <text transform="translate(3902.45 2937.9675)" fill="black">
            <tspan font-family="Helvetica Neue" font-size="14" fill="black" x="2.6129992" y="13">Xgboost</tspan>
          </text>
        </g>
        <g id="Line_726">
          <line x1="3879.1667" y1="2886.5" x2="3909.4014" y2="2921.135" marker-end="url(#FilledArrow_Marker)" stroke="black" stroke-linecap="round" stroke-linejoin="round" stroke-width="1"/>
        </g>
      </g>
    </g>
  </g>
</svg>
