<?xml version="1.0" encoding="UTF-8" standalone="no"?>
<!DOCTYPE svg PUBLIC "-//W3C//DTD SVG 1.1//EN" "http://www.w3.org/Graphics/SVG/1.1/DTD/svg11.dtd">
<svg xmlns="http://www.w3.org/2000/svg" xmlns:xl="http://www.w3.org/1999/xlink" xmlns:dc="http://purl.org/dc/elements/1.1/" version="1.1" viewBox="6505 2491 744.5 847.1253" width="744.5" height="847.1253">
  <defs>
    <marker orient="auto" overflow="visible" markerUnits="strokeWidth" id="FilledArrow_Marker" stroke-linejoin="miter" stroke-miterlimit="10" viewBox="-1 -4 10 8" markerWidth="10" markerHeight="8" color="black">
      <g>
        <path d="M 8 0 L 0 -3 L 0 3 Z" fill="currentColor" stroke="currentColor" stroke-width="1"/>
      </g>
    </marker>
    <filter id="Shadow" filterUnits="userSpaceOnUse" x="6430.55" y="2406.2875">
      <feGaussianBlur in="SourceAlpha" result="blur" stdDeviation="1.308"/>
      <feOffset in="blur" result="offset" dx="0" dy="2"/>
      <feFlood flood-color="black" flood-opacity=".5" result="flood"/>
      <feComposite in="flood" in2="offset" operator="in" result="color"/>
      <feMerge>
        <feMergeNode in="color"/>
        <feMergeNode in="SourceGraphic"/>
      </feMerge>
    </filter>
  </defs>
  <g id="Canvas_1" fill-opacity="1" stroke="none" stroke-dasharray="none" stroke-opacity="1" fill="none">
    <title>Canvas 1</title>
    <g id="Canvas_1_Layer_1">
      <title>Layer 1</title>
      <g id="Group_695">
        <g id="Graphic_585"/>
        <g id="Graphic_584">
          <path d="M 6917 3075.2505 L 7059.5 3075.2505 C 7060.6046 3075.2505 7061.5 3076.146 7061.5 3077.2505 L 7061.5 3133.2505 C 7061.5 3134.355 7060.6046 3135.2505 7059.5 3135.2505 L 6917 3135.2505 C 6915.8954 3135.2505 6915 3134.355 6915 3133.2505 L 6915 3077.2505 C 6915 3076.146 6915.8954 3075.2505 6917 3075.2505 Z" fill="#ffeabb"/>
          <path d="M 6917 3075.2505 L 7059.5 3075.2505 C 7060.6046 3075.2505 7061.5 3076.146 7061.5 3077.2505 L 7061.5 3133.2505 C 7061.5 3134.355 7060.6046 3135.2505 7059.5 3135.2505 L 6917 3135.2505 C 6915.8954 3135.2505 6915 3134.355 6915 3133.2505 L 6915 3077.2505 C 6915 3076.146 6915.8954 3075.2505 6917 3075.2505 Z" stroke="black" stroke-linecap="round" stroke-linejoin="round" stroke-width="1"/>
          <text transform="translate(6920 3096.0265)" fill="black">
            <tspan font-family="Helvetica Neue" font-size="16" fill="black" x="18.018" y="15">Final model fit</tspan>
          </text>
        </g>
        <g id="Graphic_583">
          <path d="M 6917 2957.3758 L 7059.5 2957.3758 C 7060.6046 2957.3758 7061.5 2958.2712 7061.5 2959.3758 L 7061.5 3015.3758 C 7061.5 3016.4804 7060.6046 3017.3758 7059.5 3017.3758 L 6917 3017.3758 C 6915.8954 3017.3758 6915 3016.4804 6915 3015.3758 L 6915 2959.3758 C 6915 2958.2712 6915.8954 2957.3758 6917 2957.3758 Z" fill="#7a81ff" fill-opacity=".08"/>
          <path d="M 6917 2957.3758 L 7059.5 2957.3758 C 7060.6046 2957.3758 7061.5 2958.2712 7061.5 2959.3758 L 7061.5 3015.3758 C 7061.5 3016.4804 7060.6046 3017.3758 7059.5 3017.3758 L 6917 3017.3758 C 6915.8954 3017.3758 6915 3016.4804 6915 3015.3758 L 6915 2959.3758 C 6915 2958.2712 6915.8954 2957.3758 6917 2957.3758 Z" stroke="black" stroke-linecap="round" stroke-linejoin="round" stroke-width="1"/>
          <text transform="translate(6920 2978.1518)" fill="black">
            <tspan font-family="Helvetica Neue" font-size="16" fill="black" x="14.762" y="15">Select a Model</tspan>
          </text>
        </g>
        <g id="Graphic_582">
          <path d="M 6917 3193.1253 L 7059.5 3193.1253 C 7060.6046 3193.1253 7061.5 3194.0207 7061.5 3195.1253 L 7061.5 3251.1253 C 7061.5 3252.23 7060.6046 3253.1253 7059.5 3253.1253 L 6917 3253.1253 C 6915.8954 3253.1253 6915 3252.23 6915 3251.1253 L 6915 3195.1253 C 6915 3194.0207 6915.8954 3193.1253 6917 3193.1253 Z" fill="#7a81ff" fill-opacity=".181819"/>
          <path d="M 6917 3193.1253 L 7059.5 3193.1253 C 7060.6046 3193.1253 7061.5 3194.0207 7061.5 3195.1253 L 7061.5 3251.1253 C 7061.5 3252.23 7060.6046 3253.1253 7059.5 3253.1253 L 6917 3253.1253 C 6915.8954 3253.1253 6915 3252.23 6915 3251.1253 L 6915 3195.1253 C 6915 3194.0207 6915.8954 3193.1253 6917 3193.1253 Z" stroke="black" stroke-linecap="round" stroke-linejoin="round" stroke-width="1"/>
          <text transform="translate(6920 3204.6773)" fill="black">
            <tspan font-family="Helvetica Neue" font-size="16" fill="black" x="24.242" y="15">Verify model </tspan>
            <tspan font-family="Helvetica Neue" font-size="16" fill="black" x="22.762" y="33.448">performance</tspan>
          </text>
        </g>
        <g id="Line_581">
          <line x1="6988.25" y1="3017.3758" x2="6988.25" y2="3065.3505" marker-end="url(#FilledArrow_Marker)" stroke="black" stroke-linecap="round" stroke-linejoin="round" stroke-width="1"/>
        </g>
        <g id="Line_580">
          <line x1="6988.25" y1="3135.2505" x2="6988.25" y2="3183.2253" marker-end="url(#FilledArrow_Marker)" stroke="black" stroke-linecap="round" stroke-linejoin="round" stroke-width="1"/>
        </g>
        <g id="Graphic_578">
          <path d="M 6618.5 2703.2444 L 6618.5 2655.2444 C 6618.5 2651.9324 6651.316 2649.2444 6691.75 2649.2444 C 6732.184 2649.2444 6765 2651.9324 6765 2655.2444 L 6765 2703.2444 C 6765 2706.5564 6732.184 2709.2444 6691.75 2709.2444 C 6651.316 2709.2444 6618.5 2706.5564 6618.5 2703.2444" fill="#7a81ff" fill-opacity=".181819"/>
          <path d="M 6618.5 2703.2444 L 6618.5 2655.2444 C 6618.5 2651.9324 6651.316 2649.2444 6691.75 2649.2444 C 6732.184 2649.2444 6765 2651.9324 6765 2655.2444 L 6765 2703.2444 C 6765 2706.5564 6732.184 2709.2444 6691.75 2709.2444 C 6651.316 2709.2444 6618.5 2706.5564 6618.5 2703.2444 M 6618.5 2655.2444 C 6618.5 2658.5564 6651.316 2661.2444 6691.75 2661.2444 C 6732.184 2661.2444 6765 2658.5564 6765 2655.2444" stroke="black" stroke-linecap="round" stroke-linejoin="round" stroke-width="1"/>
          <text transform="translate(6623.5 2673.0204)" fill="black">
            <tspan font-family="Helvetica Neue" font-size="16" fill="black" x="42.914" y="15">Testing</tspan>
          </text>
        </g>
        <g id="Line_577">
          <path d="M 6679.368 2709.159 C 6654.031 2775.6832 6603.932 2939.469 6669.3696 3059.504 C 6720.916 3154.0578 6829.279 3194.18 6905.317 3211.0687" marker-end="url(#FilledArrow_Marker)" stroke="black" stroke-linecap="round" stroke-linejoin="round" stroke-width="1"/>
        </g>
        <g id="Graphic_576">
          <path d="M 6775.5 2583.1253 L 6775.5 2535.1253 C 6775.5 2531.8133 6808.316 2529.1253 6848.75 2529.1253 C 6889.184 2529.1253 6922 2531.8133 6922 2535.1253 L 6922 2583.1253 C 6922 2586.4373 6889.184 2589.1253 6848.75 2589.1253 C 6808.316 2589.1253 6775.5 2586.4373 6775.5 2583.1253 M 6775.5 2535.1253 C 6775.5 2538.4373 6808.316 2541.1253 6848.75 2541.1253 C 6889.184 2541.1253 6922 2538.4373 6922 2535.1253" stroke="black" stroke-linecap="round" stroke-linejoin="round" stroke-width="1"/>
          <text transform="translate(6780.5 2552.9013)" fill="black">
            <tspan font-family="Helvetica Neue" font-size="16" fill="black" x="40.546" y="15">All Data</tspan>
          </text>
        </g>
        <g id="Line_575">
          <line x1="6810.681" y1="2588.2515" x2="6737.682" y2="2644.1025" marker-end="url(#FilledArrow_Marker)" stroke="black" stroke-linecap="round" stroke-linejoin="round" stroke-width="1"/>
        </g>
        <g id="Graphic_573">
          <ellipse cx="6922.75" cy="2889.999" rx="42.2500675113548" ry="19.285745102394" fill="#f6f5ff"/>
          <ellipse cx="6922.75" cy="2889.999" rx="42.2500675113548" ry="19.285745102394" stroke="black" stroke-linecap="round" stroke-linejoin="round" stroke-width="1"/>
          <text transform="translate(6893.95 2881.499)" fill="black">
            <tspan font-family="Helvetica Neue" font-size="14" fill="black" x="4.299999" y="13">Logistic</tspan>
          </text>
        </g>
        <g id="Line_571">
          <line x1="6972.787" y1="2808.041" x2="6939.253" y2="2862.9682" marker-end="url(#FilledArrow_Marker)" stroke="black" stroke-linecap="round" stroke-linejoin="round" stroke-width="1"/>
        </g>
        <g id="Line_569">
          <line x1="6935.1535" y1="2908.439" x2="6962.545" y2="2949.1612" marker-end="url(#FilledArrow_Marker)" stroke="black" stroke-linecap="round" stroke-linejoin="round" stroke-width="1"/>
        </g>
        <g id="Graphic_567" filter="url(#Shadow)">
          <path d="M 6908.9505 2703.2444 L 6908.9505 2655.2444 C 6908.9505 2651.9324 6941.7665 2649.2444 6982.2005 2649.2444 C 7022.6345 2649.2444 7055.4505 2651.9324 7055.4505 2655.2444 L 7055.4505 2703.2444 C 7055.4505 2706.5564 7022.6345 2709.2444 6982.2005 2709.2444 C 6941.7665 2709.2444 6908.9505 2706.5564 6908.9505 2703.2444" fill="#ffeabb"/>
          <path d="M 6908.9505 2703.2444 L 6908.9505 2655.2444 C 6908.9505 2651.9324 6941.7665 2649.2444 6982.2005 2649.2444 C 7022.6345 2649.2444 7055.4505 2651.9324 7055.4505 2655.2444 L 7055.4505 2703.2444 C 7055.4505 2706.5564 7022.6345 2709.2444 6982.2005 2709.2444 C 6941.7665 2709.2444 6908.9505 2706.5564 6908.9505 2703.2444 M 6908.9505 2655.2444 C 6908.9505 2658.5564 6941.7665 2661.2444 6982.2005 2661.2444 C 7022.6345 2661.2444 7055.4505 2658.5564 7055.4505 2655.2444" stroke="black" stroke-linecap="round" stroke-linejoin="round" stroke-width="1"/>
          <text transform="translate(6913.9505 2673.0204)" fill="black">
            <tspan font-family="Helvetica Neue" font-size="16" fill="black" x="40.394" y="15">Training</tspan>
          </text>
        </g>
        <g id="Line_586">
          <line x1="6881.382" y1="2588.4978" x2="6942.21" y2="2643.2487" marker-end="url(#FilledArrow_Marker)" stroke="black" stroke-linecap="round" stroke-linejoin="round" stroke-width="1"/>
        </g>
        <g id="Line_588">
          <line x1="6982.0905" y1="2709.2444" x2="6981.931" y2="2752.7223" marker-end="url(#FilledArrow_Marker)" stroke="black" stroke-linecap="round" stroke-linejoin="round" stroke-width="1"/>
        </g>
        <g id="Line_589">
          <path d="M 7017.447 2708.5046 C 7073.38 2757.5555 7176.332 2859.6427 7177.579 2947.4933 C 7178.5146 3013.3506 7122.054 3054.3085 7070.558 3077.9313" marker-end="url(#FilledArrow_Marker)" stroke="black" stroke-linecap="round" stroke-linejoin="round" stroke-width="1"/>
        </g>
        <g id="Group_606">
          <g id="Graphic_603">
            <path d="M 6914.118 2816.6222 L 6914.118 2768.6222 C 6914.118 2765.3102 6944.433 2762.6222 6981.785 2762.6222 C 7019.137 2762.6222 7049.4515 2765.3102 7049.4515 2768.6222 L 7049.4515 2816.6222 C 7049.4515 2819.9342 7019.137 2822.6222 6981.785 2822.6222 C 6944.433 2822.6222 6914.118 2819.9342 6914.118 2816.6222" fill="#f6f5ff"/>
            <path d="M 6914.118 2816.6222 L 6914.118 2768.6222 C 6914.118 2765.3102 6944.433 2762.6222 6981.785 2762.6222 C 7019.137 2762.6222 7049.4515 2765.3102 7049.4515 2768.6222 L 7049.4515 2816.6222 C 7049.4515 2819.9342 7019.137 2822.6222 6981.785 2822.6222 C 6944.433 2822.6222 6914.118 2819.9342 6914.118 2816.6222 M 6914.118 2768.6222 C 6914.118 2771.9342 6944.433 2774.6222 6981.785 2774.6222 C 7019.137 2774.6222 7049.4515 2771.9342 7049.4515 2768.6222" stroke="black" stroke-linecap="round" stroke-linejoin="round" stroke-width="1"/>
          </g>
          <g id="Line_602">
            <path d="M 6914.026 2778.9803 C 6914.026 2778.9803 6940.3496 2783.4773 6978.69 2783.4305 C 7017.031 2783.3838 7049.359 2778.815 7049.359 2778.815" stroke="black" stroke-linecap="round" stroke-linejoin="round" stroke-width="1"/>
          </g>
          <g id="Line_601">
            <path d="M 6915.042 2788.2893 C 6915.042 2788.2893 6941.366 2792.7863 6979.706 2792.7395 C 7018.047 2792.6928 7050.375 2788.124 7050.375 2788.124" stroke="black" stroke-linecap="round" stroke-linejoin="round" stroke-width="1"/>
          </g>
          <g id="Line_600">
            <path d="M 6914.026 2797.5983 C 6914.026 2797.5983 6940.3496 2802.0953 6978.69 2802.0485 C 7017.031 2802.0017 7049.359 2797.433 7049.359 2797.433" stroke="black" stroke-linecap="round" stroke-linejoin="round" stroke-width="1"/>
          </g>
          <g id="Line_599">
            <path d="M 6915.042 2806.9073 C 6915.042 2806.9073 6941.366 2811.4043 6979.706 2811.3575 C 7018.047 2811.3107 7050.375 2806.742 7050.375 2806.742" stroke="black" stroke-linecap="round" stroke-linejoin="round" stroke-width="1"/>
          </g>
          <g id="Graphic_594">
            <rect x="6935.289" y="2777.2034" width="93.82355" height="30.83759" fill="#f6f5ff"/>
            <text transform="translate(6952.4165 2785.4542)" fill="black">
              <tspan font-family="Helvetica Neue" font-size="12" fill="black" x="0" y="11">Resamples</tspan>
            </text>
          </g>
        </g>
        <g id="Graphic_685">
          <ellipse cx="7053.75" cy="2889.5647" rx="42.2500675113548" ry="18.8514574734569" fill="#f6f5ff"/>
          <ellipse cx="7053.75" cy="2889.5647" rx="42.2500675113548" ry="18.8514574734569" stroke="black" stroke-linecap="round" stroke-linejoin="round" stroke-width="1"/>
          <text transform="translate(7024.95 2881.3687)" fill="black">
            <tspan font-family="Helvetica Neue" font-size="14" fill="black" x="2.6129992" y="13">Xgboost</tspan>
          </text>
        </g>
        <g id="Line_686">
          <line x1="7001.667" y1="2822.6222" x2="7033.812" y2="2863.938" marker-end="url(#FilledArrow_Marker)" stroke="black" stroke-linecap="round" stroke-linejoin="round" stroke-width="1"/>
        </g>
        <g id="Line_687">
          <line x1="7041.652" y1="2907.6306" x2="7013.848" y2="2949.15" marker-end="url(#FilledArrow_Marker)" stroke="black" stroke-linecap="round" stroke-linejoin="round" stroke-width="1"/>
        </g>
      </g>
    </g>
  </g>
</svg>
