<svg xmlns="http://www.w3.org/2000/svg" viewBox="-41 -41 492 492" xml:space="preserve" width="800" height="800">
  <g stroke-width="0"/>
  <g stroke-linecap="round" stroke-linejoin="round" stroke="#CCC" stroke-width="3.28"/>
  <path style="fill:#ffda44" d="M75 232.5c13.326 0 25.294 5.797 33.534 15.002H170V117.5H70l-30 70H0v30h30v30H0v.002h41.466C49.706 238.297 61.674 232.5 75 232.5zm14.782-85H155v40H72.639l17.143-40z"/>
  <path style="fill:#ff9811" d="M170 247.5h30v.002h-30zm150-60-50-70H170v100h30v30h30v-30h30v30h-30v.002h71.466c8.24-9.205 20.208-15.002 33.534-15.002s25.294 5.797 33.534 15.002H410v-.002h-20l-10-30h30v-10l-90-20zm-135 0v-40h69.561l28.571 40H185z"/>
  <path style="fill:#acabb1" d="M0 247.502V277.5h30c0-11.527 4.339-22.037 11.466-29.998H0zm170 0h-61.466C115.661 255.463 120 265.973 120 277.5h80v-29.998h-30zm60 0V277.5h60c0-11.527 4.339-22.037 11.466-29.998H230zM380 277.5h30v-29.998h-41.466C375.661 255.463 380 265.973 380 277.5z"/>
  <path style="fill:#616064" d="M52.5 277.5c0-12.427 10.073-22.5 22.5-22.5v-22.5c-13.326 0-25.294 5.797-33.534 15.002C34.339 255.463 30 265.973 30 277.5c0 24.853 20.147 45 45 45V300c-12.427 0-22.5-10.073-22.5-22.5z">
    <animateTransform attributeName="transform" attributeType="XML" type="rotate" from="0 75,277.5" to="360 75,277.5" dur="2s" repeatCount="indefinite"/>
  </path>
  <path style="fill:#565659" d="M75 232.5V255c12.427 0 22.5 10.073 22.5 22.5S87.427 300 75 300v22.5c24.852 0 45-20.147 45-45 0-11.527-4.339-22.037-11.466-29.998C100.294 238.297 88.326 232.5 75 232.5z">
    <animateTransform attributeName="transform" attributeType="XML" type="rotate" from="0 75,277.5" to="360 75,277.5" dur="2s" repeatCount="indefinite"/>
  </path>
  <path style="fill:#cdcdd0" d="M52.5 277.5c0 12.427 10.073 22.5 22.5 22.5v-45c-12.427 0-22.5 10.073-22.5 22.5z">
    <animateTransform attributeName="transform" attributeType="XML" type="rotate" from="0 75,277.5" to="360 75,277.5" dur="2s" repeatCount="indefinite"/>
  </path>
  <path style="fill:#acabb1" d="M75 300c12.427 0 22.5-10.073 22.5-22.5S87.427 255 75 255v45z">
    <animateTransform attributeName="transform" attributeType="XML" type="rotate" from="0 75,277.5" to="360 75,277.5" dur="2s" repeatCount="indefinite"/>
  </path>
  <path style="fill:#616064" d="M312.5 277.5c0-12.427 10.073-22.5 22.5-22.5v-22.5c-13.326 0-25.294 5.797-33.534 15.002C294.339 255.463 290 265.973 290 277.5c0 24.853 20.147 45 45 45V300c-12.427 0-22.5-10.073-22.5-22.5z">
    <animateTransform attributeName="transform" attributeType="XML" type="rotate" from="0 335,277.5" to="360 335,277.5" dur="2s" repeatCount="indefinite"/>
  </path>
  <path style="fill:#565659" d="M335 232.5V255c12.427 0 22.5 10.073 22.5 22.5S347.427 300 335 300v22.5c24.852 0 45-20.147 45-45 0-11.527-4.339-22.037-11.466-29.998-8.24-9.205-20.208-15.002-33.534-15.002z">
    <animateTransform attributeName="transform" attributeType="XML" type="rotate" from="0 335,277.5" to="360 335,277.5" dur="2s" repeatCount="indefinite"/>
  </path>
  <path style="fill:#cdcdd0" d="M312.5 277.5c0 12.427 10.073 22.5 22.5 22.5v-45c-12.427 0-22.5 10.073-22.5 22.5z">
    <animateTransform attributeName="transform" attributeType="XML" type="rotate" from="0 335,277.5" to="360 335,277.5" dur="2s" repeatCount="indefinite"/>
  </path>
  <path style="fill:#acabb1" d="M335 300c12.427 0 22.5-10.073 22.5-22.5S347.427 255 335 255v45z">
    <animateTransform attributeName="transform" attributeType="XML" type="rotate" from="0 335,277.5" to="360 335,277.5" dur="2s" repeatCount="indefinite"/>
  </path>
  <path style="fill:#fff" d="M155 147.5H89.782l-17.143 40H155zm30 0v40h98.133l-28.572-40z"/>
  <path style="fill:#ff5023" d="M0 217.5h30v30H0zm390 30h20v-30h-30z"/>
  <path style="fill:#565659" d="M210 117.5v-30h-80v30h40zm-40 100h30v30h-30zm60 30h-30v30h30v-29.998zm0-30h30v30h-30z"/>
</svg>
