<?xml version="1.0" encoding="UTF-8" standalone="no"?>
<!DOCTYPE svg PUBLIC "-//W3C//DTD SVG 1.1//EN" "http://www.w3.org/Graphics/SVG/1.1/DTD/svg11.dtd">
<svg xmlns="http://www.w3.org/2000/svg" xmlns:xl="http://www.w3.org/1999/xlink" xmlns:dc="http://purl.org/dc/elements/1.1/" version="1.1" viewBox="3780 1462 712.5 803" width="712.5" height="803">
  <defs>
    <filter id="Shadow" filterUnits="userSpaceOnUse" x="3708.75" y="1381.7">
      <feGaussianBlur in="SourceAlpha" result="blur" stdDeviation="1.308"/>
      <feOffset in="blur" result="offset" dx="0" dy="2"/>
      <feFlood flood-color="black" flood-opacity=".5" result="flood"/>
      <feComposite in="flood" in2="offset" operator="in" result="color"/>
      <feMerge>
        <feMergeNode in="color"/>
        <feMergeNode in="SourceGraphic"/>
      </feMerge>
    </filter>
    <marker orient="auto" overflow="visible" markerUnits="strokeWidth" id="FilledArrow_Marker" stroke-linejoin="miter" stroke-miterlimit="10" viewBox="-1 -4 10 8" markerWidth="10" markerHeight="8" color="black">
      <g>
        <path d="M 8 0 L 0 -3 L 0 3 Z" fill="currentColor" stroke="currentColor" stroke-width="1"/>
      </g>
    </marker>
  </defs>
  <g id="Canvas_1" stroke="none" stroke-opacity="1" fill="none" stroke-dasharray="none" fill-opacity="1">
    <title>Canvas 1</title>
    <g id="Canvas_1_Layer_1">
      <title>Layer 1</title>
      <g id="Group_476">
        <g id="Graphic_499"/>
        <g id="Graphic_497">
          <path d="M 4193.4 1670.1191 L 4193.4 1622.1191 C 4193.4 1618.8071 4226.216 1616.1191 4266.65 1616.1191 C 4307.084 1616.1191 4339.9 1618.8071 4339.9 1622.1191 L 4339.9 1670.1191 C 4339.9 1673.4311 4307.084 1676.1191 4266.65 1676.1191 C 4226.216 1676.1191 4193.4 1673.4311 4193.4 1670.1191 M 4193.4 1622.1191 C 4193.4 1625.4311 4226.216 1628.1191 4266.65 1628.1191 C 4307.084 1628.1191 4339.9 1625.4311 4339.9 1622.1191" stroke="black" stroke-linecap="round" stroke-linejoin="round" stroke-width="1"/>
          <text transform="translate(4198.4 1639.8951)" fill="black">
            <tspan font-family="Helvetica Neue" font-size="16" fill="black" x="27.802" y="15">Not Testing</tspan>
          </text>
        </g>
        <g id="Graphic_496" filter="url(#Shadow)">
          <path d="M 3806 1670.1191 L 3806 1622.1191 C 3806 1618.8071 3838.816 1616.1191 3879.25 1616.1191 C 3919.684 1616.1191 3952.5 1618.8071 3952.5 1622.1191 L 3952.5 1670.1191 C 3952.5 1673.4311 3919.684 1676.1191 3879.25 1676.1191 C 3838.816 1676.1191 3806 1673.4311 3806 1670.1191" fill="#e5e6ff"/>
          <path d="M 3806 1670.1191 L 3806 1622.1191 C 3806 1618.8071 3838.816 1616.1191 3879.25 1616.1191 C 3919.684 1616.1191 3952.5 1618.8071 3952.5 1622.1191 L 3952.5 1670.1191 C 3952.5 1673.4311 3919.684 1676.1191 3879.25 1676.1191 C 3838.816 1676.1191 3806 1673.4311 3806 1670.1191 M 3806 1622.1191 C 3806 1625.4311 3838.816 1628.1191 3879.25 1628.1191 C 3919.684 1628.1191 3952.5 1625.4311 3952.5 1622.1191" stroke="black" stroke-linecap="round" stroke-linejoin="round" stroke-width="1"/>
          <text transform="translate(3811 1639.8951)" fill="black">
            <tspan font-family="Helvetica Neue" font-size="16" fill="black" x="42.914" y="15">Testing</tspan>
          </text>
        </g>
        <g id="Group_490">
          <g id="Graphic_495">
            <path d="M 4291.1685 1761.115 L 4291.1685 1723.235 C 4291.1685 1720.6213 4313.646 1718.5 4341.342 1718.5 C 4369.0374 1718.5 4391.515 1720.6213 4391.515 1723.235 L 4391.515 1761.115 C 4391.515 1763.7287 4369.0374 1765.85 4341.342 1765.85 C 4313.646 1765.85 4291.1685 1763.7287 4291.1685 1761.115" fill="#fffbf1"/>
            <path d="M 4291.1685 1761.115 L 4291.1685 1723.235 C 4291.1685 1720.6213 4313.646 1718.5 4341.342 1718.5 C 4369.0374 1718.5 4391.515 1720.6213 4391.515 1723.235 L 4391.515 1761.115 C 4391.515 1763.7287 4369.0374 1765.85 4341.342 1765.85 C 4313.646 1765.85 4291.1685 1763.7287 4291.1685 1761.115 M 4291.1685 1723.235 C 4291.1685 1725.8487 4313.646 1727.97 4341.342 1727.97 C 4369.0374 1727.97 4391.515 1725.8487 4391.515 1723.235" stroke="black" stroke-linecap="round" stroke-linejoin="round" stroke-width="1"/>
          </g>
          <g id="Line_494">
            <path d="M 4291.1 1731.4093 C 4291.1 1731.4093 4310.6185 1734.9582 4339.047 1734.9213 C 4367.476 1734.8843 4391.4465 1731.279 4391.4465 1731.279" stroke="black" stroke-linecap="round" stroke-linejoin="round" stroke-width="1"/>
          </g>
          <g id="Line_493">
            <path d="M 4291.8535 1738.7556 C 4291.8535 1738.7556 4311.372 1742.3045 4339.8006 1742.2676 C 4368.2293 1742.2307 4392.2 1738.6253 4392.2 1738.6253" stroke="black" stroke-linecap="round" stroke-linejoin="round" stroke-width="1"/>
          </g>
          <g id="Line_492">
            <path d="M 4291.1 1746.102 C 4291.1 1746.102 4310.6185 1749.6509 4339.047 1749.614 C 4367.476 1749.577 4391.4465 1745.9716 4391.4465 1745.9716" stroke="black" stroke-linecap="round" stroke-linejoin="round" stroke-width="1"/>
          </g>
          <g id="Line_491">
            <path d="M 4291.8535 1753.4483 C 4291.8535 1753.4483 4311.372 1756.9972 4339.8006 1756.9603 C 4368.2293 1756.9234 4392.2 1753.318 4392.2 1753.318" stroke="black" stroke-linecap="round" stroke-linejoin="round" stroke-width="1"/>
          </g>
        </g>
        <g id="Line_489">
          <line x1="4289.741" y1="1675.8146" x2="4317.104" y2="1711.0048" marker-end="url(#FilledArrow_Marker)" stroke="black" stroke-linecap="round" stroke-linejoin="round" stroke-width="1"/>
        </g>
        <g id="Graphic_488" filter="url(#Shadow)">
          <path d="M 4008.4 1558.9991 L 4008.4 1510.9991 C 4008.4 1507.6871 4041.216 1504.9991 4081.65 1504.9991 C 4122.084 1504.9991 4154.9 1507.6871 4154.9 1510.9991 L 4154.9 1558.9991 C 4154.9 1562.3111 4122.084 1564.9991 4081.65 1564.9991 C 4041.216 1564.9991 4008.4 1562.3111 4008.4 1558.9991" fill="#ffeabb"/>
          <path d="M 4008.4 1558.9991 L 4008.4 1510.9991 C 4008.4 1507.6871 4041.216 1504.9991 4081.65 1504.9991 C 4122.084 1504.9991 4154.9 1507.6871 4154.9 1510.9991 L 4154.9 1558.9991 C 4154.9 1562.3111 4122.084 1564.9991 4081.65 1564.9991 C 4041.216 1564.9991 4008.4 1562.3111 4008.4 1558.9991 M 4008.4 1510.9991 C 4008.4 1514.3111 4041.216 1516.9991 4081.65 1516.9991 C 4122.084 1516.9991 4154.9 1514.3111 4154.9 1510.9991" stroke="black" stroke-linecap="round" stroke-linejoin="round" stroke-width="1"/>
          <text transform="translate(4013.4 1528.7751)" fill="black">
            <tspan font-family="Helvetica Neue" font-size="16" fill="black" x="40.546" y="15">All Data</tspan>
          </text>
        </g>
        <g id="Line_487">
          <line x1="4030.164" y1="1563.2657" x2="3939.4144" y2="1613.0882" marker-end="url(#FilledArrow_Marker)" stroke="black" stroke-linecap="round" stroke-linejoin="round" stroke-width="1"/>
        </g>
        <g id="Line_486">
          <line x1="4129.203" y1="1563.5619" x2="4210.61" y2="1612.4588" marker-end="url(#FilledArrow_Marker)" stroke="black" stroke-linecap="round" stroke-linejoin="round" stroke-width="1"/>
        </g>
        <g id="Graphic_485">
          <rect x="4268.4" y="1831.9245" width="48.54948" height="20.50105" fill="#ffeabb" fill-opacity=".20827085"/>
          <rect x="4268.4" y="1831.9245" width="48.54948" height="20.50105" stroke="black" stroke-linecap="round" stroke-linejoin="round" stroke-width="1"/>
          <text transform="translate(4273.4 1836.549)" fill="black">
            <tspan font-family="Helvetica Neue" font-size="9" fill="black" x="3.5247402" y="9">Logistic</tspan>
          </text>
        </g>
        <g id="Graphic_484">
          <rect x="4366.3505" y="1831.9245" width="48.54948" height="20.50105" fill="#ffeabb" fill-opacity=".20827085"/>
          <rect x="4366.3505" y="1831.9245" width="48.54948" height="20.50105" stroke="black" stroke-linecap="round" stroke-linejoin="round" stroke-width="1"/>
          <text transform="translate(4371.3505 1836.549)" fill="black">
            <tspan font-family="Helvetica Neue" font-size="9" fill="black" x="2.4402402" y="9">Xgboost</tspan>
          </text>
        </g>
        <g id="Line_483">
          <line x1="4329.8803" y1="1765.7257" x2="4301.9956" y2="1823.0227" marker-end="url(#FilledArrow_Marker)" stroke="black" stroke-linecap="round" stroke-linejoin="round" stroke-width="1"/>
        </g>
        <g id="Line_482">
          <line x1="4364.502" y1="1765.605" x2="4383.9315" y2="1822.5548" marker-end="url(#FilledArrow_Marker)" stroke="black" stroke-linecap="round" stroke-linejoin="round" stroke-width="1"/>
        </g>
        <g id="Graphic_479" filter="url(#Shadow)">
          <path d="M 4104.5 1766.175 L 4104.5 1718.175 C 4104.5 1714.863 4137.316 1712.175 4177.75 1712.175 C 4218.184 1712.175 4251 1714.863 4251 1718.175 L 4251 1766.175 C 4251 1769.487 4218.184 1772.175 4177.75 1772.175 C 4137.316 1772.175 4104.5 1769.487 4104.5 1766.175" fill="#ffeabb"/>
          <path d="M 4104.5 1766.175 L 4104.5 1718.175 C 4104.5 1714.863 4137.316 1712.175 4177.75 1712.175 C 4218.184 1712.175 4251 1714.863 4251 1718.175 L 4251 1766.175 C 4251 1769.487 4218.184 1772.175 4177.75 1772.175 C 4137.316 1772.175 4104.5 1769.487 4104.5 1766.175 M 4104.5 1718.175 C 4104.5 1721.487 4137.316 1724.175 4177.75 1724.175 C 4218.184 1724.175 4251 1721.487 4251 1718.175" stroke="black" stroke-linecap="round" stroke-linejoin="round" stroke-width="1"/>
          <text transform="translate(4109.5 1735.951)" fill="black">
            <tspan font-family="Helvetica Neue" font-size="16" fill="black" x="40.394" y="15">Training</tspan>
          </text>
        </g>
        <g id="Line_478">
          <line x1="4246.1667" y1="1676.1191" x2="4215.3807" y2="1705.8428" marker-end="url(#FilledArrow_Marker)" stroke="black" stroke-linecap="round" stroke-linejoin="round" stroke-width="1"/>
        </g>
        <g id="Graphic_477">
          <rect x="4310.646" y="1730.007" width="62.008" height="24.335999" fill="#fffbf1"/>
          <text transform="translate(4315.646 1735.007)" fill="black">
            <tspan font-family="Helvetica Neue" font-size="12" fill="black" x="8171241e-19" y="11">Validation</tspan>
          </text>
        </g>
      </g>
    </g>
  </g>
</svg>
