<?xml version="1.0" encoding="UTF-8" standalone="no"?>
<!DOCTYPE svg PUBLIC "-//W3C//DTD SVG 1.1//EN" "http://www.w3.org/Graphics/SVG/1.1/DTD/svg11.dtd">
<svg xmlns="http://www.w3.org/2000/svg" xmlns:xl="http://www.w3.org/1999/xlink" xmlns:dc="http://purl.org/dc/elements/1.1/" version="1.1" viewBox="2488 2509 744.5 847.1253" width="744.5" height="847.1253">
  <defs>
    <marker orient="auto" overflow="visible" markerUnits="strokeWidth" id="FilledArrow_Marker" stroke-linejoin="miter" stroke-miterlimit="10" viewBox="-1 -4 10 8" markerWidth="10" markerHeight="8" color="black">
      <g>
        <path d="M 8 0 L 0 -3 L 0 3 Z" fill="currentColor" stroke="currentColor" stroke-width="1"/>
      </g>
    </marker>
    <filter id="Shadow" filterUnits="userSpaceOnUse" x="2413.55" y="2424.2875">
      <feGaussianBlur in="SourceAlpha" result="blur" stdDeviation="1.308"/>
      <feOffset in="blur" result="offset" dx="0" dy="2"/>
      <feFlood flood-color="black" flood-opacity=".5" result="flood"/>
      <feComposite in="flood" in2="offset" operator="in" result="color"/>
      <feMerge>
        <feMergeNode in="color"/>
        <feMergeNode in="SourceGraphic"/>
      </feMerge>
    </filter>
  </defs>
  <g id="Canvas_1" fill-opacity="1" stroke="none" stroke-dasharray="none" stroke-opacity="1" fill="none">
    <title>Canvas 1</title>
    <g id="Canvas_1_Layer_1">
      <title>Layer 1</title>
      <g id="Group_759">
        <g id="Graphic_758"/>
        <g id="Graphic_757">
          <path d="M 2874.5 2723.2444 L 2874.5 2675.2444 C 2874.5 2671.9324 2907.316 2669.2444 2947.75 2669.2444 C 2988.184 2669.2444 3021 2671.9324 3021 2675.2444 L 3021 2723.2444 C 3021 2726.5564 2988.184 2729.2444 2947.75 2729.2444 C 2907.316 2729.2444 2874.5 2726.5564 2874.5 2723.2444" fill="#ffeabb"/>
          <path d="M 2874.5 2723.2444 L 2874.5 2675.2444 C 2874.5 2671.9324 2907.316 2669.2444 2947.75 2669.2444 C 2988.184 2669.2444 3021 2671.9324 3021 2675.2444 L 3021 2723.2444 C 3021 2726.5564 2988.184 2729.2444 2947.75 2729.2444 C 2907.316 2729.2444 2874.5 2726.5564 2874.5 2723.2444 M 2874.5 2675.2444 C 2874.5 2678.5564 2907.316 2681.2444 2947.75 2681.2444 C 2988.184 2681.2444 3021 2678.5564 3021 2675.2444" stroke="black" stroke-linecap="round" stroke-linejoin="round" stroke-width="1"/>
          <text transform="translate(2879.5 2693.0204)" fill="black">
            <tspan font-family="Helvetica Neue" font-size="16" fill="black" x="27.802" y="15">Not Testing</tspan>
          </text>
        </g>
        <g id="Graphic_756">
          <path d="M 2578.5 2723.2444 L 2578.5 2675.2444 C 2578.5 2671.9324 2611.316 2669.2444 2651.75 2669.2444 C 2692.184 2669.2444 2725 2671.9324 2725 2675.2444 L 2725 2723.2444 C 2725 2726.5564 2692.184 2729.2444 2651.75 2729.2444 C 2611.316 2729.2444 2578.5 2726.5564 2578.5 2723.2444" fill="#7a81ff" fill-opacity=".181819"/>
          <path d="M 2578.5 2723.2444 L 2578.5 2675.2444 C 2578.5 2671.9324 2611.316 2669.2444 2651.75 2669.2444 C 2692.184 2669.2444 2725 2671.9324 2725 2675.2444 L 2725 2723.2444 C 2725 2726.5564 2692.184 2729.2444 2651.75 2729.2444 C 2611.316 2729.2444 2578.5 2726.5564 2578.5 2723.2444 M 2578.5 2675.2444 C 2578.5 2678.5564 2611.316 2681.2444 2651.75 2681.2444 C 2692.184 2681.2444 2725 2678.5564 2725 2675.2444" stroke="black" stroke-linecap="round" stroke-linejoin="round" stroke-width="1"/>
          <text transform="translate(2583.5 2693.0204)" fill="black">
            <tspan font-family="Helvetica Neue" font-size="16" fill="black" x="42.914" y="15">Testing</tspan>
          </text>
        </g>
        <g id="Graphic_755">
          <path d="M 2735.5 2603.1253 L 2735.5 2555.1253 C 2735.5 2551.8133 2768.316 2549.1253 2808.75 2549.1253 C 2849.184 2549.1253 2882 2551.8133 2882 2555.1253 L 2882 2603.1253 C 2882 2606.4373 2849.184 2609.1253 2808.75 2609.1253 C 2768.316 2609.1253 2735.5 2606.4373 2735.5 2603.1253 M 2735.5 2555.1253 C 2735.5 2558.4373 2768.316 2561.1253 2808.75 2561.1253 C 2849.184 2561.1253 2882 2558.4373 2882 2555.1253" stroke="black" stroke-linecap="round" stroke-linejoin="round" stroke-width="1"/>
          <text transform="translate(2740.5 2572.9013)" fill="black">
            <tspan font-family="Helvetica Neue" font-size="16" fill="black" x="40.546" y="15">All Data</tspan>
          </text>
        </g>
        <g id="Line_754">
          <line x1="2770.681" y1="2608.2515" x2="2697.6817" y2="2664.1025" marker-end="url(#FilledArrow_Marker)" stroke="black" stroke-linecap="round" stroke-linejoin="round" stroke-width="1"/>
        </g>
        <g id="Line_753">
          <line x1="2842.6767" y1="2608.4436" x2="2906.3327" y2="2663.453" marker-end="url(#FilledArrow_Marker)" stroke="black" stroke-linecap="round" stroke-linejoin="round" stroke-width="1"/>
        </g>
        <g id="Graphic_752" filter="url(#Shadow)">
          <path d="M 2771 2872.1253 L 2771 2824.1253 C 2771 2820.8133 2803.816 2818.1253 2844.25 2818.1253 C 2884.684 2818.1253 2917.5 2820.8133 2917.5 2824.1253 L 2917.5 2872.1253 C 2917.5 2875.4373 2884.684 2878.1253 2844.25 2878.1253 C 2803.816 2878.1253 2771 2875.4373 2771 2872.1253" fill="#fffbf1"/>
          <path d="M 2771 2872.1253 L 2771 2824.1253 C 2771 2820.8133 2803.816 2818.1253 2844.25 2818.1253 C 2884.684 2818.1253 2917.5 2820.8133 2917.5 2824.1253 L 2917.5 2872.1253 C 2917.5 2875.4373 2884.684 2878.1253 2844.25 2878.1253 C 2803.816 2878.1253 2771 2875.4373 2771 2872.1253 M 2771 2824.1253 C 2771 2827.4373 2803.816 2830.1253 2844.25 2830.1253 C 2884.684 2830.1253 2917.5 2827.4373 2917.5 2824.1253" stroke="black" stroke-linecap="round" stroke-linejoin="round" stroke-width="1"/>
          <text transform="translate(2776 2841.9013)" fill="black">
            <tspan font-family="Helvetica Neue" font-size="16" fill="black" x="40.394" y="15">Training</tspan>
          </text>
        </g>
        <g id="Line_751">
          <line x1="2927.0633" y1="2729.0015" x2="2870.5877" y2="2810.2395" marker-end="url(#FilledArrow_Marker)" stroke="black" stroke-linecap="round" stroke-linejoin="round" stroke-width="1"/>
        </g>
        <g id="Graphic_750">
          <path d="M 2983.5 2866.5253 L 2983.5 2829.7253 C 2983.5 2827.186 3005.34 2825.1253 3032.25 2825.1253 C 3059.16 2825.1253 3081 2827.186 3081 2829.7253 L 3081 2866.5253 C 3081 2869.0645 3059.16 2871.1253 3032.25 2871.1253 C 3005.34 2871.1253 2983.5 2869.0645 2983.5 2866.5253" fill="#7a81ff" fill-opacity=".08"/>
          <path d="M 2983.5 2866.5253 L 2983.5 2829.7253 C 2983.5 2827.186 3005.34 2825.1253 3032.25 2825.1253 C 3059.16 2825.1253 3081 2827.186 3081 2829.7253 L 3081 2866.5253 C 3081 2869.0645 3059.16 2871.1253 3032.25 2871.1253 C 3005.34 2871.1253 2983.5 2869.0645 2983.5 2866.5253 M 2983.5 2829.7253 C 2983.5 2832.2645 3005.34 2834.3253 3032.25 2834.3253 C 3059.16 2834.3253 3081 2832.2645 3081 2829.7253" stroke="black" stroke-linecap="round" stroke-linejoin="round" stroke-width="1"/>
          <text transform="translate(2988.5 2843.0773)" fill="black">
            <tspan font-family="Helvetica Neue" font-size="16" fill="black" x="9.078" y="15">Validation</tspan>
          </text>
        </g>
        <g id="Line_749">
          <line x1="2964.6854" y1="2729.083" x2="3014.4026" y2="2816.68" marker-end="url(#FilledArrow_Marker)" stroke="black" stroke-linecap="round" stroke-linejoin="round" stroke-width="1"/>
        </g>
        <g id="Graphic_748">
          <ellipse cx="2780.75" cy="2941.5978" rx="42.2500675113554" ry="19.2857451023942" fill="#fffbf1"/>
          <ellipse cx="2780.75" cy="2941.5978" rx="42.2500675113554" ry="19.2857451023942" stroke="black" stroke-linecap="round" stroke-linejoin="round" stroke-width="1"/>
          <text transform="translate(2751.95 2933.0978)" fill="black">
            <tspan font-family="Helvetica Neue" font-size="14" fill="black" x="4.299999" y="13">Logistic</tspan>
          </text>
        </g>
        <g id="Line_747">
          <line x1="2824.0272" y1="2877.8934" x2="2798.8295" y2="2914.9846" marker-end="url(#FilledArrow_Marker)" stroke="black" stroke-linecap="round" stroke-linejoin="round" stroke-width="1"/>
        </g>
      </g>
    </g>
  </g>
</svg>
