<?xml version="1.0" encoding="UTF-8" standalone="no"?>
<!DOCTYPE svg PUBLIC "-//W3C//DTD SVG 1.1//EN" "http://www.w3.org/Graphics/SVG/1.1/DTD/svg11.dtd">
<svg xmlns:dc="http://purl.org/dc/elements/1.1/" version="1.1" xmlns:xl="http://www.w3.org/1999/xlink" xmlns="http://www.w3.org/2000/svg" viewBox="1174.5 1505.5 712.5 803" width="712.5" height="803">
  <defs>
    <filter id="Shadow" filterUnits="userSpaceOnUse" x="1103.25" y="1425.2">
      <feGaussianBlur in="SourceAlpha" result="blur" stdDeviation="1.308"/>
      <feOffset in="blur" result="offset" dx="0" dy="2"/>
      <feFlood flood-color="black" flood-opacity=".5" result="flood"/>
      <feComposite in="flood" in2="offset" operator="in" result="color"/>
      <feMerge>
        <feMergeNode in="color"/>
        <feMergeNode in="SourceGraphic"/>
      </feMerge>
    </filter>
    <marker orient="auto" overflow="visible" markerUnits="strokeWidth" id="FilledArrow_Marker" stroke-linejoin="miter" stroke-miterlimit="10" viewBox="-1 -4 10 8" markerWidth="10" markerHeight="8" color="black">
      <g>
        <path d="M 8 0 L 0 -3 L 0 3 Z" fill="currentColor" stroke="currentColor" stroke-width="1"/>
      </g>
    </marker>
  </defs>
  <g id="Canvas_1" fill-opacity="1" stroke="none" stroke-dasharray="none" fill="none" stroke-opacity="1">
    <title>Canvas 1</title>
    <g id="Canvas_1_Layer_1">
      <title>Layer 1</title>
      <g id="Group_161">
        <g id="Graphic_160"/>
        <g id="Graphic_151">
          <path d="M 1587.9 1713.6191 L 1587.9 1665.6191 C 1587.9 1662.3071 1620.716 1659.6191 1661.15 1659.6191 C 1701.584 1659.6191 1734.4 1662.3071 1734.4 1665.6191 L 1734.4 1713.6191 C 1734.4 1716.9311 1701.584 1719.6191 1661.15 1719.6191 C 1620.716 1719.6191 1587.9 1716.9311 1587.9 1713.6191 M 1587.9 1665.6191 C 1587.9 1668.9311 1620.716 1671.6191 1661.15 1671.6191 C 1701.584 1671.6191 1734.4 1668.9311 1734.4 1665.6191" stroke="black" stroke-linecap="round" stroke-linejoin="round" stroke-width="1"/>
          <text transform="translate(1592.9 1683.3951)" fill="black">
            <tspan font-family="Helvetica Neue" font-size="16" fill="black" x="27.802" y="15">Not Testing</tspan>
          </text>
        </g>
        <g id="Graphic_150" filter="url(#Shadow)">
          <path d="M 1200.5 1713.6191 L 1200.5 1665.6191 C 1200.5 1662.3071 1233.316 1659.6191 1273.75 1659.6191 C 1314.184 1659.6191 1347 1662.3071 1347 1665.6191 L 1347 1713.6191 C 1347 1716.9311 1314.184 1719.6191 1273.75 1719.6191 C 1233.316 1719.6191 1200.5 1716.9311 1200.5 1713.6191" fill="#e5e6ff"/>
          <path d="M 1200.5 1713.6191 L 1200.5 1665.6191 C 1200.5 1662.3071 1233.316 1659.6191 1273.75 1659.6191 C 1314.184 1659.6191 1347 1662.3071 1347 1665.6191 L 1347 1713.6191 C 1347 1716.9311 1314.184 1719.6191 1273.75 1719.6191 C 1233.316 1719.6191 1200.5 1716.9311 1200.5 1713.6191 M 1200.5 1665.6191 C 1200.5 1668.9311 1233.316 1671.6191 1273.75 1671.6191 C 1314.184 1671.6191 1347 1668.9311 1347 1665.6191" stroke="black" stroke-linecap="round" stroke-linejoin="round" stroke-width="1"/>
          <text transform="translate(1205.5 1683.3951)" fill="black">
            <tspan font-family="Helvetica Neue" font-size="16" fill="black" x="42.914" y="15">Testing</tspan>
          </text>
        </g>
        <g id="Group_144">
          <g id="Graphic_149">
            <path d="M 1685.6685 1804.615 L 1685.6685 1766.735 C 1685.6685 1764.1213 1708.1461 1762 1735.8418 1762 C 1763.5374 1762 1786.015 1764.1213 1786.015 1766.735 L 1786.015 1804.615 C 1786.015 1807.2287 1763.5374 1809.35 1735.8418 1809.35 C 1708.1461 1809.35 1685.6685 1807.2287 1685.6685 1804.615" fill="#fffbf1"/>
            <path d="M 1685.6685 1804.615 L 1685.6685 1766.735 C 1685.6685 1764.1213 1708.1461 1762 1735.8418 1762 C 1763.5374 1762 1786.015 1764.1213 1786.015 1766.735 L 1786.015 1804.615 C 1786.015 1807.2287 1763.5374 1809.35 1735.8418 1809.35 C 1708.1461 1809.35 1685.6685 1807.2287 1685.6685 1804.615 M 1685.6685 1766.735 C 1685.6685 1769.3487 1708.1461 1771.47 1735.8418 1771.47 C 1763.5374 1771.47 1786.015 1769.3487 1786.015 1766.735" stroke="black" stroke-linecap="round" stroke-linejoin="round" stroke-width="1"/>
          </g>
          <g id="Line_148">
            <path d="M 1685.6 1774.9093 C 1685.6 1774.9093 1705.1185 1778.4582 1733.5472 1778.4213 C 1761.9758 1778.3843 1785.9465 1774.779 1785.9465 1774.779" stroke="black" stroke-linecap="round" stroke-linejoin="round" stroke-width="1"/>
          </g>
          <g id="Line_147">
            <path d="M 1686.3535 1782.2556 C 1686.3535 1782.2556 1705.872 1785.8045 1734.3006 1785.7676 C 1762.7293 1785.7307 1786.7 1782.1253 1786.7 1782.1253" stroke="black" stroke-linecap="round" stroke-linejoin="round" stroke-width="1"/>
          </g>
          <g id="Line_146">
            <path d="M 1685.6 1789.602 C 1685.6 1789.602 1705.1185 1793.1509 1733.5472 1793.114 C 1761.9758 1793.077 1785.9465 1789.4716 1785.9465 1789.4716" stroke="black" stroke-linecap="round" stroke-linejoin="round" stroke-width="1"/>
          </g>
          <g id="Line_145">
            <path d="M 1686.3535 1796.9483 C 1686.3535 1796.9483 1705.872 1800.4972 1734.3006 1800.4603 C 1762.7293 1800.4234 1786.7 1796.818 1786.7 1796.818" stroke="black" stroke-linecap="round" stroke-linejoin="round" stroke-width="1"/>
          </g>
        </g>
        <g id="Line_142">
          <line x1="1684.2408" y1="1719.3146" x2="1711.6042" y2="1754.5048" marker-end="url(#FilledArrow_Marker)" stroke="black" stroke-linecap="round" stroke-linejoin="round" stroke-width="1"/>
        </g>
        <g id="Graphic_141" filter="url(#Shadow)">
          <path d="M 1402.9 1602.4991 L 1402.9 1554.4991 C 1402.9 1551.1871 1435.716 1548.4991 1476.15 1548.4991 C 1516.584 1548.4991 1549.4 1551.1871 1549.4 1554.4991 L 1549.4 1602.4991 C 1549.4 1605.8111 1516.584 1608.4991 1476.15 1608.4991 C 1435.716 1608.4991 1402.9 1605.8111 1402.9 1602.4991" fill="#ffeabb"/>
          <path d="M 1402.9 1602.4991 L 1402.9 1554.4991 C 1402.9 1551.1871 1435.716 1548.4991 1476.15 1548.4991 C 1516.584 1548.4991 1549.4 1551.1871 1549.4 1554.4991 L 1549.4 1602.4991 C 1549.4 1605.8111 1516.584 1608.4991 1476.15 1608.4991 C 1435.716 1608.4991 1402.9 1605.8111 1402.9 1602.4991 M 1402.9 1554.4991 C 1402.9 1557.8111 1435.716 1560.4991 1476.15 1560.4991 C 1516.584 1560.4991 1549.4 1557.8111 1549.4 1554.4991" stroke="black" stroke-linecap="round" stroke-linejoin="round" stroke-width="1"/>
          <text transform="translate(1407.9 1572.2751)" fill="black">
            <tspan font-family="Helvetica Neue" font-size="16" fill="black" x="40.546" y="15">All Data</tspan>
          </text>
        </g>
        <g id="Line_140">
          <line x1="1424.6638" y1="1606.7657" x2="1333.9144" y2="1656.5882" marker-end="url(#FilledArrow_Marker)" stroke="black" stroke-linecap="round" stroke-linejoin="round" stroke-width="1"/>
        </g>
        <g id="Line_139">
          <line x1="1523.7032" y1="1607.0619" x2="1605.11" y2="1655.9588" marker-end="url(#FilledArrow_Marker)" stroke="black" stroke-linecap="round" stroke-linejoin="round" stroke-width="1"/>
        </g>
        <g id="Graphic_130" filter="url(#Shadow)">
          <path d="M 1499 1809.675 L 1499 1761.675 C 1499 1758.363 1531.816 1755.675 1572.25 1755.675 C 1612.684 1755.675 1645.5 1758.363 1645.5 1761.675 L 1645.5 1809.675 C 1645.5 1812.987 1612.684 1815.675 1572.25 1815.675 C 1531.816 1815.675 1499 1812.987 1499 1809.675" fill="#ffeabb"/>
          <path d="M 1499 1809.675 L 1499 1761.675 C 1499 1758.363 1531.816 1755.675 1572.25 1755.675 C 1612.684 1755.675 1645.5 1758.363 1645.5 1761.675 L 1645.5 1809.675 C 1645.5 1812.987 1612.684 1815.675 1572.25 1815.675 C 1531.816 1815.675 1499 1812.987 1499 1809.675 M 1499 1761.675 C 1499 1764.987 1531.816 1767.675 1572.25 1767.675 C 1612.684 1767.675 1645.5 1764.987 1645.5 1761.675" stroke="black" stroke-linecap="round" stroke-linejoin="round" stroke-width="1"/>
          <text transform="translate(1504 1779.451)" fill="black">
            <tspan font-family="Helvetica Neue" font-size="16" fill="black" x="40.394" y="15">Training</tspan>
          </text>
        </g>
        <g id="Line_129">
          <line x1="1640.6667" y1="1719.6191" x2="1609.8807" y2="1749.3428" marker-end="url(#FilledArrow_Marker)" stroke="black" stroke-linecap="round" stroke-linejoin="round" stroke-width="1"/>
        </g>
        <g id="Graphic_127">
          <rect x="1705.146" y="1773.507" width="62.008" height="24.335999" fill="#fffbf1"/>
          <text transform="translate(1710.146 1778.507)" fill="black">
            <tspan font-family="Helvetica Neue" font-size="12" fill="black" x="8171241e-19" y="11">Validation</tspan>
          </text>
        </g>
      </g>
    </g>
  </g>
</svg>
