<?xml version="1.0" encoding="UTF-8" standalone="no"?>
<!DOCTYPE svg PUBLIC "-//W3C//DTD SVG 1.1//EN" "http://www.w3.org/Graphics/SVG/1.1/DTD/svg11.dtd">
<svg xmlns:xl="http://www.w3.org/1999/xlink" xmlns="http://www.w3.org/2000/svg" version="1.1" xmlns:dc="http://purl.org/dc/elements/1.1/" viewBox="3475 2484 744.5 847.1253" width="744.5" height="847.1253">
  <defs>
    <marker orient="auto" overflow="visible" markerUnits="strokeWidth" id="FilledArrow_Marker" stroke-linejoin="miter" stroke-miterlimit="10" viewBox="-1 -4 10 8" markerWidth="10" markerHeight="8" color="black">
      <g>
        <path d="M 8 0 L 0 -3 L 0 3 Z" fill="currentColor" stroke="currentColor" stroke-width="1"/>
      </g>
    </marker>
    <filter id="Shadow" filterUnits="userSpaceOnUse" x="3400.55" y="2399.2875">
      <feGaussianBlur in="SourceAlpha" result="blur" stdDeviation="1.308"/>
      <feOffset in="blur" result="offset" dx="0" dy="2"/>
      <feFlood flood-color="black" flood-opacity=".5" result="flood"/>
      <feComposite in="flood" in2="offset" operator="in" result="color"/>
      <feMerge>
        <feMergeNode in="color"/>
        <feMergeNode in="SourceGraphic"/>
      </feMerge>
    </filter>
    <marker orient="auto" overflow="visible" markerUnits="strokeWidth" id="FilledArrow_Marker_2" stroke-linejoin="miter" stroke-miterlimit="10" viewBox="-1 -4 10 8" markerWidth="10" markerHeight="8" color="black">
      <g>
        <path d="M 8 0 L 0 -3 L 0 3 Z" fill="currentColor" stroke="currentColor" stroke-width="1"/>
      </g>
    </marker>
  </defs>
  <g id="Canvas_1" fill-opacity="1" stroke="none" stroke-opacity="1" fill="none" stroke-dasharray="none">
    <title>Canvas 1</title>
    <g id="Canvas_1_Layer_1">
      <title>Layer 1</title>
      <g id="Group_654">
        <g id="Graphic_653"/>
        <g id="Graphic_651">
          <path d="M 3861.5 2698.2444 L 3861.5 2650.2444 C 3861.5 2646.9324 3894.316 2644.2444 3934.75 2644.2444 C 3975.184 2644.2444 4008 2646.9324 4008 2650.2444 L 4008 2698.2444 C 4008 2701.5564 3975.184 2704.2444 3934.75 2704.2444 C 3894.316 2704.2444 3861.5 2701.5564 3861.5 2698.2444" fill="#ffeabb"/>
          <path d="M 3861.5 2698.2444 L 3861.5 2650.2444 C 3861.5 2646.9324 3894.316 2644.2444 3934.75 2644.2444 C 3975.184 2644.2444 4008 2646.9324 4008 2650.2444 L 4008 2698.2444 C 4008 2701.5564 3975.184 2704.2444 3934.75 2704.2444 C 3894.316 2704.2444 3861.5 2701.5564 3861.5 2698.2444 M 3861.5 2650.2444 C 3861.5 2653.5564 3894.316 2656.2444 3934.75 2656.2444 C 3975.184 2656.2444 4008 2653.5564 4008 2650.2444" stroke="black" stroke-linecap="round" stroke-linejoin="round" stroke-width="1"/>
          <text transform="translate(3866.5 2668.0204)" fill="black">
            <tspan font-family="Helvetica Neue" font-size="16" fill="black" x="27.802" y="15">Not Testing</tspan>
          </text>
        </g>
        <g id="Graphic_650">
          <path d="M 3565.5 2698.2444 L 3565.5 2650.2444 C 3565.5 2646.9324 3598.316 2644.2444 3638.75 2644.2444 C 3679.184 2644.2444 3712 2646.9324 3712 2650.2444 L 3712 2698.2444 C 3712 2701.5564 3679.184 2704.2444 3638.75 2704.2444 C 3598.316 2704.2444 3565.5 2701.5564 3565.5 2698.2444" fill="#7a81ff" fill-opacity=".181819"/>
          <path d="M 3565.5 2698.2444 L 3565.5 2650.2444 C 3565.5 2646.9324 3598.316 2644.2444 3638.75 2644.2444 C 3679.184 2644.2444 3712 2646.9324 3712 2650.2444 L 3712 2698.2444 C 3712 2701.5564 3679.184 2704.2444 3638.75 2704.2444 C 3598.316 2704.2444 3565.5 2701.5564 3565.5 2698.2444 M 3565.5 2650.2444 C 3565.5 2653.5564 3598.316 2656.2444 3638.75 2656.2444 C 3679.184 2656.2444 3712 2653.5564 3712 2650.2444" stroke="black" stroke-linecap="round" stroke-linejoin="round" stroke-width="1"/>
          <text transform="translate(3570.5 2668.0204)" fill="black">
            <tspan font-family="Helvetica Neue" font-size="16" fill="black" x="42.914" y="15">Testing</tspan>
          </text>
        </g>
        <g id="Graphic_649">
          <path d="M 3722.5 2578.1253 L 3722.5 2530.1253 C 3722.5 2526.8133 3755.316 2524.1253 3795.75 2524.1253 C 3836.184 2524.1253 3869 2526.8133 3869 2530.1253 L 3869 2578.1253 C 3869 2581.4373 3836.184 2584.1253 3795.75 2584.1253 C 3755.316 2584.1253 3722.5 2581.4373 3722.5 2578.1253 M 3722.5 2530.1253 C 3722.5 2533.4373 3755.316 2536.1253 3795.75 2536.1253 C 3836.184 2536.1253 3869 2533.4373 3869 2530.1253" stroke="black" stroke-linecap="round" stroke-linejoin="round" stroke-width="1"/>
          <text transform="translate(3727.5 2547.9013)" fill="black">
            <tspan font-family="Helvetica Neue" font-size="16" fill="black" x="40.546" y="15">All Data</tspan>
          </text>
        </g>
        <g id="Line_648">
          <line x1="3757.681" y1="2583.2515" x2="3684.6817" y2="2639.1025" marker-end="url(#FilledArrow_Marker)" stroke="black" stroke-linecap="round" stroke-linejoin="round" stroke-width="1"/>
        </g>
        <g id="Line_647">
          <line x1="3829.6767" y1="2583.4436" x2="3893.3327" y2="2638.453" marker-end="url(#FilledArrow_Marker)" stroke="black" stroke-linecap="round" stroke-linejoin="round" stroke-width="1"/>
        </g>
        <g id="Graphic_646">
          <rect x="3758" y="2912.8747" width="48.54948" height="20.50105" fill="#ffeabb" fill-opacity=".20827085"/>
          <rect x="3758" y="2912.8747" width="48.54948" height="20.50105" stroke="black" stroke-linecap="round" stroke-linejoin="round" stroke-width="1"/>
          <text transform="translate(3763 2917.4993)" fill="black">
            <tspan font-family="Helvetica Neue" font-size="9" fill="black" x="3.5247402" y="9">Logistic</tspan>
          </text>
        </g>
        <g id="Graphic_645">
          <rect x="3855.9505" y="2912.8747" width="48.54948" height="20.50105" fill="#ffeabb" fill-opacity=".20827085"/>
          <rect x="3855.9505" y="2912.8747" width="48.54948" height="20.50105" stroke="black" stroke-linecap="round" stroke-linejoin="round" stroke-width="1"/>
          <text transform="translate(3860.9505 2917.4993)" fill="black">
            <tspan font-family="Helvetica Neue" font-size="9" fill="black" x="2.4402402" y="9">Xgboost</tspan>
          </text>
        </g>
        <g id="Line_644">
          <line x1="3816.616" y1="2853.0053" x2="3791.6493" y2="2903.9838" marker-end="url(#FilledArrow_Marker)" stroke="black" stroke-linecap="round" stroke-linejoin="round" stroke-width="1"/>
        </g>
        <g id="Line_643">
          <line x1="3845.884" y1="2853.0053" x2="3870.8507" y2="2903.9838" marker-end="url(#FilledArrow_Marker)" stroke="black" stroke-linecap="round" stroke-linejoin="round" stroke-width="1"/>
        </g>
        <g id="Graphic_640" filter="url(#Shadow)">
          <path d="M 3758 2847.1253 L 3758 2799.1253 C 3758 2795.8133 3790.816 2793.1253 3831.25 2793.1253 C 3871.684 2793.1253 3904.5 2795.8133 3904.5 2799.1253 L 3904.5 2847.1253 C 3904.5 2850.4373 3871.684 2853.1253 3831.25 2853.1253 C 3790.816 2853.1253 3758 2850.4373 3758 2847.1253" fill="#fffbf1"/>
          <path d="M 3758 2847.1253 L 3758 2799.1253 C 3758 2795.8133 3790.816 2793.1253 3831.25 2793.1253 C 3871.684 2793.1253 3904.5 2795.8133 3904.5 2799.1253 L 3904.5 2847.1253 C 3904.5 2850.4373 3871.684 2853.1253 3831.25 2853.1253 C 3790.816 2853.1253 3758 2850.4373 3758 2847.1253 M 3758 2799.1253 C 3758 2802.4373 3790.816 2805.1253 3831.25 2805.1253 C 3871.684 2805.1253 3904.5 2802.4373 3904.5 2799.1253" stroke="black" stroke-linecap="round" stroke-linejoin="round" stroke-width="1"/>
          <text transform="translate(3763 2816.9013)" fill="black">
            <tspan font-family="Helvetica Neue" font-size="16" fill="black" x="40.394" y="15">Training</tspan>
          </text>
        </g>
        <g id="Line_639">
          <line x1="3914.0633" y1="2704.0015" x2="3857.5877" y2="2785.2395" marker-end="url(#FilledArrow_Marker)" stroke="black" stroke-linecap="round" stroke-linejoin="round" stroke-width="1"/>
        </g>
        <g id="Graphic_638">
          <path d="M 3970.5 2841.5253 L 3970.5 2804.7253 C 3970.5 2802.186 3992.34 2800.1253 4019.25 2800.1253 C 4046.16 2800.1253 4068 2802.186 4068 2804.7253 L 4068 2841.5253 C 4068 2844.0645 4046.16 2846.1253 4019.25 2846.1253 C 3992.34 2846.1253 3970.5 2844.0645 3970.5 2841.5253" fill="#7a81ff" fill-opacity=".08"/>
          <path d="M 3970.5 2841.5253 L 3970.5 2804.7253 C 3970.5 2802.186 3992.34 2800.1253 4019.25 2800.1253 C 4046.16 2800.1253 4068 2802.186 4068 2804.7253 L 4068 2841.5253 C 4068 2844.0645 4046.16 2846.1253 4019.25 2846.1253 C 3992.34 2846.1253 3970.5 2844.0645 3970.5 2841.5253 M 3970.5 2804.7253 C 3970.5 2807.2645 3992.34 2809.3253 4019.25 2809.3253 C 4046.16 2809.3253 4068 2807.2645 4068 2804.7253" stroke="black" stroke-linecap="round" stroke-linejoin="round" stroke-width="1"/>
          <text transform="translate(3975.5 2818.0773)" fill="black">
            <tspan font-family="Helvetica Neue" font-size="16" fill="black" x="9.078" y="15">Validation</tspan>
          </text>
        </g>
        <g id="Line_637">
          <line x1="3951.6854" y1="2704.083" x2="4001.4026" y2="2791.68" marker-end="url(#FilledArrow_Marker_2)" stroke="black" stroke-linecap="round" stroke-linejoin="round" stroke-width="1"/>
        </g>
      </g>
    </g>
  </g>
</svg>
