<?xml version="1.0" encoding="UTF-8" standalone="no"?>
<!DOCTYPE svg PUBLIC "-//W3C//DTD SVG 1.1//EN" "http://www.w3.org/Graphics/SVG/1.1/DTD/svg11.dtd">
<svg xmlns:xl="http://www.w3.org/1999/xlink" xmlns="http://www.w3.org/2000/svg" version="1.1" xmlns:dc="http://purl.org/dc/elements/1.1/" viewBox="4362 2538 744.5 847.1253" width="744.5" height="847.1253">
  <defs>
    <marker orient="auto" overflow="visible" markerUnits="strokeWidth" id="FilledArrow_Marker" stroke-linejoin="miter" stroke-miterlimit="10" viewBox="-1 -4 10 8" markerWidth="10" markerHeight="8" color="black">
      <g>
        <path d="M 8 0 L 0 -3 L 0 3 Z" fill="currentColor" stroke="currentColor" stroke-width="1"/>
      </g>
    </marker>
    <filter id="Shadow" filterUnits="userSpaceOnUse" x="4287.55" y="2453.2875">
      <feGaussianBlur in="SourceAlpha" result="blur" stdDeviation="1.308"/>
      <feOffset in="blur" result="offset" dx="0" dy="2"/>
      <feFlood flood-color="black" flood-opacity=".5" result="flood"/>
      <feComposite in="flood" in2="offset" operator="in" result="color"/>
      <feMerge>
        <feMergeNode in="color"/>
        <feMergeNode in="SourceGraphic"/>
      </feMerge>
    </filter>
    <marker orient="auto" overflow="visible" markerUnits="strokeWidth" id="FilledArrow_Marker_2" stroke-linejoin="miter" stroke-miterlimit="10" viewBox="-1 -4 10 8" markerWidth="10" markerHeight="8" color="black">
      <g>
        <path d="M 8 0 L 0 -3 L 0 3 Z" fill="currentColor" stroke="currentColor" stroke-width="1"/>
      </g>
    </marker>
  </defs>
  <g id="Canvas_1" fill-opacity="1" stroke="none" stroke-opacity="1" fill="none" stroke-dasharray="none">
    <title>Canvas 1</title>
    <g id="Canvas_1_Layer_1">
      <title>Layer 1</title>
      <g id="Group_633">
        <g id="Graphic_632"/>
        <g id="Graphic_630">
          <path d="M 4750.5 3045.2505 L 4893 3045.2505 C 4894.1046 3045.2505 4895 3046.146 4895 3047.2505 L 4895 3103.2505 C 4895 3104.355 4894.1046 3105.2505 4893 3105.2505 L 4750.5 3105.2505 C 4749.3954 3105.2505 4748.5 3104.355 4748.5 3103.2505 L 4748.5 3047.2505 C 4748.5 3046.146 4749.3954 3045.2505 4750.5 3045.2505 Z" fill="#7a81ff" fill-opacity=".08"/>
          <path d="M 4750.5 3045.2505 L 4893 3045.2505 C 4894.1046 3045.2505 4895 3046.146 4895 3047.2505 L 4895 3103.2505 C 4895 3104.355 4894.1046 3105.2505 4893 3105.2505 L 4750.5 3105.2505 C 4749.3954 3105.2505 4748.5 3104.355 4748.5 3103.2505 L 4748.5 3047.2505 C 4748.5 3046.146 4749.3954 3045.2505 4750.5 3045.2505 Z" stroke="black" stroke-linecap="round" stroke-linejoin="round" stroke-width="1"/>
          <text transform="translate(4753.5 3066.0265)" fill="black">
            <tspan font-family="Helvetica Neue" font-size="16" fill="black" x="14.762" y="15">Select a Model</tspan>
          </text>
        </g>
        <g id="Graphic_626">
          <path d="M 4748.5 2752.2444 L 4748.5 2704.2444 C 4748.5 2700.9324 4781.316 2698.2444 4821.75 2698.2444 C 4862.184 2698.2444 4895 2700.9324 4895 2704.2444 L 4895 2752.2444 C 4895 2755.5564 4862.184 2758.2444 4821.75 2758.2444 C 4781.316 2758.2444 4748.5 2755.5564 4748.5 2752.2444" fill="#ffeabb"/>
          <path d="M 4748.5 2752.2444 L 4748.5 2704.2444 C 4748.5 2700.9324 4781.316 2698.2444 4821.75 2698.2444 C 4862.184 2698.2444 4895 2700.9324 4895 2704.2444 L 4895 2752.2444 C 4895 2755.5564 4862.184 2758.2444 4821.75 2758.2444 C 4781.316 2758.2444 4748.5 2755.5564 4748.5 2752.2444 M 4748.5 2704.2444 C 4748.5 2707.5564 4781.316 2710.2444 4821.75 2710.2444 C 4862.184 2710.2444 4895 2707.5564 4895 2704.2444" stroke="black" stroke-linecap="round" stroke-linejoin="round" stroke-width="1"/>
          <text transform="translate(4753.5 2722.0204)" fill="black">
            <tspan font-family="Helvetica Neue" font-size="16" fill="black" x="27.802" y="15">Not Testing</tspan>
          </text>
        </g>
        <g id="Graphic_625">
          <path d="M 4452.5 2752.2444 L 4452.5 2704.2444 C 4452.5 2700.9324 4485.316 2698.2444 4525.75 2698.2444 C 4566.184 2698.2444 4599 2700.9324 4599 2704.2444 L 4599 2752.2444 C 4599 2755.5564 4566.184 2758.2444 4525.75 2758.2444 C 4485.316 2758.2444 4452.5 2755.5564 4452.5 2752.2444" fill="#7a81ff" fill-opacity=".181819"/>
          <path d="M 4452.5 2752.2444 L 4452.5 2704.2444 C 4452.5 2700.9324 4485.316 2698.2444 4525.75 2698.2444 C 4566.184 2698.2444 4599 2700.9324 4599 2704.2444 L 4599 2752.2444 C 4599 2755.5564 4566.184 2758.2444 4525.75 2758.2444 C 4485.316 2758.2444 4452.5 2755.5564 4452.5 2752.2444 M 4452.5 2704.2444 C 4452.5 2707.5564 4485.316 2710.2444 4525.75 2710.2444 C 4566.184 2710.2444 4599 2707.5564 4599 2704.2444" stroke="black" stroke-linecap="round" stroke-linejoin="round" stroke-width="1"/>
          <text transform="translate(4457.5 2722.0204)" fill="black">
            <tspan font-family="Helvetica Neue" font-size="16" fill="black" x="42.914" y="15">Testing</tspan>
          </text>
        </g>
        <g id="Graphic_623">
          <path d="M 4609.5 2632.1253 L 4609.5 2584.1253 C 4609.5 2580.8133 4642.316 2578.1253 4682.75 2578.1253 C 4723.184 2578.1253 4756 2580.8133 4756 2584.1253 L 4756 2632.1253 C 4756 2635.4373 4723.184 2638.1253 4682.75 2638.1253 C 4642.316 2638.1253 4609.5 2635.4373 4609.5 2632.1253 M 4609.5 2584.1253 C 4609.5 2587.4373 4642.316 2590.1253 4682.75 2590.1253 C 4723.184 2590.1253 4756 2587.4373 4756 2584.1253" stroke="black" stroke-linecap="round" stroke-linejoin="round" stroke-width="1"/>
          <text transform="translate(4614.5 2601.9013)" fill="black">
            <tspan font-family="Helvetica Neue" font-size="16" fill="black" x="40.546" y="15">All Data</tspan>
          </text>
        </g>
        <g id="Line_622">
          <line x1="4644.681" y1="2637.2515" x2="4571.6817" y2="2693.1025" marker-end="url(#FilledArrow_Marker)" stroke="black" stroke-linecap="round" stroke-linejoin="round" stroke-width="1"/>
        </g>
        <g id="Line_621">
          <line x1="4716.6767" y1="2637.4436" x2="4780.333" y2="2692.453" marker-end="url(#FilledArrow_Marker)" stroke="black" stroke-linecap="round" stroke-linejoin="round" stroke-width="1"/>
        </g>
        <g id="Graphic_620">
          <rect x="4645" y="2966.8747" width="48.54948" height="20.50105" fill="#ffeabb" fill-opacity=".20827085"/>
          <rect x="4645" y="2966.8747" width="48.54948" height="20.50105" stroke="black" stroke-linecap="round" stroke-linejoin="round" stroke-width="1"/>
          <text transform="translate(4650 2971.4993)" fill="black">
            <tspan font-family="Helvetica Neue" font-size="9" fill="black" x="3.5247402" y="9">Logistic</tspan>
          </text>
        </g>
        <g id="Graphic_619">
          <rect x="4742.9505" y="2966.8747" width="48.54948" height="20.50105" fill="#ffeabb" fill-opacity=".20827085"/>
          <rect x="4742.9505" y="2966.8747" width="48.54948" height="20.50105" stroke="black" stroke-linecap="round" stroke-linejoin="round" stroke-width="1"/>
          <text transform="translate(4747.9505 2971.4993)" fill="black">
            <tspan font-family="Helvetica Neue" font-size="9" fill="black" x="2.4402402" y="9">Xgboost</tspan>
          </text>
        </g>
        <g id="Line_618">
          <line x1="4703.616" y1="2907.0053" x2="4678.6493" y2="2957.9838" marker-end="url(#FilledArrow_Marker)" stroke="black" stroke-linecap="round" stroke-linejoin="round" stroke-width="1"/>
        </g>
        <g id="Line_617">
          <line x1="4732.884" y1="2907.0053" x2="4757.8507" y2="2957.9838" marker-end="url(#FilledArrow_Marker)" stroke="black" stroke-linecap="round" stroke-linejoin="round" stroke-width="1"/>
        </g>
        <g id="Line_616">
          <line x1="4685.203" y1="2987.3758" x2="4766.8084" y2="3039.893" marker-end="url(#FilledArrow_Marker)" stroke="black" stroke-linecap="round" stroke-linejoin="round" stroke-width="1"/>
        </g>
        <g id="Line_615">
          <line x1="4772.921" y1="2987.3758" x2="4800.2715" y2="3036.5968" marker-end="url(#FilledArrow_Marker)" stroke="black" stroke-linecap="round" stroke-linejoin="round" stroke-width="1"/>
        </g>
        <g id="Graphic_614" filter="url(#Shadow)">
          <path d="M 4645 2901.1253 L 4645 2853.1253 C 4645 2849.8133 4677.816 2847.1253 4718.25 2847.1253 C 4758.684 2847.1253 4791.5 2849.8133 4791.5 2853.1253 L 4791.5 2901.1253 C 4791.5 2904.4373 4758.684 2907.1253 4718.25 2907.1253 C 4677.816 2907.1253 4645 2904.4373 4645 2901.1253" fill="#fffbf1"/>
          <path d="M 4645 2901.1253 L 4645 2853.1253 C 4645 2849.8133 4677.816 2847.1253 4718.25 2847.1253 C 4758.684 2847.1253 4791.5 2849.8133 4791.5 2853.1253 L 4791.5 2901.1253 C 4791.5 2904.4373 4758.684 2907.1253 4718.25 2907.1253 C 4677.816 2907.1253 4645 2904.4373 4645 2901.1253 M 4645 2853.1253 C 4645 2856.4373 4677.816 2859.1253 4718.25 2859.1253 C 4758.684 2859.1253 4791.5 2856.4373 4791.5 2853.1253" stroke="black" stroke-linecap="round" stroke-linejoin="round" stroke-width="1"/>
          <text transform="translate(4650 2870.9013)" fill="black">
            <tspan font-family="Helvetica Neue" font-size="16" fill="black" x="40.394" y="15">Training</tspan>
          </text>
        </g>
        <g id="Line_613">
          <line x1="4801.063" y1="2758.0015" x2="4744.5877" y2="2839.2395" marker-end="url(#FilledArrow_Marker)" stroke="black" stroke-linecap="round" stroke-linejoin="round" stroke-width="1"/>
        </g>
        <g id="Graphic_611">
          <path d="M 4857.5 2895.5253 L 4857.5 2858.7253 C 4857.5 2856.186 4879.34 2854.1253 4906.25 2854.1253 C 4933.16 2854.1253 4955 2856.186 4955 2858.7253 L 4955 2895.5253 C 4955 2898.0645 4933.16 2900.1253 4906.25 2900.1253 C 4879.34 2900.1253 4857.5 2898.0645 4857.5 2895.5253" fill="#7a81ff" fill-opacity=".08"/>
          <path d="M 4857.5 2895.5253 L 4857.5 2858.7253 C 4857.5 2856.186 4879.34 2854.1253 4906.25 2854.1253 C 4933.16 2854.1253 4955 2856.186 4955 2858.7253 L 4955 2895.5253 C 4955 2898.0645 4933.16 2900.1253 4906.25 2900.1253 C 4879.34 2900.1253 4857.5 2898.0645 4857.5 2895.5253 M 4857.5 2858.7253 C 4857.5 2861.2645 4879.34 2863.3253 4906.25 2863.3253 C 4933.16 2863.3253 4955 2861.2645 4955 2858.7253" stroke="black" stroke-linecap="round" stroke-linejoin="round" stroke-width="1"/>
          <text transform="translate(4862.5 2872.0773)" fill="black">
            <tspan font-family="Helvetica Neue" font-size="16" fill="black" x="9.078" y="15">Validation</tspan>
          </text>
        </g>
        <g id="Line_610">
          <line x1="4838.6854" y1="2758.083" x2="4888.4026" y2="2845.68" marker-end="url(#FilledArrow_Marker_2)" stroke="black" stroke-linecap="round" stroke-linejoin="round" stroke-width="1"/>
        </g>
        <g id="Line_609">
          <line x1="4896.48" y1="2900.0327" x2="4838.429" y2="3036.144" marker-end="url(#FilledArrow_Marker_2)" stroke="black" stroke-linecap="round" stroke-linejoin="round" stroke-width="1"/>
        </g>
      </g>
    </g>
  </g>
</svg>
