<?xml version="1.0" encoding="UTF-8" standalone="no"?>
<!DOCTYPE svg PUBLIC "-//W3C//DTD SVG 1.1//EN" "http://www.w3.org/Graphics/SVG/1.1/DTD/svg11.dtd">
<svg xmlns="http://www.w3.org/2000/svg" xmlns:xl="http://www.w3.org/1999/xlink" xmlns:dc="http://purl.org/dc/elements/1.1/" version="1.1" viewBox="4702 1452.2505 713.5 804" width="713.5" height="804">
  <defs>
    <filter id="Shadow" filterUnits="userSpaceOnUse" x="4630.65" y="1371.8505">
      <feGaussianBlur in="SourceAlpha" result="blur" stdDeviation="1.308"/>
      <feOffset in="blur" result="offset" dx="0" dy="2"/>
      <feFlood flood-color="black" flood-opacity=".5" result="flood"/>
      <feComposite in="flood" in2="offset" operator="in" result="color"/>
      <feMerge>
        <feMergeNode in="color"/>
        <feMergeNode in="SourceGraphic"/>
      </feMerge>
    </filter>
    <marker orient="auto" overflow="visible" markerUnits="strokeWidth" id="FilledArrow_Marker" stroke-linejoin="miter" stroke-miterlimit="10" viewBox="-1 -4 10 8" markerWidth="10" markerHeight="8" color="black">
      <g>
        <path d="M 8 0 L 0 -3 L 0 3 Z" fill="currentColor" stroke="currentColor" stroke-width="1"/>
      </g>
    </marker>
  </defs>
  <g id="Canvas_1" stroke="none" stroke-opacity="1" fill="none" stroke-dasharray="none" fill-opacity="1">
    <title>Canvas 1</title>
    <g id="Canvas_1_Layer_1">
      <title>Layer 1</title>
      <g id="Group_474">
        <g id="Graphic_443"/>
        <g id="Group_444">
          <g id="Graphic_473"/>
          <g id="Graphic_471" filter="url(#Shadow)">
            <path d="M 5192.4 1908.7505 L 5334.9 1908.7505 C 5336.0046 1908.7505 5336.9 1909.646 5336.9 1910.7505 L 5336.9 1966.7505 C 5336.9 1967.855 5336.0046 1968.7505 5334.9 1968.7505 L 5192.4 1968.7505 C 5191.2954 1968.7505 5190.4 1967.855 5190.4 1966.7505 L 5190.4 1910.7505 C 5190.4 1909.646 5191.2954 1908.7505 5192.4 1908.7505 Z" fill="#fffbf1"/>
            <path d="M 5192.4 1908.7505 L 5334.9 1908.7505 C 5336.0046 1908.7505 5336.9 1909.646 5336.9 1910.7505 L 5336.9 1966.7505 C 5336.9 1967.855 5336.0046 1968.7505 5334.9 1968.7505 L 5192.4 1968.7505 C 5191.2954 1968.7505 5190.4 1967.855 5190.4 1966.7505 L 5190.4 1910.7505 C 5190.4 1909.646 5191.2954 1908.7505 5192.4 1908.7505 Z" stroke="black" stroke-linecap="round" stroke-linejoin="round" stroke-width="1"/>
            <text transform="translate(5195.4 1929.5265)" fill="black">
              <tspan font-family="Helvetica Neue" font-size="16" fill="black" x="14.762" y="15">Select a Model</tspan>
            </text>
          </g>
          <g id="Graphic_467">
            <path d="M 5115.4 1660.3697 L 5115.4 1612.3697 C 5115.4 1609.0577 5148.216 1606.3697 5188.65 1606.3697 C 5229.084 1606.3697 5261.9 1609.0577 5261.9 1612.3697 L 5261.9 1660.3697 C 5261.9 1663.6817 5229.084 1666.3697 5188.65 1666.3697 C 5148.216 1666.3697 5115.4 1663.6817 5115.4 1660.3697 M 5115.4 1612.3697 C 5115.4 1615.6817 5148.216 1618.3697 5188.65 1618.3697 C 5229.084 1618.3697 5261.9 1615.6817 5261.9 1612.3697" stroke="black" stroke-linecap="round" stroke-linejoin="round" stroke-width="1"/>
            <text transform="translate(5120.4 1630.1457)" fill="black">
              <tspan font-family="Helvetica Neue" font-size="16" fill="black" x="27.802" y="15">Not Testing</tspan>
            </text>
          </g>
          <g id="Graphic_466" filter="url(#Shadow)">
            <path d="M 4728 1660.3697 L 4728 1612.3697 C 4728 1609.0577 4760.816 1606.3697 4801.25 1606.3697 C 4841.684 1606.3697 4874.5 1609.0577 4874.5 1612.3697 L 4874.5 1660.3697 C 4874.5 1663.6817 4841.684 1666.3697 4801.25 1666.3697 C 4760.816 1666.3697 4728 1663.6817 4728 1660.3697" fill="#e5e6ff"/>
            <path d="M 4728 1660.3697 L 4728 1612.3697 C 4728 1609.0577 4760.816 1606.3697 4801.25 1606.3697 C 4841.684 1606.3697 4874.5 1609.0577 4874.5 1612.3697 L 4874.5 1660.3697 C 4874.5 1663.6817 4841.684 1666.3697 4801.25 1666.3697 C 4760.816 1666.3697 4728 1663.6817 4728 1660.3697 M 4728 1612.3697 C 4728 1615.6817 4760.816 1618.3697 4801.25 1618.3697 C 4841.684 1618.3697 4874.5 1615.6817 4874.5 1612.3697" stroke="black" stroke-linecap="round" stroke-linejoin="round" stroke-width="1"/>
            <text transform="translate(4733 1630.1457)" fill="black">
              <tspan font-family="Helvetica Neue" font-size="16" fill="black" x="42.914" y="15">Testing</tspan>
            </text>
          </g>
          <g id="Group_460">
            <g id="Graphic_465">
              <path d="M 5213.1685 1751.3655 L 5213.1685 1713.4855 C 5213.1685 1710.8718 5235.646 1708.7505 5263.342 1708.7505 C 5291.0374 1708.7505 5313.515 1710.8718 5313.515 1713.4855 L 5313.515 1751.3655 C 5313.515 1753.9792 5291.0374 1756.1005 5263.342 1756.1005 C 5235.646 1756.1005 5213.1685 1753.9792 5213.1685 1751.3655" fill="#fffbf1"/>
              <path d="M 5213.1685 1751.3655 L 5213.1685 1713.4855 C 5213.1685 1710.8718 5235.646 1708.7505 5263.342 1708.7505 C 5291.0374 1708.7505 5313.515 1710.8718 5313.515 1713.4855 L 5313.515 1751.3655 C 5313.515 1753.9792 5291.0374 1756.1005 5263.342 1756.1005 C 5235.646 1756.1005 5213.1685 1753.9792 5213.1685 1751.3655 M 5213.1685 1713.4855 C 5213.1685 1716.0992 5235.646 1718.2205 5263.342 1718.2205 C 5291.0374 1718.2205 5313.515 1716.0992 5313.515 1713.4855" stroke="black" stroke-linecap="round" stroke-linejoin="round" stroke-width="1"/>
            </g>
            <g id="Line_464">
              <path d="M 5213.1 1721.6598 C 5213.1 1721.6598 5232.6185 1725.2087 5261.047 1725.1718 C 5289.476 1725.1349 5313.4465 1721.5295 5313.4465 1721.5295" stroke="black" stroke-linecap="round" stroke-linejoin="round" stroke-width="1"/>
            </g>
            <g id="Line_463">
              <path d="M 5213.8535 1729.0062 C 5213.8535 1729.0062 5233.372 1732.555 5261.8006 1732.5181 C 5290.229 1732.4812 5314.2 1728.8758 5314.2 1728.8758" stroke="black" stroke-linecap="round" stroke-linejoin="round" stroke-width="1"/>
            </g>
            <g id="Line_462">
              <path d="M 5213.1 1736.3525 C 5213.1 1736.3525 5232.6185 1739.9014 5261.047 1739.8645 C 5289.476 1739.8275 5313.4465 1736.2222 5313.4465 1736.2222" stroke="black" stroke-linecap="round" stroke-linejoin="round" stroke-width="1"/>
            </g>
            <g id="Line_461">
              <path d="M 5213.8535 1743.6989 C 5213.8535 1743.6989 5233.372 1747.2478 5261.8006 1747.2108 C 5290.229 1747.174 5314.2 1743.5685 5314.2 1743.5685" stroke="black" stroke-linecap="round" stroke-linejoin="round" stroke-width="1"/>
            </g>
          </g>
          <g id="Line_458">
            <line x1="5211.741" y1="1666.065" x2="5239.104" y2="1701.2553" marker-end="url(#FilledArrow_Marker)" stroke="black" stroke-linecap="round" stroke-linejoin="round" stroke-width="1"/>
          </g>
          <g id="Graphic_457" filter="url(#Shadow)">
            <path d="M 4930.4 1549.2497 L 4930.4 1501.2497 C 4930.4 1497.9377 4963.216 1495.2497 5003.65 1495.2497 C 5044.084 1495.2497 5076.9 1497.9377 5076.9 1501.2497 L 5076.9 1549.2497 C 5076.9 1552.5617 5044.084 1555.2497 5003.65 1555.2497 C 4963.216 1555.2497 4930.4 1552.5617 4930.4 1549.2497" fill="#ffeabb"/>
            <path d="M 4930.4 1549.2497 L 4930.4 1501.2497 C 4930.4 1497.9377 4963.216 1495.2497 5003.65 1495.2497 C 5044.084 1495.2497 5076.9 1497.9377 5076.9 1501.2497 L 5076.9 1549.2497 C 5076.9 1552.5617 5044.084 1555.2497 5003.65 1555.2497 C 4963.216 1555.2497 4930.4 1552.5617 4930.4 1549.2497 M 4930.4 1501.2497 C 4930.4 1504.5617 4963.216 1507.2497 5003.65 1507.2497 C 5044.084 1507.2497 5076.9 1504.5617 5076.9 1501.2497" stroke="black" stroke-linecap="round" stroke-linejoin="round" stroke-width="1"/>
            <text transform="translate(4935.4 1519.0257)" fill="black">
              <tspan font-family="Helvetica Neue" font-size="16" fill="black" x="40.546" y="15">All Data</tspan>
            </text>
          </g>
          <g id="Line_456">
            <line x1="4952.164" y1="1553.5162" x2="4861.4144" y2="1603.3387" marker-end="url(#FilledArrow_Marker)" stroke="black" stroke-linecap="round" stroke-linejoin="round" stroke-width="1"/>
          </g>
          <g id="Line_455">
            <line x1="5051.203" y1="1553.8124" x2="5132.61" y2="1602.7094" marker-end="url(#FilledArrow_Marker)" stroke="black" stroke-linecap="round" stroke-linejoin="round" stroke-width="1"/>
          </g>
          <g id="Graphic_454">
            <rect x="5190.4" y="1822.175" width="48.54948" height="20.50105" fill="#ffeabb" fill-opacity=".20827085"/>
            <rect x="5190.4" y="1822.175" width="48.54948" height="20.50105" stroke="black" stroke-linecap="round" stroke-linejoin="round" stroke-width="1"/>
            <text transform="translate(5195.4 1826.7995)" fill="black">
              <tspan font-family="Helvetica Neue" font-size="9" fill="black" x="3.5247402" y="9">Logistic</tspan>
            </text>
          </g>
          <g id="Graphic_453">
            <rect x="5288.3505" y="1822.175" width="48.54948" height="20.50105" fill="#ffeabb" fill-opacity=".20827085"/>
            <rect x="5288.3505" y="1822.175" width="48.54948" height="20.50105" stroke="black" stroke-linecap="round" stroke-linejoin="round" stroke-width="1"/>
            <text transform="translate(5293.3505 1826.7995)" fill="black">
              <tspan font-family="Helvetica Neue" font-size="9" fill="black" x="2.4402402" y="9">Xgboost</tspan>
            </text>
          </g>
          <g id="Line_452">
            <line x1="5251.8803" y1="1755.9762" x2="5223.9956" y2="1813.2732" marker-end="url(#FilledArrow_Marker)" stroke="black" stroke-linecap="round" stroke-linejoin="round" stroke-width="1"/>
          </g>
          <g id="Line_451">
            <line x1="5286.502" y1="1755.8556" x2="5305.9315" y2="1812.8053" marker-end="url(#FilledArrow_Marker)" stroke="black" stroke-linecap="round" stroke-linejoin="round" stroke-width="1"/>
          </g>
          <g id="Line_450">
            <line x1="5219.3963" y1="1842.676" x2="5245.6896" y2="1899.7586" marker-end="url(#FilledArrow_Marker)" stroke="black" stroke-linecap="round" stroke-linejoin="round" stroke-width="1"/>
          </g>
          <g id="Line_449">
            <line x1="5307.9037" y1="1842.676" x2="5281.6104" y2="1899.7586" marker-end="url(#FilledArrow_Marker)" stroke="black" stroke-linecap="round" stroke-linejoin="round" stroke-width="1"/>
          </g>
          <g id="Graphic_448" filter="url(#Shadow)">
            <path d="M 5026.5 1756.4255 L 5026.5 1708.4255 C 5026.5 1705.1135 5059.316 1702.4255 5099.75 1702.4255 C 5140.184 1702.4255 5173 1705.1135 5173 1708.4255 L 5173 1756.4255 C 5173 1759.7375 5140.184 1762.4255 5099.75 1762.4255 C 5059.316 1762.4255 5026.5 1759.7375 5026.5 1756.4255" fill="#ffeabb"/>
            <path d="M 5026.5 1756.4255 L 5026.5 1708.4255 C 5026.5 1705.1135 5059.316 1702.4255 5099.75 1702.4255 C 5140.184 1702.4255 5173 1705.1135 5173 1708.4255 L 5173 1756.4255 C 5173 1759.7375 5140.184 1762.4255 5099.75 1762.4255 C 5059.316 1762.4255 5026.5 1759.7375 5026.5 1756.4255 M 5026.5 1708.4255 C 5026.5 1711.7375 5059.316 1714.4255 5099.75 1714.4255 C 5140.184 1714.4255 5173 1711.7375 5173 1708.4255" stroke="black" stroke-linecap="round" stroke-linejoin="round" stroke-width="1"/>
            <text transform="translate(5031.5 1726.2015)" fill="black">
              <tspan font-family="Helvetica Neue" font-size="16" fill="black" x="40.394" y="15">Training</tspan>
            </text>
          </g>
          <g id="Line_447">
            <line x1="5168.1667" y1="1666.3697" x2="5137.381" y2="1696.0933" marker-end="url(#FilledArrow_Marker)" stroke="black" stroke-linecap="round" stroke-linejoin="round" stroke-width="1"/>
          </g>
          <g id="Graphic_445">
            <rect x="5232.646" y="1720.2575" width="62.008" height="24.335999" fill="#fffbf1"/>
            <text transform="translate(5237.646 1725.2575)" fill="black">
              <tspan font-family="Helvetica Neue" font-size="12" fill="black" x="8171241e-19" y="11">Validation</tspan>
            </text>
          </g>
        </g>
      </g>
    </g>
  </g>
</svg>
