<?xml version="1.0" encoding="UTF-8" standalone="no"?>
<!DOCTYPE svg PUBLIC "-//W3C//DTD SVG 1.1//EN" "http://www.w3.org/Graphics/SVG/1.1/DTD/svg11.dtd">
<svg xmlns:dc="http://purl.org/dc/elements/1.1/" version="1.1" xmlns:xl="http://www.w3.org/1999/xlink" xmlns="http://www.w3.org/2000/svg" viewBox="1981.25 1475 712.5 803" width="712.5" height="803">
  <defs>
    <filter id="Shadow" filterUnits="userSpaceOnUse" x="1910" y="1394.7">
      <feGaussianBlur in="SourceAlpha" result="blur" stdDeviation="1.308"/>
      <feOffset in="blur" result="offset" dx="0" dy="2"/>
      <feFlood flood-color="black" flood-opacity=".5" result="flood"/>
      <feComposite in="flood" in2="offset" operator="in" result="color"/>
      <feMerge>
        <feMergeNode in="color"/>
        <feMergeNode in="SourceGraphic"/>
      </feMerge>
    </filter>
    <marker orient="auto" overflow="visible" markerUnits="strokeWidth" id="FilledArrow_Marker" stroke-linejoin="miter" stroke-miterlimit="10" viewBox="-1 -4 10 8" markerWidth="10" markerHeight="8" color="black">
      <g>
        <path d="M 8 0 L 0 -3 L 0 3 Z" fill="currentColor" stroke="currentColor" stroke-width="1"/>
      </g>
    </marker>
  </defs>
  <g id="Canvas_1" fill-opacity="1" stroke="none" stroke-dasharray="none" fill="none" stroke-opacity="1">
    <title>Canvas 1</title>
    <g id="Canvas_1_Layer_1">
      <title>Layer 1</title>
      <g id="Group_196">
        <g id="Graphic_195"/>
        <g id="Graphic_186">
          <path d="M 2394.65 1683.1191 L 2394.65 1635.1191 C 2394.65 1631.8071 2427.466 1629.1191 2467.9 1629.1191 C 2508.334 1629.1191 2541.15 1631.8071 2541.15 1635.1191 L 2541.15 1683.1191 C 2541.15 1686.4311 2508.334 1689.1191 2467.9 1689.1191 C 2427.466 1689.1191 2394.65 1686.4311 2394.65 1683.1191 M 2394.65 1635.1191 C 2394.65 1638.4311 2427.466 1641.1191 2467.9 1641.1191 C 2508.334 1641.1191 2541.15 1638.4311 2541.15 1635.1191" stroke="black" stroke-linecap="round" stroke-linejoin="round" stroke-width="1"/>
          <text transform="translate(2399.65 1652.8951)" fill="black">
            <tspan font-family="Helvetica Neue" font-size="16" fill="black" x="27.802" y="15">Not Testing</tspan>
          </text>
        </g>
        <g id="Graphic_185" filter="url(#Shadow)">
          <path d="M 2007.25 1683.1191 L 2007.25 1635.1191 C 2007.25 1631.8071 2040.066 1629.1191 2080.5 1629.1191 C 2120.934 1629.1191 2153.75 1631.8071 2153.75 1635.1191 L 2153.75 1683.1191 C 2153.75 1686.4311 2120.934 1689.1191 2080.5 1689.1191 C 2040.066 1689.1191 2007.25 1686.4311 2007.25 1683.1191" fill="#e5e6ff"/>
          <path d="M 2007.25 1683.1191 L 2007.25 1635.1191 C 2007.25 1631.8071 2040.066 1629.1191 2080.5 1629.1191 C 2120.934 1629.1191 2153.75 1631.8071 2153.75 1635.1191 L 2153.75 1683.1191 C 2153.75 1686.4311 2120.934 1689.1191 2080.5 1689.1191 C 2040.066 1689.1191 2007.25 1686.4311 2007.25 1683.1191 M 2007.25 1635.1191 C 2007.25 1638.4311 2040.066 1641.1191 2080.5 1641.1191 C 2120.934 1641.1191 2153.75 1638.4311 2153.75 1635.1191" stroke="black" stroke-linecap="round" stroke-linejoin="round" stroke-width="1"/>
          <text transform="translate(2012.25 1652.8951)" fill="black">
            <tspan font-family="Helvetica Neue" font-size="16" fill="black" x="42.914" y="15">Testing</tspan>
          </text>
        </g>
        <g id="Group_179">
          <g id="Graphic_184">
            <path d="M 2492.4185 1774.115 L 2492.4185 1736.235 C 2492.4185 1733.6213 2514.896 1731.5 2542.5918 1731.5 C 2570.2874 1731.5 2592.765 1733.6213 2592.765 1736.235 L 2592.765 1774.115 C 2592.765 1776.7287 2570.2874 1778.85 2542.5918 1778.85 C 2514.896 1778.85 2492.4185 1776.7287 2492.4185 1774.115" fill="#fffbf1"/>
            <path d="M 2492.4185 1774.115 L 2492.4185 1736.235 C 2492.4185 1733.6213 2514.896 1731.5 2542.5918 1731.5 C 2570.2874 1731.5 2592.765 1733.6213 2592.765 1736.235 L 2592.765 1774.115 C 2592.765 1776.7287 2570.2874 1778.85 2542.5918 1778.85 C 2514.896 1778.85 2492.4185 1776.7287 2492.4185 1774.115 M 2492.4185 1736.235 C 2492.4185 1738.8487 2514.896 1740.97 2542.5918 1740.97 C 2570.2874 1740.97 2592.765 1738.8487 2592.765 1736.235" stroke="black" stroke-linecap="round" stroke-linejoin="round" stroke-width="1"/>
          </g>
          <g id="Line_183">
            <path d="M 2492.35 1744.4093 C 2492.35 1744.4093 2511.8685 1747.9582 2540.2972 1747.9213 C 2568.7258 1747.8843 2592.6965 1744.279 2592.6965 1744.279" stroke="black" stroke-linecap="round" stroke-linejoin="round" stroke-width="1"/>
          </g>
          <g id="Line_182">
            <path d="M 2493.1035 1751.7556 C 2493.1035 1751.7556 2512.622 1755.3045 2541.0506 1755.2676 C 2569.4793 1755.2307 2593.45 1751.6253 2593.45 1751.6253" stroke="black" stroke-linecap="round" stroke-linejoin="round" stroke-width="1"/>
          </g>
          <g id="Line_181">
            <path d="M 2492.35 1759.102 C 2492.35 1759.102 2511.8685 1762.6509 2540.2972 1762.614 C 2568.7258 1762.577 2592.6965 1758.9716 2592.6965 1758.9716" stroke="black" stroke-linecap="round" stroke-linejoin="round" stroke-width="1"/>
          </g>
          <g id="Line_180">
            <path d="M 2493.1035 1766.4483 C 2493.1035 1766.4483 2512.622 1769.9972 2541.0506 1769.9603 C 2569.4793 1769.9234 2593.45 1766.318 2593.45 1766.318" stroke="black" stroke-linecap="round" stroke-linejoin="round" stroke-width="1"/>
          </g>
        </g>
        <g id="Line_177">
          <line x1="2490.9908" y1="1688.8146" x2="2518.3542" y2="1724.0048" marker-end="url(#FilledArrow_Marker)" stroke="black" stroke-linecap="round" stroke-linejoin="round" stroke-width="1"/>
        </g>
        <g id="Graphic_176" filter="url(#Shadow)">
          <path d="M 2209.65 1571.9991 L 2209.65 1523.9991 C 2209.65 1520.6871 2242.466 1517.9991 2282.9 1517.9991 C 2323.334 1517.9991 2356.15 1520.6871 2356.15 1523.9991 L 2356.15 1571.9991 C 2356.15 1575.3111 2323.334 1577.9991 2282.9 1577.9991 C 2242.466 1577.9991 2209.65 1575.3111 2209.65 1571.9991" fill="#ffeabb"/>
          <path d="M 2209.65 1571.9991 L 2209.65 1523.9991 C 2209.65 1520.6871 2242.466 1517.9991 2282.9 1517.9991 C 2323.334 1517.9991 2356.15 1520.6871 2356.15 1523.9991 L 2356.15 1571.9991 C 2356.15 1575.3111 2323.334 1577.9991 2282.9 1577.9991 C 2242.466 1577.9991 2209.65 1575.3111 2209.65 1571.9991 M 2209.65 1523.9991 C 2209.65 1527.3111 2242.466 1529.9991 2282.9 1529.9991 C 2323.334 1529.9991 2356.15 1527.3111 2356.15 1523.9991" stroke="black" stroke-linecap="round" stroke-linejoin="round" stroke-width="1"/>
          <text transform="translate(2214.65 1541.7751)" fill="black">
            <tspan font-family="Helvetica Neue" font-size="16" fill="black" x="40.546" y="15">All Data</tspan>
          </text>
        </g>
        <g id="Line_175">
          <line x1="2231.4138" y1="1576.2657" x2="2140.6644" y2="1626.0882" marker-end="url(#FilledArrow_Marker)" stroke="black" stroke-linecap="round" stroke-linejoin="round" stroke-width="1"/>
        </g>
        <g id="Line_174">
          <line x1="2330.4532" y1="1576.5619" x2="2411.86" y2="1625.4588" marker-end="url(#FilledArrow_Marker)" stroke="black" stroke-linecap="round" stroke-linejoin="round" stroke-width="1"/>
        </g>
        <g id="Graphic_173">
          <rect x="2419.25" y="1843.5" width="48.54948" height="20.50105" fill="#ffeabb" fill-opacity=".20827085"/>
          <rect x="2419.25" y="1843.5" width="48.54948" height="20.50105" stroke="black" stroke-linecap="round" stroke-linejoin="round" stroke-width="1"/>
          <text transform="translate(2424.25 1848.1245)" fill="black">
            <tspan font-family="Helvetica Neue" font-size="9" fill="black" x="4.68574" y="9">Glmnet</tspan>
          </text>
        </g>
        <g id="Line_170">
          <line x1="2519.34" y1="1778.3114" x2="2460.844" y2="1836.517" marker-end="url(#FilledArrow_Marker)" stroke="black" stroke-linecap="round" stroke-linejoin="round" stroke-width="1"/>
        </g>
        <g id="Graphic_165" filter="url(#Shadow)">
          <path d="M 2305.75 1779.175 L 2305.75 1731.175 C 2305.75 1727.863 2338.566 1725.175 2379 1725.175 C 2419.434 1725.175 2452.25 1727.863 2452.25 1731.175 L 2452.25 1779.175 C 2452.25 1782.487 2419.434 1785.175 2379 1785.175 C 2338.566 1785.175 2305.75 1782.487 2305.75 1779.175" fill="#ffeabb"/>
          <path d="M 2305.75 1779.175 L 2305.75 1731.175 C 2305.75 1727.863 2338.566 1725.175 2379 1725.175 C 2419.434 1725.175 2452.25 1727.863 2452.25 1731.175 L 2452.25 1779.175 C 2452.25 1782.487 2419.434 1785.175 2379 1785.175 C 2338.566 1785.175 2305.75 1782.487 2305.75 1779.175 M 2305.75 1731.175 C 2305.75 1734.487 2338.566 1737.175 2379 1737.175 C 2419.434 1737.175 2452.25 1734.487 2452.25 1731.175" stroke="black" stroke-linecap="round" stroke-linejoin="round" stroke-width="1"/>
          <text transform="translate(2310.75 1748.951)" fill="black">
            <tspan font-family="Helvetica Neue" font-size="16" fill="black" x="40.394" y="15">Training</tspan>
          </text>
        </g>
        <g id="Line_164">
          <line x1="2447.4167" y1="1689.1191" x2="2416.6307" y2="1718.8428" marker-end="url(#FilledArrow_Marker)" stroke="black" stroke-linecap="round" stroke-linejoin="round" stroke-width="1"/>
        </g>
        <g id="Graphic_162">
          <rect x="2511.896" y="1743.007" width="62.008" height="24.335999" fill="#fffbf1"/>
          <text transform="translate(2516.896 1748.007)" fill="black">
            <tspan font-family="Helvetica Neue" font-size="12" fill="black" x="8171241e-19" y="11">Validation</tspan>
          </text>
        </g>
      </g>
    </g>
  </g>
</svg>
