<?xml version="1.0" encoding="UTF-8" standalone="no"?>
<!DOCTYPE svg PUBLIC "-//W3C//DTD SVG 1.1//EN" "http://www.w3.org/Graphics/SVG/1.1/DTD/svg11.dtd">
<svg xmlns:dc="http://purl.org/dc/elements/1.1/" version="1.1" xmlns:xl="http://www.w3.org/1999/xlink" xmlns="http://www.w3.org/2000/svg" viewBox="2724 1475 712.5 803" width="712.5" height="803">
  <defs>
    <filter id="Shadow" filterUnits="userSpaceOnUse" x="2652.75" y="1394.7">
      <feGaussianBlur in="SourceAlpha" result="blur" stdDeviation="1.308"/>
      <feOffset in="blur" result="offset" dx="0" dy="2"/>
      <feFlood flood-color="black" flood-opacity=".5" result="flood"/>
      <feComposite in="flood" in2="offset" operator="in" result="color"/>
      <feMerge>
        <feMergeNode in="color"/>
        <feMergeNode in="SourceGraphic"/>
      </feMerge>
    </filter>
    <marker orient="auto" overflow="visible" markerUnits="strokeWidth" id="FilledArrow_Marker" stroke-linejoin="miter" stroke-miterlimit="10" viewBox="-1 -4 10 8" markerWidth="10" markerHeight="8" color="black">
      <g>
        <path d="M 8 0 L 0 -3 L 0 3 Z" fill="currentColor" stroke="currentColor" stroke-width="1"/>
      </g>
    </marker>
  </defs>
  <g id="Canvas_1" fill-opacity="1" stroke="none" stroke-dasharray="none" fill="none" stroke-opacity="1">
    <title>Canvas 1</title>
    <g id="Canvas_1_Layer_1">
      <title>Layer 1</title>
      <g id="Group_334">
        <g id="Graphic_230"/>
        <g id="Graphic_221">
          <path d="M 3137.4 1683.1191 L 3137.4 1635.1191 C 3137.4 1631.8071 3170.216 1629.1191 3210.65 1629.1191 C 3251.084 1629.1191 3283.9 1631.8071 3283.9 1635.1191 L 3283.9 1683.1191 C 3283.9 1686.4311 3251.084 1689.1191 3210.65 1689.1191 C 3170.216 1689.1191 3137.4 1686.4311 3137.4 1683.1191 M 3137.4 1635.1191 C 3137.4 1638.4311 3170.216 1641.1191 3210.65 1641.1191 C 3251.084 1641.1191 3283.9 1638.4311 3283.9 1635.1191" stroke="black" stroke-linecap="round" stroke-linejoin="round" stroke-width="1"/>
          <text transform="translate(3142.4 1652.8951)" fill="black">
            <tspan font-family="Helvetica Neue" font-size="16" fill="black" x="27.802" y="15">Not Testing</tspan>
          </text>
        </g>
        <g id="Graphic_220" filter="url(#Shadow)">
          <path d="M 2750 1683.1191 L 2750 1635.1191 C 2750 1631.8071 2782.816 1629.1191 2823.25 1629.1191 C 2863.684 1629.1191 2896.5 1631.8071 2896.5 1635.1191 L 2896.5 1683.1191 C 2896.5 1686.4311 2863.684 1689.1191 2823.25 1689.1191 C 2782.816 1689.1191 2750 1686.4311 2750 1683.1191" fill="#e5e6ff"/>
          <path d="M 2750 1683.1191 L 2750 1635.1191 C 2750 1631.8071 2782.816 1629.1191 2823.25 1629.1191 C 2863.684 1629.1191 2896.5 1631.8071 2896.5 1635.1191 L 2896.5 1683.1191 C 2896.5 1686.4311 2863.684 1689.1191 2823.25 1689.1191 C 2782.816 1689.1191 2750 1686.4311 2750 1683.1191 M 2750 1635.1191 C 2750 1638.4311 2782.816 1641.1191 2823.25 1641.1191 C 2863.684 1641.1191 2896.5 1638.4311 2896.5 1635.1191" stroke="black" stroke-linecap="round" stroke-linejoin="round" stroke-width="1"/>
          <text transform="translate(2755 1652.8951)" fill="black">
            <tspan font-family="Helvetica Neue" font-size="16" fill="black" x="42.914" y="15">Testing</tspan>
          </text>
        </g>
        <g id="Group_214">
          <g id="Graphic_219">
            <path d="M 3235.1685 1774.115 L 3235.1685 1736.235 C 3235.1685 1733.6213 3257.646 1731.5 3285.3418 1731.5 C 3313.0374 1731.5 3335.515 1733.6213 3335.515 1736.235 L 3335.515 1774.115 C 3335.515 1776.7287 3313.0374 1778.85 3285.3418 1778.85 C 3257.646 1778.85 3235.1685 1776.7287 3235.1685 1774.115" fill="#fffbf1"/>
            <path d="M 3235.1685 1774.115 L 3235.1685 1736.235 C 3235.1685 1733.6213 3257.646 1731.5 3285.3418 1731.5 C 3313.0374 1731.5 3335.515 1733.6213 3335.515 1736.235 L 3335.515 1774.115 C 3335.515 1776.7287 3313.0374 1778.85 3285.3418 1778.85 C 3257.646 1778.85 3235.1685 1776.7287 3235.1685 1774.115 M 3235.1685 1736.235 C 3235.1685 1738.8487 3257.646 1740.97 3285.3418 1740.97 C 3313.0374 1740.97 3335.515 1738.8487 3335.515 1736.235" stroke="black" stroke-linecap="round" stroke-linejoin="round" stroke-width="1"/>
          </g>
          <g id="Line_218">
            <path d="M 3235.1 1744.4093 C 3235.1 1744.4093 3254.6185 1747.9582 3283.047 1747.9213 C 3311.476 1747.8843 3335.4465 1744.279 3335.4465 1744.279" stroke="black" stroke-linecap="round" stroke-linejoin="round" stroke-width="1"/>
          </g>
          <g id="Line_217">
            <path d="M 3235.8535 1751.7556 C 3235.8535 1751.7556 3255.372 1755.3045 3283.8006 1755.2676 C 3312.2293 1755.2307 3336.2 1751.6253 3336.2 1751.6253" stroke="black" stroke-linecap="round" stroke-linejoin="round" stroke-width="1"/>
          </g>
          <g id="Line_216">
            <path d="M 3235.1 1759.102 C 3235.1 1759.102 3254.6185 1762.6509 3283.047 1762.614 C 3311.476 1762.577 3335.4465 1758.9716 3335.4465 1758.9716" stroke="black" stroke-linecap="round" stroke-linejoin="round" stroke-width="1"/>
          </g>
          <g id="Line_215">
            <path d="M 3235.8535 1766.4483 C 3235.8535 1766.4483 3255.372 1769.9972 3283.8006 1769.9603 C 3312.2293 1769.9234 3336.2 1766.318 3336.2 1766.318" stroke="black" stroke-linecap="round" stroke-linejoin="round" stroke-width="1"/>
          </g>
        </g>
        <g id="Line_212">
          <line x1="3233.7408" y1="1688.8146" x2="3261.1042" y2="1724.0048" marker-end="url(#FilledArrow_Marker)" stroke="black" stroke-linecap="round" stroke-linejoin="round" stroke-width="1"/>
        </g>
        <g id="Graphic_211" filter="url(#Shadow)">
          <path d="M 2952.4 1571.9991 L 2952.4 1523.9991 C 2952.4 1520.6871 2985.216 1517.9991 3025.65 1517.9991 C 3066.084 1517.9991 3098.9 1520.6871 3098.9 1523.9991 L 3098.9 1571.9991 C 3098.9 1575.3111 3066.084 1577.9991 3025.65 1577.9991 C 2985.216 1577.9991 2952.4 1575.3111 2952.4 1571.9991" fill="#ffeabb"/>
          <path d="M 2952.4 1571.9991 L 2952.4 1523.9991 C 2952.4 1520.6871 2985.216 1517.9991 3025.65 1517.9991 C 3066.084 1517.9991 3098.9 1520.6871 3098.9 1523.9991 L 3098.9 1571.9991 C 3098.9 1575.3111 3066.084 1577.9991 3025.65 1577.9991 C 2985.216 1577.9991 2952.4 1575.3111 2952.4 1571.9991 M 2952.4 1523.9991 C 2952.4 1527.3111 2985.216 1529.9991 3025.65 1529.9991 C 3066.084 1529.9991 3098.9 1527.3111 3098.9 1523.9991" stroke="black" stroke-linecap="round" stroke-linejoin="round" stroke-width="1"/>
          <text transform="translate(2957.4 1541.7751)" fill="black">
            <tspan font-family="Helvetica Neue" font-size="16" fill="black" x="40.546" y="15">All Data</tspan>
          </text>
        </g>
        <g id="Line_210">
          <line x1="2974.1638" y1="1576.2657" x2="2883.4144" y2="1626.0882" marker-end="url(#FilledArrow_Marker)" stroke="black" stroke-linecap="round" stroke-linejoin="round" stroke-width="1"/>
        </g>
        <g id="Line_209">
          <line x1="3073.203" y1="1576.5619" x2="3154.61" y2="1625.4588" marker-end="url(#FilledArrow_Marker)" stroke="black" stroke-linecap="round" stroke-linejoin="round" stroke-width="1"/>
        </g>
        <g id="Graphic_208">
          <rect x="3162" y="1843.5" width="48.54948" height="20.50105" fill="#ffeabb" fill-opacity=".20827085"/>
          <rect x="3162" y="1843.5" width="48.54948" height="20.50105" stroke="black" stroke-linecap="round" stroke-linejoin="round" stroke-width="1"/>
          <text transform="translate(3167 1848.1245)" fill="black">
            <tspan font-family="Helvetica Neue" font-size="9" fill="black" x="5.51824" y="9">glmnet</tspan>
          </text>
        </g>
        <g id="Graphic_207">
          <rect x="3261.3753" y="1843.5" width="48.54948" height="20.50105" fill="#ffeabb" fill-opacity=".20827085"/>
          <rect x="3261.3753" y="1843.5" width="48.54948" height="20.50105" stroke="black" stroke-linecap="round" stroke-linejoin="round" stroke-width="1"/>
          <text transform="translate(3266.3753 1848.1245)" fill="black">
            <tspan font-family="Helvetica Neue" font-size="9" fill="black" x="11.60674" y="9">tree</tspan>
          </text>
        </g>
        <g id="Line_205">
          <line x1="3262.09" y1="1778.3114" x2="3203.594" y2="1836.517" marker-end="url(#FilledArrow_Marker)" stroke="black" stroke-linecap="round" stroke-linejoin="round" stroke-width="1"/>
        </g>
        <g id="Line_204">
          <line x1="3285.4158" y1="1778.85" x2="3285.587" y2="1833.6" marker-end="url(#FilledArrow_Marker)" stroke="black" stroke-linecap="round" stroke-linejoin="round" stroke-width="1"/>
        </g>
        <g id="Graphic_200" filter="url(#Shadow)">
          <path d="M 3048.5 1779.175 L 3048.5 1731.175 C 3048.5 1727.863 3081.316 1725.175 3121.75 1725.175 C 3162.184 1725.175 3195 1727.863 3195 1731.175 L 3195 1779.175 C 3195 1782.487 3162.184 1785.175 3121.75 1785.175 C 3081.316 1785.175 3048.5 1782.487 3048.5 1779.175" fill="#ffeabb"/>
          <path d="M 3048.5 1779.175 L 3048.5 1731.175 C 3048.5 1727.863 3081.316 1725.175 3121.75 1725.175 C 3162.184 1725.175 3195 1727.863 3195 1731.175 L 3195 1779.175 C 3195 1782.487 3162.184 1785.175 3121.75 1785.175 C 3081.316 1785.175 3048.5 1782.487 3048.5 1779.175 M 3048.5 1731.175 C 3048.5 1734.487 3081.316 1737.175 3121.75 1737.175 C 3162.184 1737.175 3195 1734.487 3195 1731.175" stroke="black" stroke-linecap="round" stroke-linejoin="round" stroke-width="1"/>
          <text transform="translate(3053.5 1748.951)" fill="black">
            <tspan font-family="Helvetica Neue" font-size="16" fill="black" x="40.394" y="15">Training</tspan>
          </text>
        </g>
        <g id="Line_199">
          <line x1="3190.1667" y1="1689.1191" x2="3159.3807" y2="1718.8428" marker-end="url(#FilledArrow_Marker)" stroke="black" stroke-linecap="round" stroke-linejoin="round" stroke-width="1"/>
        </g>
        <g id="Graphic_197">
          <rect x="3254.646" y="1743.007" width="62.008" height="24.335999" fill="#fffbf1"/>
          <text transform="translate(3259.646 1748.007)" fill="black">
            <tspan font-family="Helvetica Neue" font-size="12" fill="black" x="8171241e-19" y="11">Validation</tspan>
          </text>
        </g>
      </g>
    </g>
  </g>
</svg>
