<?xml version="1.0" encoding="UTF-8" standalone="no"?>
<!DOCTYPE svg PUBLIC "-//W3C//DTD SVG 1.1//EN" "http://www.w3.org/Graphics/SVG/1.1/DTD/svg11.dtd">
<svg xmlns:dc="http://purl.org/dc/elements/1.1/" version="1.1" xmlns:xl="http://www.w3.org/1999/xlink" xmlns="http://www.w3.org/2000/svg" viewBox="4579 1475 712.5 803" width="712.5" height="803">
  <defs>
    <filter id="Shadow" filterUnits="userSpaceOnUse" x="4507.75" y="1394.7">
      <feGaussianBlur in="SourceAlpha" result="blur" stdDeviation="1.308"/>
      <feOffset in="blur" result="offset" dx="0" dy="2"/>
      <feFlood flood-color="black" flood-opacity=".5" result="flood"/>
      <feComposite in="flood" in2="offset" operator="in" result="color"/>
      <feMerge>
        <feMergeNode in="color"/>
        <feMergeNode in="SourceGraphic"/>
      </feMerge>
    </filter>
    <marker orient="auto" overflow="visible" markerUnits="strokeWidth" id="FilledArrow_Marker" stroke-linejoin="miter" stroke-miterlimit="10" viewBox="-1 -4 10 8" markerWidth="10" markerHeight="8" color="black">
      <g>
        <path d="M 8 0 L 0 -3 L 0 3 Z" fill="currentColor" stroke="currentColor" stroke-width="1"/>
      </g>
    </marker>
  </defs>
  <g id="Canvas_1" fill-opacity="1" stroke="none" stroke-dasharray="none" fill="none" stroke-opacity="1">
    <title>Canvas 1</title>
    <g id="Canvas_1_Layer_1">
      <title>Layer 1</title>
      <g id="Group_434">
        <g id="Graphic_393">
          <path d="M 4992.4 1683.1191 L 4992.4 1635.1191 C 4992.4 1631.8071 5025.216 1629.1191 5065.65 1629.1191 C 5106.084 1629.1191 5138.9 1631.8071 5138.9 1635.1191 L 5138.9 1683.1191 C 5138.9 1686.4311 5106.084 1689.1191 5065.65 1689.1191 C 5025.216 1689.1191 4992.4 1686.4311 4992.4 1683.1191 M 4992.4 1635.1191 C 4992.4 1638.4311 5025.216 1641.1191 5065.65 1641.1191 C 5106.084 1641.1191 5138.9 1638.4311 5138.9 1635.1191" stroke="black" stroke-linecap="round" stroke-linejoin="round" stroke-width="1"/>
          <text transform="translate(4997.4 1652.8951)" fill="black">
            <tspan font-family="Helvetica Neue" font-size="16" fill="black" x="27.802" y="15">Not Testing</tspan>
          </text>
        </g>
        <g id="Graphic_392" filter="url(#Shadow)">
          <path d="M 4605 1683.1191 L 4605 1635.1191 C 4605 1631.8071 4637.816 1629.1191 4678.25 1629.1191 C 4718.684 1629.1191 4751.5 1631.8071 4751.5 1635.1191 L 4751.5 1683.1191 C 4751.5 1686.4311 4718.684 1689.1191 4678.25 1689.1191 C 4637.816 1689.1191 4605 1686.4311 4605 1683.1191" fill="#e5e6ff"/>
          <path d="M 4605 1683.1191 L 4605 1635.1191 C 4605 1631.8071 4637.816 1629.1191 4678.25 1629.1191 C 4718.684 1629.1191 4751.5 1631.8071 4751.5 1635.1191 L 4751.5 1683.1191 C 4751.5 1686.4311 4718.684 1689.1191 4678.25 1689.1191 C 4637.816 1689.1191 4605 1686.4311 4605 1683.1191 M 4605 1635.1191 C 4605 1638.4311 4637.816 1641.1191 4678.25 1641.1191 C 4718.684 1641.1191 4751.5 1638.4311 4751.5 1635.1191" stroke="black" stroke-linecap="round" stroke-linejoin="round" stroke-width="1"/>
          <text transform="translate(4610 1652.8951)" fill="black">
            <tspan font-family="Helvetica Neue" font-size="16" fill="black" x="42.914" y="15">Testing</tspan>
          </text>
        </g>
        <g id="Line_384">
          <line x1="5088.741" y1="1688.8146" x2="5116.104" y2="1724.0048" marker-end="url(#FilledArrow_Marker)" stroke="black" stroke-linecap="round" stroke-linejoin="round" stroke-width="1"/>
        </g>
        <g id="Graphic_383" filter="url(#Shadow)">
          <path d="M 4807.4 1571.9991 L 4807.4 1523.9991 C 4807.4 1520.6871 4840.216 1517.9991 4880.65 1517.9991 C 4921.084 1517.9991 4953.9 1520.6871 4953.9 1523.9991 L 4953.9 1571.9991 C 4953.9 1575.3111 4921.084 1577.9991 4880.65 1577.9991 C 4840.216 1577.9991 4807.4 1575.3111 4807.4 1571.9991" fill="#ffeabb"/>
          <path d="M 4807.4 1571.9991 L 4807.4 1523.9991 C 4807.4 1520.6871 4840.216 1517.9991 4880.65 1517.9991 C 4921.084 1517.9991 4953.9 1520.6871 4953.9 1523.9991 L 4953.9 1571.9991 C 4953.9 1575.3111 4921.084 1577.9991 4880.65 1577.9991 C 4840.216 1577.9991 4807.4 1575.3111 4807.4 1571.9991 M 4807.4 1523.9991 C 4807.4 1527.3111 4840.216 1529.9991 4880.65 1529.9991 C 4921.084 1529.9991 4953.9 1527.3111 4953.9 1523.9991" stroke="black" stroke-linecap="round" stroke-linejoin="round" stroke-width="1"/>
          <text transform="translate(4812.4 1541.7751)" fill="black">
            <tspan font-family="Helvetica Neue" font-size="16" fill="black" x="40.546" y="15">All Data</tspan>
          </text>
        </g>
        <g id="Line_382">
          <line x1="4829.164" y1="1576.2657" x2="4738.4144" y2="1626.0882" marker-end="url(#FilledArrow_Marker)" stroke="black" stroke-linecap="round" stroke-linejoin="round" stroke-width="1"/>
        </g>
        <g id="Line_381">
          <line x1="4928.203" y1="1576.5619" x2="5009.61" y2="1625.4588" marker-end="url(#FilledArrow_Marker)" stroke="black" stroke-linecap="round" stroke-linejoin="round" stroke-width="1"/>
        </g>
        <g id="Group_433">
          <g id="Graphic_399"/>
          <g id="Graphic_397" filter="url(#Shadow)">
            <path d="M 5069.4 1931.5 L 5211.9 1931.5 C 5213.0046 1931.5 5213.9 1932.3954 5213.9 1933.5 L 5213.9 1989.5 C 5213.9 1990.6046 5213.0046 1991.5 5211.9 1991.5 L 5069.4 1991.5 C 5068.2954 1991.5 5067.4 1990.6046 5067.4 1989.5 L 5067.4 1933.5 C 5067.4 1932.3954 5068.2954 1931.5 5069.4 1931.5 Z" fill="#fffbf1"/>
            <path d="M 5069.4 1931.5 L 5211.9 1931.5 C 5213.0046 1931.5 5213.9 1932.3954 5213.9 1933.5 L 5213.9 1989.5 C 5213.9 1990.6046 5213.0046 1991.5 5211.9 1991.5 L 5069.4 1991.5 C 5068.2954 1991.5 5067.4 1990.6046 5067.4 1989.5 L 5067.4 1933.5 C 5067.4 1932.3954 5068.2954 1931.5 5069.4 1931.5 Z" stroke="black" stroke-linecap="round" stroke-linejoin="round" stroke-width="1"/>
            <text transform="translate(5072.4 1952.276)" fill="black">
              <tspan font-family="Helvetica Neue" font-size="16" fill="black" x="14.762" y="15">Select a Model</tspan>
            </text>
          </g>
          <g id="Group_386">
            <g id="Graphic_391">
              <path d="M 5090.1685 1774.115 L 5090.1685 1736.235 C 5090.1685 1733.6213 5112.646 1731.5 5140.342 1731.5 C 5168.0374 1731.5 5190.515 1733.6213 5190.515 1736.235 L 5190.515 1774.115 C 5190.515 1776.7287 5168.0374 1778.85 5140.342 1778.85 C 5112.646 1778.85 5090.1685 1776.7287 5090.1685 1774.115" fill="#fffbf1"/>
              <path d="M 5090.1685 1774.115 L 5090.1685 1736.235 C 5090.1685 1733.6213 5112.646 1731.5 5140.342 1731.5 C 5168.0374 1731.5 5190.515 1733.6213 5190.515 1736.235 L 5190.515 1774.115 C 5190.515 1776.7287 5168.0374 1778.85 5140.342 1778.85 C 5112.646 1778.85 5090.1685 1776.7287 5090.1685 1774.115 M 5090.1685 1736.235 C 5090.1685 1738.8487 5112.646 1740.97 5140.342 1740.97 C 5168.0374 1740.97 5190.515 1738.8487 5190.515 1736.235" stroke="black" stroke-linecap="round" stroke-linejoin="round" stroke-width="1"/>
            </g>
            <g id="Line_390">
              <path d="M 5090.1 1744.4093 C 5090.1 1744.4093 5109.6185 1747.9582 5138.047 1747.9213 C 5166.476 1747.8843 5190.4465 1744.279 5190.4465 1744.279" stroke="black" stroke-linecap="round" stroke-linejoin="round" stroke-width="1"/>
            </g>
            <g id="Line_389">
              <path d="M 5090.8535 1751.7556 C 5090.8535 1751.7556 5110.372 1755.3045 5138.8006 1755.2676 C 5167.229 1755.2307 5191.2 1751.6253 5191.2 1751.6253" stroke="black" stroke-linecap="round" stroke-linejoin="round" stroke-width="1"/>
            </g>
            <g id="Line_388">
              <path d="M 5090.1 1759.102 C 5090.1 1759.102 5109.6185 1762.6509 5138.047 1762.614 C 5166.476 1762.577 5190.4465 1758.9716 5190.4465 1758.9716" stroke="black" stroke-linecap="round" stroke-linejoin="round" stroke-width="1"/>
            </g>
            <g id="Line_387">
              <path d="M 5090.8535 1766.4483 C 5090.8535 1766.4483 5110.372 1769.9972 5138.8006 1769.9603 C 5167.229 1769.9234 5191.2 1766.318 5191.2 1766.318" stroke="black" stroke-linecap="round" stroke-linejoin="round" stroke-width="1"/>
            </g>
          </g>
          <g id="Graphic_380">
            <rect x="5017" y="1843.5" width="48.54948" height="20.50105" fill="#ffeabb" fill-opacity=".20827085"/>
            <rect x="5017" y="1843.5" width="48.54948" height="20.50105" stroke="black" stroke-linecap="round" stroke-linejoin="round" stroke-width="1"/>
            <text transform="translate(5022 1848.1245)" fill="black">
              <tspan font-family="Helvetica Neue" font-size="9" fill="black" x="5.51824" y="9">glmnet</tspan>
            </text>
          </g>
          <g id="Graphic_379">
            <rect x="5116.375" y="1843.5" width="48.54948" height="20.50105" fill="#ffeabb" fill-opacity=".20827085"/>
            <rect x="5116.375" y="1843.5" width="48.54948" height="20.50105" stroke="black" stroke-linecap="round" stroke-linejoin="round" stroke-width="1"/>
            <text transform="translate(5121.375 1848.1245)" fill="black">
              <tspan font-family="Helvetica Neue" font-size="9" fill="black" x="11.60674" y="9">tree</tspan>
            </text>
          </g>
          <g id="Graphic_378">
            <rect x="5224.7" y="1843.5" width="48.54948" height="20.50105" fill="#ffeabb" fill-opacity=".20827085"/>
            <rect x="5224.7" y="1843.5" width="48.54948" height="20.50105" stroke="black" stroke-linecap="round" stroke-linejoin="round" stroke-width="1"/>
            <text transform="translate(5229.7 1848.1245)" fill="black">
              <tspan font-family="Helvetica Neue" font-size="9" fill="black" x="2.4402402" y="9">Xgboost</tspan>
            </text>
          </g>
          <g id="Line_377">
            <line x1="5117.09" y1="1778.3114" x2="5058.594" y2="1836.517" marker-end="url(#FilledArrow_Marker)" stroke="black" stroke-linecap="round" stroke-linejoin="round" stroke-width="1"/>
          </g>
          <g id="Line_376">
            <line x1="5163.502" y1="1778.605" x2="5229.8804" y2="1836.9632" marker-end="url(#FilledArrow_Marker)" stroke="black" stroke-linecap="round" stroke-linejoin="round" stroke-width="1"/>
          </g>
          <g id="Line_375">
            <line x1="5050.7286" y1="1864.001" x2="5106.27" y2="1924.2226" marker-end="url(#FilledArrow_Marker)" stroke="black" stroke-linecap="round" stroke-linejoin="round" stroke-width="1"/>
          </g>
          <g id="Line_374">
            <line x1="5140.65" y1="1864.001" x2="5140.65" y2="1921.6" marker-end="url(#FilledArrow_Marker)" stroke="black" stroke-linecap="round" stroke-linejoin="round" stroke-width="1"/>
          </g>
          <g id="Line_373">
            <line x1="5238.6695" y1="1864.001" x2="5177.829" y2="1924.5183" marker-end="url(#FilledArrow_Marker)" stroke="black" stroke-linecap="round" stroke-linejoin="round" stroke-width="1"/>
          </g>
          <g id="Graphic_372" filter="url(#Shadow)">
            <path d="M 4903.5 1779.175 L 4903.5 1731.175 C 4903.5 1727.863 4936.316 1725.175 4976.75 1725.175 C 5017.184 1725.175 5050 1727.863 5050 1731.175 L 5050 1779.175 C 5050 1782.487 5017.184 1785.175 4976.75 1785.175 C 4936.316 1785.175 4903.5 1782.487 4903.5 1779.175" fill="#ffeabb"/>
            <path d="M 4903.5 1779.175 L 4903.5 1731.175 C 4903.5 1727.863 4936.316 1725.175 4976.75 1725.175 C 5017.184 1725.175 5050 1727.863 5050 1731.175 L 5050 1779.175 C 5050 1782.487 5017.184 1785.175 4976.75 1785.175 C 4936.316 1785.175 4903.5 1782.487 4903.5 1779.175 M 4903.5 1731.175 C 4903.5 1734.487 4936.316 1737.175 4976.75 1737.175 C 5017.184 1737.175 5050 1734.487 5050 1731.175" stroke="black" stroke-linecap="round" stroke-linejoin="round" stroke-width="1"/>
            <text transform="translate(4908.5 1748.951)" fill="black">
              <tspan font-family="Helvetica Neue" font-size="16" fill="black" x="40.394" y="15">Training</tspan>
            </text>
          </g>
          <g id="Line_371">
            <line x1="5045.1667" y1="1689.1191" x2="5014.381" y2="1718.8428" marker-end="url(#FilledArrow_Marker)" stroke="black" stroke-linecap="round" stroke-linejoin="round" stroke-width="1"/>
          </g>
          <g id="Graphic_369">
            <rect x="5109.646" y="1743.007" width="62.008" height="24.335999" fill="#fffbf1"/>
            <text transform="translate(5114.646 1748.007)" fill="black">
              <tspan font-family="Helvetica Neue" font-size="12" fill="black" x="8171241e-19" y="11">Validation</tspan>
            </text>
          </g>
          <g id="Line_368">
            <line x1="5138.9" y1="1779" x2="5140.1783" y2="1833.6027" marker-end="url(#FilledArrow_Marker)" stroke="black" stroke-linecap="round" stroke-linejoin="round" stroke-width="1"/>
          </g>
        </g>
      </g>
    </g>
  </g>
</svg>
