<?xml version="1.0" encoding="UTF-8" standalone="no"?>
<!DOCTYPE svg PUBLIC "-//W3C//DTD SVG 1.1//EN" "http://www.w3.org/Graphics/SVG/1.1/DTD/svg11.dtd">
<svg xmlns="http://www.w3.org/2000/svg" xmlns:xl="http://www.w3.org/1999/xlink" xmlns:dc="http://purl.org/dc/elements/1.1/" version="1.1" viewBox="4478 2555 744.5 847.1253" width="744.5" height="847.1253">
  <defs>
    <marker orient="auto" overflow="visible" markerUnits="strokeWidth" id="FilledArrow_Marker" stroke-linejoin="miter" stroke-miterlimit="10" viewBox="-1 -4 10 8" markerWidth="10" markerHeight="8" color="black">
      <g>
        <path d="M 8 0 L 0 -3 L 0 3 Z" fill="currentColor" stroke="currentColor" stroke-width="1"/>
      </g>
    </marker>
    <filter id="Shadow" filterUnits="userSpaceOnUse" x="4403.55" y="2470.2875">
      <feGaussianBlur in="SourceAlpha" result="blur" stdDeviation="1.308"/>
      <feOffset in="blur" result="offset" dx="0" dy="2"/>
      <feFlood flood-color="black" flood-opacity=".5" result="flood"/>
      <feComposite in="flood" in2="offset" operator="in" result="color"/>
      <feMerge>
        <feMergeNode in="color"/>
        <feMergeNode in="SourceGraphic"/>
      </feMerge>
    </filter>
  </defs>
  <g id="Canvas_1" fill-opacity="1" stroke="none" stroke-dasharray="none" stroke-opacity="1" fill="none">
    <title>Canvas 1</title>
    <g id="Canvas_1_Layer_1">
      <title>Layer 1</title>
      <g id="Group_722">
        <g id="Group_703">
          <g id="Graphic_721"/>
          <g id="Graphic_719">
            <path d="M 4866.5 3062.2505 L 5009 3062.2505 C 5010.1046 3062.2505 5011 3063.146 5011 3064.2505 L 5011 3120.2505 C 5011 3121.355 5010.1046 3122.2505 5009 3122.2505 L 4866.5 3122.2505 C 4865.3954 3122.2505 4864.5 3121.355 4864.5 3120.2505 L 4864.5 3064.2505 C 4864.5 3063.146 4865.3954 3062.2505 4866.5 3062.2505 Z" fill="#7a81ff" fill-opacity=".08"/>
            <path d="M 4866.5 3062.2505 L 5009 3062.2505 C 5010.1046 3062.2505 5011 3063.146 5011 3064.2505 L 5011 3120.2505 C 5011 3121.355 5010.1046 3122.2505 5009 3122.2505 L 4866.5 3122.2505 C 4865.3954 3122.2505 4864.5 3121.355 4864.5 3120.2505 L 4864.5 3064.2505 C 4864.5 3063.146 4865.3954 3062.2505 4866.5 3062.2505 Z" stroke="black" stroke-linecap="round" stroke-linejoin="round" stroke-width="1"/>
            <text transform="translate(4869.5 3083.0265)" fill="black">
              <tspan font-family="Helvetica Neue" font-size="16" fill="black" x="14.762" y="15">Select a Model</tspan>
            </text>
          </g>
          <g id="Graphic_715">
            <path d="M 4864.5 2769.2444 L 4864.5 2721.2444 C 4864.5 2717.9324 4897.316 2715.2444 4937.75 2715.2444 C 4978.184 2715.2444 5011 2717.9324 5011 2721.2444 L 5011 2769.2444 C 5011 2772.5564 4978.184 2775.2444 4937.75 2775.2444 C 4897.316 2775.2444 4864.5 2772.5564 4864.5 2769.2444" fill="#ffeabb"/>
            <path d="M 4864.5 2769.2444 L 4864.5 2721.2444 C 4864.5 2717.9324 4897.316 2715.2444 4937.75 2715.2444 C 4978.184 2715.2444 5011 2717.9324 5011 2721.2444 L 5011 2769.2444 C 5011 2772.5564 4978.184 2775.2444 4937.75 2775.2444 C 4897.316 2775.2444 4864.5 2772.5564 4864.5 2769.2444 M 4864.5 2721.2444 C 4864.5 2724.5564 4897.316 2727.2444 4937.75 2727.2444 C 4978.184 2727.2444 5011 2724.5564 5011 2721.2444" stroke="black" stroke-linecap="round" stroke-linejoin="round" stroke-width="1"/>
            <text transform="translate(4869.5 2739.0204)" fill="black">
              <tspan font-family="Helvetica Neue" font-size="16" fill="black" x="27.802" y="15">Not Testing</tspan>
            </text>
          </g>
          <g id="Graphic_714">
            <path d="M 4568.5 2769.2444 L 4568.5 2721.2444 C 4568.5 2717.9324 4601.316 2715.2444 4641.75 2715.2444 C 4682.184 2715.2444 4715 2717.9324 4715 2721.2444 L 4715 2769.2444 C 4715 2772.5564 4682.184 2775.2444 4641.75 2775.2444 C 4601.316 2775.2444 4568.5 2772.5564 4568.5 2769.2444" fill="#7a81ff" fill-opacity=".181819"/>
            <path d="M 4568.5 2769.2444 L 4568.5 2721.2444 C 4568.5 2717.9324 4601.316 2715.2444 4641.75 2715.2444 C 4682.184 2715.2444 4715 2717.9324 4715 2721.2444 L 4715 2769.2444 C 4715 2772.5564 4682.184 2775.2444 4641.75 2775.2444 C 4601.316 2775.2444 4568.5 2772.5564 4568.5 2769.2444 M 4568.5 2721.2444 C 4568.5 2724.5564 4601.316 2727.2444 4641.75 2727.2444 C 4682.184 2727.2444 4715 2724.5564 4715 2721.2444" stroke="black" stroke-linecap="round" stroke-linejoin="round" stroke-width="1"/>
            <text transform="translate(4573.5 2739.0204)" fill="black">
              <tspan font-family="Helvetica Neue" font-size="16" fill="black" x="42.914" y="15">Testing</tspan>
            </text>
          </g>
          <g id="Graphic_712">
            <path d="M 4725.5 2649.1253 L 4725.5 2601.1253 C 4725.5 2597.8133 4758.316 2595.1253 4798.75 2595.1253 C 4839.184 2595.1253 4872 2597.8133 4872 2601.1253 L 4872 2649.1253 C 4872 2652.4373 4839.184 2655.1253 4798.75 2655.1253 C 4758.316 2655.1253 4725.5 2652.4373 4725.5 2649.1253 M 4725.5 2601.1253 C 4725.5 2604.4373 4758.316 2607.1253 4798.75 2607.1253 C 4839.184 2607.1253 4872 2604.4373 4872 2601.1253" stroke="black" stroke-linecap="round" stroke-linejoin="round" stroke-width="1"/>
            <text transform="translate(4730.5 2618.9013)" fill="black">
              <tspan font-family="Helvetica Neue" font-size="16" fill="black" x="40.546" y="15">All Data</tspan>
            </text>
          </g>
          <g id="Line_711">
            <line x1="4760.681" y1="2654.2515" x2="4687.6817" y2="2710.1025" marker-end="url(#FilledArrow_Marker)" stroke="black" stroke-linecap="round" stroke-linejoin="round" stroke-width="1"/>
          </g>
          <g id="Line_710">
            <line x1="4832.6767" y1="2654.4436" x2="4896.333" y2="2709.453" marker-end="url(#FilledArrow_Marker)" stroke="black" stroke-linecap="round" stroke-linejoin="round" stroke-width="1"/>
          </g>
          <g id="Graphic_709" filter="url(#Shadow)">
            <path d="M 4761 2918.1253 L 4761 2870.1253 C 4761 2866.8133 4793.816 2864.1253 4834.25 2864.1253 C 4874.684 2864.1253 4907.5 2866.8133 4907.5 2870.1253 L 4907.5 2918.1253 C 4907.5 2921.4373 4874.684 2924.1253 4834.25 2924.1253 C 4793.816 2924.1253 4761 2921.4373 4761 2918.1253" fill="#fffbf1"/>
            <path d="M 4761 2918.1253 L 4761 2870.1253 C 4761 2866.8133 4793.816 2864.1253 4834.25 2864.1253 C 4874.684 2864.1253 4907.5 2866.8133 4907.5 2870.1253 L 4907.5 2918.1253 C 4907.5 2921.4373 4874.684 2924.1253 4834.25 2924.1253 C 4793.816 2924.1253 4761 2921.4373 4761 2918.1253 M 4761 2870.1253 C 4761 2873.4373 4793.816 2876.1253 4834.25 2876.1253 C 4874.684 2876.1253 4907.5 2873.4373 4907.5 2870.1253" stroke="black" stroke-linecap="round" stroke-linejoin="round" stroke-width="1"/>
            <text transform="translate(4766 2887.9013)" fill="black">
              <tspan font-family="Helvetica Neue" font-size="16" fill="black" x="40.394" y="15">Training</tspan>
            </text>
          </g>
          <g id="Line_708">
            <line x1="4917.063" y1="2775.0015" x2="4860.588" y2="2856.2395" marker-end="url(#FilledArrow_Marker)" stroke="black" stroke-linecap="round" stroke-linejoin="round" stroke-width="1"/>
          </g>
          <g id="Graphic_706">
            <path d="M 4973.5 2912.5253 L 4973.5 2875.7253 C 4973.5 2873.186 4995.34 2871.1253 5022.25 2871.1253 C 5049.16 2871.1253 5071 2873.186 5071 2875.7253 L 5071 2912.5253 C 5071 2915.0645 5049.16 2917.1253 5022.25 2917.1253 C 4995.34 2917.1253 4973.5 2915.0645 4973.5 2912.5253" fill="#7a81ff" fill-opacity=".08"/>
            <path d="M 4973.5 2912.5253 L 4973.5 2875.7253 C 4973.5 2873.186 4995.34 2871.1253 5022.25 2871.1253 C 5049.16 2871.1253 5071 2873.186 5071 2875.7253 L 5071 2912.5253 C 5071 2915.0645 5049.16 2917.1253 5022.25 2917.1253 C 4995.34 2917.1253 4973.5 2915.0645 4973.5 2912.5253 M 4973.5 2875.7253 C 4973.5 2878.2645 4995.34 2880.3253 5022.25 2880.3253 C 5049.16 2880.3253 5071 2878.2645 5071 2875.7253" stroke="black" stroke-linecap="round" stroke-linejoin="round" stroke-width="1"/>
            <text transform="translate(4978.5 2889.0773)" fill="black">
              <tspan font-family="Helvetica Neue" font-size="16" fill="black" x="9.078" y="15">Validation</tspan>
            </text>
          </g>
          <g id="Line_705">
            <line x1="4954.6854" y1="2775.083" x2="5004.4026" y2="2862.68" marker-end="url(#FilledArrow_Marker)" stroke="black" stroke-linecap="round" stroke-linejoin="round" stroke-width="1"/>
          </g>
          <g id="Line_704">
            <line x1="5012.48" y1="2917.0327" x2="4954.429" y2="3053.144" marker-end="url(#FilledArrow_Marker)" stroke="black" stroke-linecap="round" stroke-linejoin="round" stroke-width="1"/>
          </g>
        </g>
        <g id="Graphic_702">
          <ellipse cx="4770.75" cy="2987.5978" rx="42.2500675113553" ry="19.2857451023941" fill="#fffbf1"/>
          <ellipse cx="4770.75" cy="2987.5978" rx="42.2500675113553" ry="19.2857451023941" stroke="black" stroke-linecap="round" stroke-linejoin="round" stroke-width="1"/>
          <text transform="translate(4741.95 2979.0978)" fill="black">
            <tspan font-family="Helvetica Neue" font-size="14" fill="black" x="4.299999" y="13">Logistic</tspan>
          </text>
        </g>
        <g id="Line_701">
          <line x1="4814.027" y1="2923.8934" x2="4788.8295" y2="2960.9846" marker-end="url(#FilledArrow_Marker)" stroke="black" stroke-linecap="round" stroke-linejoin="round" stroke-width="1"/>
        </g>
        <g id="Graphic_700">
          <ellipse cx="4901.75" cy="2987.1635" rx="42.2500675113555" ry="18.8514574734569" fill="#fffbf1"/>
          <ellipse cx="4901.75" cy="2987.1635" rx="42.2500675113555" ry="18.8514574734569" stroke="black" stroke-linecap="round" stroke-linejoin="round" stroke-width="1"/>
          <text transform="translate(4872.95 2978.9675)" fill="black">
            <tspan font-family="Helvetica Neue" font-size="14" fill="black" x="2.6129992" y="13">Xgboost</tspan>
          </text>
        </g>
        <g id="Line_699">
          <line x1="4849.6667" y1="2927.5" x2="4879.9014" y2="2962.135" marker-end="url(#FilledArrow_Marker)" stroke="black" stroke-linecap="round" stroke-linejoin="round" stroke-width="1"/>
        </g>
        <g id="Line_698">
          <line x1="4909.1276" y1="3005.727" x2="4927.564" y2="3052.116" marker-end="url(#FilledArrow_Marker)" stroke="black" stroke-linecap="round" stroke-linejoin="round" stroke-width="1"/>
        </g>
        <g id="Line_697">
          <line x1="4798.042" y1="3002.321" x2="4899.9537" y2="3057.2996" marker-end="url(#FilledArrow_Marker)" stroke="black" stroke-linecap="round" stroke-linejoin="round" stroke-width="1"/>
        </g>
      </g>
    </g>
  </g>
</svg>
