<?xml version="1.0" encoding="UTF-8" standalone="no"?>
<!DOCTYPE svg PUBLIC "-//W3C//DTD SVG 1.1//EN" "http://www.w3.org/Graphics/SVG/1.1/DTD/svg11.dtd">
<svg xmlns="http://www.w3.org/2000/svg" xmlns:xl="http://www.w3.org/1999/xlink" xmlns:dc="http://purl.org/dc/elements/1.1/" version="1.1" viewBox="2808 1463 712.5 803" width="712.5" height="803">
  <defs>
    <filter id="Shadow" filterUnits="userSpaceOnUse" x="2736.75" y="1382.7">
      <feGaussianBlur in="SourceAlpha" result="blur" stdDeviation="1.308"/>
      <feOffset in="blur" result="offset" dx="0" dy="2"/>
      <feFlood flood-color="black" flood-opacity=".5" result="flood"/>
      <feComposite in="flood" in2="offset" operator="in" result="color"/>
      <feMerge>
        <feMergeNode in="color"/>
        <feMergeNode in="SourceGraphic"/>
      </feMerge>
    </filter>
    <marker orient="auto" overflow="visible" markerUnits="strokeWidth" id="FilledArrow_Marker" stroke-linejoin="miter" stroke-miterlimit="10" viewBox="-1 -4 10 8" markerWidth="10" markerHeight="8" color="black">
      <g>
        <path d="M 8 0 L 0 -3 L 0 3 Z" fill="currentColor" stroke="currentColor" stroke-width="1"/>
      </g>
    </marker>
  </defs>
  <g id="Canvas_1" stroke="none" stroke-opacity="1" fill="none" stroke-dasharray="none" fill-opacity="1">
    <title>Canvas 1</title>
    <g id="Canvas_1_Layer_1">
      <title>Layer 1</title>
      <g id="Group_523">
        <g id="Graphic_522"/>
        <g id="Graphic_521">
          <path d="M 3221.4 1671.1191 L 3221.4 1623.1191 C 3221.4 1619.8071 3254.216 1617.1191 3294.65 1617.1191 C 3335.084 1617.1191 3367.9 1619.8071 3367.9 1623.1191 L 3367.9 1671.1191 C 3367.9 1674.4311 3335.084 1677.1191 3294.65 1677.1191 C 3254.216 1677.1191 3221.4 1674.4311 3221.4 1671.1191 M 3221.4 1623.1191 C 3221.4 1626.4311 3254.216 1629.1191 3294.65 1629.1191 C 3335.084 1629.1191 3367.9 1626.4311 3367.9 1623.1191" stroke="black" stroke-linecap="round" stroke-linejoin="round" stroke-width="1"/>
          <text transform="translate(3226.4 1640.8951)" fill="black">
            <tspan font-family="Helvetica Neue" font-size="16" fill="black" x="27.802" y="15">Not Testing</tspan>
          </text>
        </g>
        <g id="Graphic_520" filter="url(#Shadow)">
          <path d="M 2834 1671.1191 L 2834 1623.1191 C 2834 1619.8071 2866.816 1617.1191 2907.25 1617.1191 C 2947.684 1617.1191 2980.5 1619.8071 2980.5 1623.1191 L 2980.5 1671.1191 C 2980.5 1674.4311 2947.684 1677.1191 2907.25 1677.1191 C 2866.816 1677.1191 2834 1674.4311 2834 1671.1191" fill="#e5e6ff"/>
          <path d="M 2834 1671.1191 L 2834 1623.1191 C 2834 1619.8071 2866.816 1617.1191 2907.25 1617.1191 C 2947.684 1617.1191 2980.5 1619.8071 2980.5 1623.1191 L 2980.5 1671.1191 C 2980.5 1674.4311 2947.684 1677.1191 2907.25 1677.1191 C 2866.816 1677.1191 2834 1674.4311 2834 1671.1191 M 2834 1623.1191 C 2834 1626.4311 2866.816 1629.1191 2907.25 1629.1191 C 2947.684 1629.1191 2980.5 1626.4311 2980.5 1623.1191" stroke="black" stroke-linecap="round" stroke-linejoin="round" stroke-width="1"/>
          <text transform="translate(2839 1640.8951)" fill="black">
            <tspan font-family="Helvetica Neue" font-size="16" fill="black" x="42.914" y="15">Testing</tspan>
          </text>
        </g>
        <g id="Group_514">
          <g id="Graphic_519">
            <path d="M 3319.1685 1762.115 L 3319.1685 1724.235 C 3319.1685 1721.6213 3341.646 1719.5 3369.3418 1719.5 C 3397.0374 1719.5 3419.515 1721.6213 3419.515 1724.235 L 3419.515 1762.115 C 3419.515 1764.7287 3397.0374 1766.85 3369.3418 1766.85 C 3341.646 1766.85 3319.1685 1764.7287 3319.1685 1762.115" fill="#fffbf1"/>
            <path d="M 3319.1685 1762.115 L 3319.1685 1724.235 C 3319.1685 1721.6213 3341.646 1719.5 3369.3418 1719.5 C 3397.0374 1719.5 3419.515 1721.6213 3419.515 1724.235 L 3419.515 1762.115 C 3419.515 1764.7287 3397.0374 1766.85 3369.3418 1766.85 C 3341.646 1766.85 3319.1685 1764.7287 3319.1685 1762.115 M 3319.1685 1724.235 C 3319.1685 1726.8487 3341.646 1728.97 3369.3418 1728.97 C 3397.0374 1728.97 3419.515 1726.8487 3419.515 1724.235" stroke="black" stroke-linecap="round" stroke-linejoin="round" stroke-width="1"/>
          </g>
          <g id="Line_518">
            <path d="M 3319.1 1732.4093 C 3319.1 1732.4093 3338.6185 1735.9582 3367.047 1735.9213 C 3395.476 1735.8843 3419.4465 1732.279 3419.4465 1732.279" stroke="black" stroke-linecap="round" stroke-linejoin="round" stroke-width="1"/>
          </g>
          <g id="Line_517">
            <path d="M 3319.8535 1739.7556 C 3319.8535 1739.7556 3339.372 1743.3045 3367.8006 1743.2676 C 3396.2293 1743.2307 3420.2 1739.6253 3420.2 1739.6253" stroke="black" stroke-linecap="round" stroke-linejoin="round" stroke-width="1"/>
          </g>
          <g id="Line_516">
            <path d="M 3319.1 1747.102 C 3319.1 1747.102 3338.6185 1750.6509 3367.047 1750.614 C 3395.476 1750.577 3419.4465 1746.9716 3419.4465 1746.9716" stroke="black" stroke-linecap="round" stroke-linejoin="round" stroke-width="1"/>
          </g>
          <g id="Line_515">
            <path d="M 3319.8535 1754.4483 C 3319.8535 1754.4483 3339.372 1757.9972 3367.8006 1757.9603 C 3396.2293 1757.9234 3420.2 1754.318 3420.2 1754.318" stroke="black" stroke-linecap="round" stroke-linejoin="round" stroke-width="1"/>
          </g>
        </g>
        <g id="Line_513">
          <line x1="3317.7408" y1="1676.8146" x2="3345.1042" y2="1712.0048" marker-end="url(#FilledArrow_Marker)" stroke="black" stroke-linecap="round" stroke-linejoin="round" stroke-width="1"/>
        </g>
        <g id="Graphic_512" filter="url(#Shadow)">
          <path d="M 3036.4 1559.9991 L 3036.4 1511.9991 C 3036.4 1508.6871 3069.216 1505.9991 3109.65 1505.9991 C 3150.084 1505.9991 3182.9 1508.6871 3182.9 1511.9991 L 3182.9 1559.9991 C 3182.9 1563.3111 3150.084 1565.9991 3109.65 1565.9991 C 3069.216 1565.9991 3036.4 1563.3111 3036.4 1559.9991" fill="#ffeabb"/>
          <path d="M 3036.4 1559.9991 L 3036.4 1511.9991 C 3036.4 1508.6871 3069.216 1505.9991 3109.65 1505.9991 C 3150.084 1505.9991 3182.9 1508.6871 3182.9 1511.9991 L 3182.9 1559.9991 C 3182.9 1563.3111 3150.084 1565.9991 3109.65 1565.9991 C 3069.216 1565.9991 3036.4 1563.3111 3036.4 1559.9991 M 3036.4 1511.9991 C 3036.4 1515.3111 3069.216 1517.9991 3109.65 1517.9991 C 3150.084 1517.9991 3182.9 1515.3111 3182.9 1511.9991" stroke="black" stroke-linecap="round" stroke-linejoin="round" stroke-width="1"/>
          <text transform="translate(3041.4 1529.7751)" fill="black">
            <tspan font-family="Helvetica Neue" font-size="16" fill="black" x="40.546" y="15">All Data</tspan>
          </text>
        </g>
        <g id="Line_511">
          <line x1="3058.1638" y1="1564.2657" x2="2967.4144" y2="1614.0882" marker-end="url(#FilledArrow_Marker)" stroke="black" stroke-linecap="round" stroke-linejoin="round" stroke-width="1"/>
        </g>
        <g id="Line_510">
          <line x1="3157.203" y1="1564.5619" x2="3238.61" y2="1613.4588" marker-end="url(#FilledArrow_Marker)" stroke="black" stroke-linecap="round" stroke-linejoin="round" stroke-width="1"/>
        </g>
        <g id="Graphic_509">
          <rect x="3296.4" y="1832.9245" width="48.54948" height="20.50105" fill="#ffeabb" fill-opacity=".20827085"/>
          <rect x="3296.4" y="1832.9245" width="48.54948" height="20.50105" stroke="black" stroke-linecap="round" stroke-linejoin="round" stroke-width="1"/>
          <text transform="translate(3301.4 1837.549)" fill="black">
            <tspan font-family="Helvetica Neue" font-size="9" fill="black" x="3.5247402" y="9">Logistic</tspan>
          </text>
        </g>
        <g id="Line_507">
          <line x1="3357.8803" y1="1766.7257" x2="3329.9956" y2="1824.0227" marker-end="url(#FilledArrow_Marker)" stroke="black" stroke-linecap="round" stroke-linejoin="round" stroke-width="1"/>
        </g>
        <g id="Graphic_505" filter="url(#Shadow)">
          <path d="M 3132.5 1767.175 L 3132.5 1719.175 C 3132.5 1715.863 3165.316 1713.175 3205.75 1713.175 C 3246.184 1713.175 3279 1715.863 3279 1719.175 L 3279 1767.175 C 3279 1770.487 3246.184 1773.175 3205.75 1773.175 C 3165.316 1773.175 3132.5 1770.487 3132.5 1767.175" fill="#ffeabb"/>
          <path d="M 3132.5 1767.175 L 3132.5 1719.175 C 3132.5 1715.863 3165.316 1713.175 3205.75 1713.175 C 3246.184 1713.175 3279 1715.863 3279 1719.175 L 3279 1767.175 C 3279 1770.487 3246.184 1773.175 3205.75 1773.175 C 3165.316 1773.175 3132.5 1770.487 3132.5 1767.175 M 3132.5 1719.175 C 3132.5 1722.487 3165.316 1725.175 3205.75 1725.175 C 3246.184 1725.175 3279 1722.487 3279 1719.175" stroke="black" stroke-linecap="round" stroke-linejoin="round" stroke-width="1"/>
          <text transform="translate(3137.5 1736.951)" fill="black">
            <tspan font-family="Helvetica Neue" font-size="16" fill="black" x="40.394" y="15">Training</tspan>
          </text>
        </g>
        <g id="Line_504">
          <line x1="3274.1667" y1="1677.1191" x2="3243.3807" y2="1706.8428" marker-end="url(#FilledArrow_Marker)" stroke="black" stroke-linecap="round" stroke-linejoin="round" stroke-width="1"/>
        </g>
        <g id="Graphic_503">
          <rect x="3338.646" y="1731.007" width="62.008" height="24.335999" fill="#fffbf1"/>
          <text transform="translate(3343.646 1736.007)" fill="black">
            <tspan font-family="Helvetica Neue" font-size="12" fill="black" x="8171241e-19" y="11">Validation</tspan>
          </text>
        </g>
      </g>
    </g>
  </g>
</svg>
