<?xml version="1.0" encoding="iso-8859-1"?>
<!-- Uploaded to: SVG Repo, www.svgrepo.com, Generator: SVG Repo Mixer Tools -->
<svg height="800px" width="800px" version="1.1" id="Layer_1" xmlns="http://www.w3.org/2000/svg" xmlns:xlink="http://www.w3.org/1999/xlink" 
	 viewBox="0 0 512 512" xml:space="preserve">
<polygon style="fill:#836F5A;" points="371.346,256.35 256.53,37.947 141.712,256.35 141.712,453.454 371.346,453.454 "/>
<polygon style="fill:#ECE7E3;" points="296.442,113.868 256.53,37.947 216.616,113.868 256.53,143.693 "/>
<g style="opacity:0.29;">
	<polygon style="fill:#564A3D;" points="141.712,408.794 141.712,453.706 371.346,453.706 371.346,256.602 342.242,201.241 	"/>
</g>
<path style="fill:#3F8E50;" d="M336.202,423.793l7.357-10.522c4.383-6.269-0.101-14.877-7.751-14.877h-14.355l17.25-33.591
	l15.557-22.246c4.383-6.269-0.101-14.877-7.751-14.877h-24.053l13.214-18.897l5.756-8.232l61.319-87.689l80.288,114.818h-24.053
	c-7.65,0-12.134,8.609-7.751,14.877l39.045,55.838H469.68c-7.65,0-12.134,8.609-7.751,14.877l42.503,60.781H301.056L336.202,423.793
	z"/>
<path style="opacity:0.5;fill:#2B5448;enable-background:new    ;" d="M461.932,413.271c-4.383-6.269,0.101-14.877,7.751-14.877
	h20.595l-39.045-55.838c-4.383-6.269,0.101-14.877,7.751-14.877h24.052l-80.288-114.819l-9.315,13.321l50.666,72.454h-24.053
	c-7.649,0-12.134,8.609-7.751,14.877l39.045,55.838h-20.595c-7.649,0-12.134,8.609-7.751,14.877l42.503,60.781H321.365
	l-20.309,29.042h203.378L461.932,413.271z"/>
<path style="fill:#3F8E50;" d="M175.797,423.793l-7.357-10.522c-4.383-6.269,0.101-14.877,7.751-14.877h14.355l-17.25-33.591
	l-15.557-22.246c-4.383-6.269,0.101-14.877,7.751-14.877h24.053l-13.214-18.897l-5.756-8.232l-61.319-87.689l-80.29,114.817h24.053
	c7.65,0,12.134,8.609,7.751,14.877l-39.045,55.838h20.595c7.65,0,12.134,8.609,7.751,14.877L7.564,474.053h203.378L175.797,423.793z
	"/>
<path style="opacity:0.5;fill:#2B5448;enable-background:new    ;" d="M168.44,413.271c-4.383-6.269,0.101-14.877,7.751-14.877
	h20.595l-39.045-55.838c-4.383-6.269,0.101-14.877,7.751-14.877h24.052l-80.289-114.819l-9.315,13.321l50.666,72.454h-24.053
	c-7.649,0-12.134,8.609-7.751,14.877l39.045,55.838h-20.595c-7.649,0-12.134,8.609-7.751,14.877l42.503,60.781H27.872L7.564,474.053
	h203.378L168.44,413.271z"/>
<path style="fill:#71CE93;" d="M371.346,474.053l-47.99-68.628c-4.95-7.078,0.114-16.798,8.751-16.798h23.254l-44.086-63.047
	c-4.95-7.078,0.114-16.798,8.751-16.798h27.157l-90.654-129.64l-90.654,129.64h27.157c8.637,0,13.701,9.72,8.751,16.798
	l-44.086,63.047h23.254c8.637,0,13.701,9.72,8.751,16.798l-47.99,68.628H371.346z"/>
<path style="opacity:0.3;fill:#2B5448;enable-background:new    ;" d="M323.356,405.424c-4.95-7.078,0.114-16.798,8.751-16.798
	h23.254l-44.086-63.047c-4.95-7.078,0.114-16.798,8.751-16.798h27.157l-90.654-129.64l-13.139,18.789l64.207,91.819H280.44
	c-8.637,0-13.701,9.72-8.751,16.798l44.086,63.047h-23.254c-8.637,0-13.701,9.72-8.751,16.798l47.99,68.628H155.02l-13.309,19.032
	h229.634L323.356,405.424z"/>
<path d="M510.634,469.718l-42.504-60.781c-0.544-0.778-0.369-1.496-0.127-1.961c0.242-0.465,0.73-1.019,1.679-1.019h20.594
	c2.82,0,5.405-1.569,6.708-4.069c1.303-2.5,1.107-5.519-0.509-7.829l-39.046-55.839c-0.544-0.778-0.369-1.494-0.127-1.959
	c0.242-0.464,0.73-1.019,1.679-1.019h24.053c2.82,0,5.405-1.569,6.708-4.069c1.303-2.5,1.107-5.519-0.509-7.829l-80.288-114.818
	c-1.415-2.024-3.73-3.229-6.198-3.229c-2.469,0-4.783,1.205-6.198,3.229l-23.858,34.119L263.225,34.427
	c-1.308-2.487-3.886-4.044-6.696-4.044c-2.81,0-5.388,1.557-6.696,4.044L139.916,243.511l-24.463-34.984
	c-1.415-2.024-3.73-3.229-6.198-3.229c-2.469,0-4.783,1.205-6.198,3.229L22.766,323.344c-1.616,2.311-1.812,5.328-0.509,7.829
	c1.303,2.5,3.888,4.069,6.708,4.069h24.053c0.949,0,1.437,0.555,1.68,1.02c0.242,0.464,0.417,1.181-0.128,1.959l-39.045,55.838
	c-1.616,2.311-1.812,5.328-0.509,7.829c1.303,2.5,3.888,4.069,6.708,4.069h20.595c0.949,0,1.437,0.554,1.679,1.019
	c0.242,0.465,0.417,1.183-0.127,1.961L1.365,469.718c-1.616,2.311-1.812,5.328-0.509,7.829c1.303,2.5,3.888,4.069,6.708,4.069
	h134.148h69.231h90.115h70.29h133.088c2.82,0,5.405-1.569,6.708-4.069S512.251,472.028,510.634,469.718z M256.53,54.201
	l30.214,57.471L256.53,134.25l-30.214-22.577L256.53,54.201z M219.188,125.232l32.814,24.52c1.342,1.003,2.935,1.505,4.527,1.505
	s3.185-0.501,4.527-1.505l32.814-24.52l69.06,131.367l-21.505,30.752l-78.699-112.543c-1.415-2.024-3.73-3.229-6.198-3.229
	c-2.47,0-4.783,1.205-6.198,3.229l-79.228,113.301l-21.429-30.645L219.188,125.232z M337.36,408.937l-1.159,1.657l-3.241-4.636
	h2.849c0.949,0,1.437,0.555,1.679,1.019C337.731,407.441,337.904,408.159,337.36,408.937z M327.262,335.243h19.247
	c0.949,0,1.437,0.554,1.679,1.019c0.242,0.465,0.417,1.182-0.128,1.96l-9.357,13.382L327.262,335.243z M317.474,321.245
	c-0.943-1.347-0.536-2.599-0.21-3.224c0.326-0.625,1.117-1.675,2.761-1.675h1.126l-3.552,5.08L317.474,321.245z M176.327,411.351
	l-1.688-2.414c-0.545-0.778-0.37-1.496-0.128-1.961c0.242-0.465,0.73-1.019,1.679-1.019h3.908L176.327,411.351z M173.826,352.362
	l-9.888-14.14c-0.544-0.778-0.369-1.495-0.127-1.96c0.242-0.464,0.73-1.019,1.679-1.019h20.306L173.826,352.362z M195.584,321.245
	l-0.656,0.937l-4.082-5.837h2.186c1.644,0,2.437,1.05,2.761,1.675C196.12,318.646,196.527,319.898,195.584,321.245z M56.266,417.606
	c3.65-5.22,4.089-11.971,1.146-17.62c-2.942-5.648-8.727-9.156-15.096-9.156H36.24l30.725-43.938
	c3.65-5.219,4.09-11.969,1.148-17.619c-2.943-5.649-8.727-9.157-15.097-9.157h-9.533l65.77-94.054l52.618,75.247l-2.196,3.14
	c-1.616,2.311-1.812,5.328-0.509,7.829c1.303,2.5,3.888,4.069,6.708,4.069h6.512l2.635,3.769h-9.533
	c-6.369,0-12.153,3.509-15.096,9.157c-2.942,5.649-2.503,12.399,1.147,17.618l13.055,18.67l-13.098,18.732
	c-1.616,2.311-1.812,5.328-0.509,7.829c1.303,2.5,3.888,4.069,6.708,4.069h6.088c-1.049,1.119-1.958,2.391-2.69,3.797
	c-2.943,5.649-2.503,12.4,1.147,17.619l4.856,6.945l-29.326,41.938H22.083L56.266,417.606z M301.056,466.489h-90.115H156.23
	l39.67-56.73c3.911-5.593,4.382-12.829,1.228-18.882c-3.154-6.054-9.352-9.814-16.179-9.814h-8.735l35.766-51.148
	c3.911-5.594,4.382-12.83,1.228-18.884c-3.154-6.053-9.353-9.813-16.179-9.813h-12.638l76.135-108.876l76.134,108.876h-12.638
	c-6.826,0-13.024,3.761-16.178,9.813c-3.154,6.052-2.683,13.289,1.228,18.884l35.766,51.148h-8.734
	c-6.827,0-13.025,3.761-16.179,9.814c-1.062,2.038-1.702,4.211-1.949,6.408c-0.03,0.209-0.052,0.42-0.067,0.632
	c-0.318,4.128,0.777,8.311,3.244,11.841l39.67,56.73H301.056z M375.288,466.489l-29.856-42.695l4.327-6.187
	c3.65-5.219,4.09-11.97,1.147-17.619c-0.732-1.405-1.641-2.678-2.69-3.797h7.146c2.82,0,5.405-1.569,6.708-4.069
	c1.303-2.5,1.107-5.519-0.509-7.829l-13.627-19.488l12.524-17.913c3.651-5.219,4.091-11.97,1.149-17.619
	c-2.943-5.649-8.727-9.157-15.097-9.157h-9.533l2.635-3.769h7.572c2.82,0,5.405-1.569,6.708-4.069
	c1.303-2.5,1.107-5.519-0.509-7.829l-2.725-3.897l52.088-74.489l65.77,94.054h-9.533c-6.369,0-12.154,3.509-15.096,9.157
	c-2.943,5.649-2.502,12.4,1.147,17.618l30.725,43.939h-6.074c-6.368,0-12.153,3.509-15.096,9.156s-2.504,12.4,1.146,17.62
	l34.183,48.883H375.288V466.489z"/>
</svg>