<?xml version="1.0" encoding="iso-8859-1"?>
<!-- Uploaded to: SVG Repo, www.svgrepo.com, Generator: SVG Repo Mixer Tools -->
<!DOCTYPE svg PUBLIC "-//W3C//DTD SVG 1.1//EN" "http://www.w3.org/Graphics/SVG/1.1/DTD/svg11.dtd">
<svg height="800px" width="800px" version="1.1" id="Capa_1" xmlns="http://www.w3.org/2000/svg" xmlns:xlink="http://www.w3.org/1999/xlink" 
	 viewBox="0 0 158.667 158.667" xml:space="preserve">
<g>
	<g>
		<g>
			<path style="fill:#FF7526;" d="M49.638,106.74c0,1.112-0.902,2.014-2.014,2.014l0,0c-1.112,0-2.014-0.901-2.014-2.014V83.695
				c0-1.112,0.901-2.015,2.014-2.015l0,0c1.112,0,2.014,0.902,2.014,2.015V106.74z"/>
			<polygon style="fill:#3EAD26;" points="50.115,76.055 66.419,76.055 49.888,59.519 60.079,59.519 47.623,40.393 35.168,59.519 
				45.359,59.519 28.828,76.055 45.133,76.055 26.224,92.691 47.623,92.691 69.024,92.691 			"/>
		</g>
		<path style="opacity:0.1;fill:#FFFFFF;" d="M47.623,40.393L35.168,59.519h10.19L28.828,76.055h16.305L26.224,92.691H45.61v14.049
			c0,1.112,0.901,2.014,2.014,2.014V40.393z"/>
	</g>
	<g>
		<g>
			<path style="fill:#FF7526;" d="M108.69,103.104c0,1.042-0.795,1.888-1.776,1.888l0,0c-0.981,0-1.776-0.846-1.776-1.888V81.178
				c0-1.043,0.795-1.888,1.776-1.888l0,0c0.981,0,1.776,0.845,1.776,1.888V103.104z"/>
			<polygon style="fill:#3EAD26;" points="109.111,74.017 123.492,74.017 108.911,58.519 117.899,58.519 106.914,40.593 
				95.928,58.519 104.916,58.519 90.335,74.017 104.717,74.017 88.039,89.61 106.914,89.61 125.789,89.61 			"/>
		</g>
		<path style="opacity:0.1;fill:#FFFFFF;" d="M106.914,40.593L95.928,58.519h8.988L90.335,74.017h14.381L88.039,89.61h17.099v13.494
			c0,1.042,0.795,1.888,1.776,1.888V40.593z"/>
	</g>
	<g>
		<g>
			<path style="fill:#FF7526;" d="M75.48,112.23c0,0.942-0.763,1.706-1.706,1.706l0,0c-0.942,0-1.705-0.764-1.705-1.706V91.48
				c0-0.942,0.763-1.705,1.705-1.705l0,0c0.942,0,1.706,0.763,1.706,1.705V112.23z"/>
			<polygon style="fill:#299113;" points="75.884,85.01 89.693,85.01 75.692,71.005 84.323,71.005 73.774,54.807 63.226,71.005 
				71.857,71.005 57.856,85.01 71.665,85.01 55.651,99.099 73.774,99.099 91.898,99.099 			"/>
		</g>
		<path style="opacity:0.1;fill:#FFFFFF;" d="M73.774,54.807L63.226,71.005h8.631l-14,14.005h13.809L55.651,99.099h16.418v13.131
			c0,0.942,0.763,1.705,1.705,1.705V54.807z"/>
	</g>
	<g>
		<g>
			<path style="fill:#FF7526;" d="M17.581,104.695c0,0.765-0.62,1.385-1.385,1.385l0,0c-0.765,0-1.385-0.62-1.385-1.385V86.917
				c0-0.765,0.62-1.385,1.385-1.385l0,0c0.765,0,1.385,0.62,1.385,1.385V104.695z"/>
			<polygon style="fill:#299113;" points="17.909,81.662 29.123,81.662 17.753,70.289 24.762,70.289 16.196,57.133 7.629,70.289 
				14.638,70.289 3.268,81.662 14.482,81.662 1.477,93.104 16.196,93.104 30.915,93.104 			"/>
		</g>
		<path style="opacity:0.1;fill:#FFFFFF;" d="M16.196,57.133L7.629,70.289h7.009L3.268,81.662h11.215L1.477,93.104h13.334v11.591
			c0,0.765,0.62,1.385,1.385,1.385V57.133z"/>
	</g>
	<g>
		<g>
			<path style="fill:#FF7526;" d="M135.395,108.997c0,0.766-0.62,1.386-1.385,1.386l0,0c-0.765,0-1.385-0.62-1.385-1.386V91.219
				c0-0.766,0.62-1.386,1.385-1.386l0,0c0.765,0,1.385,0.62,1.385,1.386V108.997z"/>
			<polygon style="fill:#299113;" points="135.723,85.964 146.938,85.964 135.567,74.59 142.576,74.59 134.009,61.436 
				125.443,74.59 132.452,74.59 121.081,85.964 132.296,85.964 119.29,97.407 134.009,97.407 148.729,97.407 			"/>
		</g>
		<path style="opacity:0.1;fill:#FFFFFF;" d="M134.009,61.436l-8.566,13.154h7.009l-11.371,11.374h11.215L119.29,97.407h13.334
			v11.59c0,0.766,0.62,1.386,1.385,1.386V61.436z"/>
	</g>
	<g>
		<g>
			<path style="fill:#3EAD26;" d="M13.745,98.728C6.153,98.728,0,104.881,0,112.472h27.489
				C27.489,104.881,21.335,98.728,13.745,98.728z"/>
			<path style="opacity:0.1;fill:#FFFFFF;" d="M13.745,98.728C6.153,98.728,0,104.881,0,112.472h13.745V98.728z"/>
		</g>
		<g>
			<path style="fill:#3EAD26;" d="M33.911,102.698c-5.398,0-9.775,4.376-9.775,9.774h19.549
				C43.685,107.074,39.309,102.698,33.911,102.698z"/>
			<path style="opacity:0.1;fill:#FFFFFF;" d="M33.911,102.698c-5.398,0-9.775,4.376-9.775,9.774h9.775V102.698z"/>
		</g>
		<g>
			<path style="fill:#299113;" d="M22.604,102.707c-5.394,0-9.766,4.372-9.766,9.766H32.37
				C32.37,107.079,27.998,102.707,22.604,102.707z"/>
			<path style="opacity:0.1;fill:#FFFFFF;" d="M22.604,102.707c-5.394,0-9.766,4.372-9.766,9.766h9.766V102.707z"/>
		</g>
	</g>
	<g>
		<g>
			<path style="fill:#3EAD26;" d="M147.253,101.788c6.304,0,11.414,5.109,11.414,11.413H135.84
				C135.84,106.897,140.95,101.788,147.253,101.788z"/>
			<path style="opacity:0.1;fill:#FFFFFF;" d="M147.253,101.788c6.304,0,11.414,5.109,11.414,11.413h-11.414V101.788z"/>
		</g>
		<g>
			<path style="fill:#3EAD26;" d="M132.557,105.084c4.483,0,8.117,3.635,8.117,8.117H124.44
				C124.44,108.718,128.074,105.084,132.557,105.084z"/>
			<path style="opacity:0.1;fill:#FFFFFF;" d="M132.557,105.084c4.483,0,8.117,3.635,8.117,8.117h-8.117V105.084z"/>
		</g>
		<g>
			<path style="fill:#299113;" d="M141.946,105.091c4.479,0,8.109,3.631,8.109,8.109h-16.219
				C133.836,108.722,137.467,105.091,141.946,105.091z"/>
			<path style="opacity:0.1;fill:#FFFFFF;" d="M141.946,105.091c4.479,0,8.109,3.631,8.109,8.109h-8.109V105.091z"/>
		</g>
	</g>
	<g>
		<g>
			<path style="fill:#3EAD26;" d="M84.826,105.834c6.871,0,12.44,5.57,12.44,12.44H72.385
				C72.385,111.404,77.955,105.834,84.826,105.834z"/>
			<path style="opacity:0.1;fill:#FFFFFF;" d="M84.826,105.834c6.871,0,12.44,5.57,12.44,12.44h-12.44V105.834z"/>
		</g>
		<g>
			<path style="fill:#3EAD26;" d="M68.806,109.427c4.886,0,8.847,3.961,8.847,8.847H59.959
				C59.959,113.388,63.92,109.427,68.806,109.427z"/>
			<path style="opacity:0.1;fill:#FFFFFF;" d="M68.806,109.427c4.886,0,8.847,3.961,8.847,8.847h-8.847V109.427z"/>
		</g>
		<g>
			<path style="fill:#299113;" d="M79.04,109.435c4.882,0,8.839,3.957,8.839,8.839H70.201
				C70.201,113.392,74.158,109.435,79.04,109.435z"/>
			<path style="opacity:0.1;fill:#FFFFFF;" d="M79.04,109.435c4.882,0,8.839,3.957,8.839,8.839H79.04V109.435z"/>
		</g>
	</g>
</g>
</svg>