<?xml version="1.0" encoding="UTF-8" standalone="no"?>
<!DOCTYPE svg PUBLIC "-//W3C//DTD SVG 1.1//EN" "http://www.w3.org/Graphics/SVG/1.1/DTD/svg11.dtd">
<svg xmlns:dc="http://purl.org/dc/elements/1.1/" version="1.1" xmlns:xl="http://www.w3.org/1999/xlink" xmlns="http://www.w3.org/2000/svg" viewBox="486.47526 181.5 960.5495 456.00105" width="960.5495" height="456.00105">
  <defs>
    <marker orient="auto" overflow="visible" markerUnits="strokeWidth" id="FilledArrow_Marker" stroke-linejoin="miter" stroke-miterlimit="10" viewBox="-1 -4 10 8" markerWidth="10" markerHeight="8" color="black">
      <g>
        <path d="M 8 0 L 0 -3 L 0 3 Z" fill="currentColor" stroke="currentColor" stroke-width="1"/>
      </g>
    </marker>
  </defs>
  <g id="Canvas_1" fill-opacity="1" stroke="none" stroke-dasharray="none" fill="none" stroke-opacity="1">
    <title>Canvas 1</title>
    <g id="Canvas_1_Layer_1">
      <title>Layer 1</title>
      <g id="Graphic_33">
        <rect x="486.97526" y="182" width="959.5495" height="455.00105" fill="#ffeabb" fill-opacity=".20827085"/>
        <rect x="486.97526" y="182" width="959.5495" height="455.00105" stroke="black" stroke-linecap="round" stroke-linejoin="round" stroke-width="1"/>
      </g>
      <g id="Group_27">
        <g id="Line_32">
          <path d="M 865.3143 395.9143 C 865.3143 395.9143 879.4107 382.0051 901.2502 382.16737 C 914.2004 382.2636 926.2621 387.2807 933.9356 391.34896" marker-end="url(#FilledArrow_Marker)" stroke="black" stroke-linecap="round" stroke-linejoin="round" stroke-width="1"/>
        </g>
        <g id="Line_31">
          <path d="M 949.2982 406.6421 C 949.2982 406.6421 961.8225 421.95014 959.3763 443.39734 C 957.9277 456.0981 951.6326 467.41505 946.739 474.53314" marker-end="url(#FilledArrow_Marker)" stroke="black" stroke-linecap="round" stroke-linejoin="round" stroke-width="1"/>
        </g>
        <g id="Line_30">
          <path d="M 932.483 489.43703 C 932.483 489.43703 915.7683 500.14596 894.4402 495.5 C 881.8016 492.7469 871.0648 485.3691 864.4139 479.81436" marker-end="url(#FilledArrow_Marker)" stroke="black" stroke-linecap="round" stroke-linejoin="round" stroke-width="1"/>
        </g>
        <g id="Line_29">
          <path d="M 854.5534 470.23047 C 854.5534 470.23047 842.0291 454.92243 844.4753 433.4752 C 845.9238 420.77445 852.219 409.4575 857.1125 402.3394" marker-end="url(#FilledArrow_Marker)" stroke="black" stroke-linecap="round" stroke-linejoin="round" stroke-width="1"/>
        </g>
        <g id="Graphic_28"/>
      </g>
      <g id="Graphic_26">
        <rect x="1228.9753" y="396.625" width="159.11903" height="92.25" fill="white"/>
        <rect x="1228.9753" y="396.625" width="159.11903" height="92.25" stroke="black" stroke-linecap="round" stroke-linejoin="round" stroke-width="1"/>
        <text transform="translate(1233.9753 415.078)" fill="black">
          <tspan font-family="Helvetica Neue" font-size="16" fill="black" x="45.671517" y="15">Select a </tspan>
          <tspan font-family="Helvetica Neue" font-size="16" fill="black" x="24.919517" y="33.448">model/feature </tspan>
          <tspan font-family="Helvetica Neue" font-size="16" fill="black" x="27.743517" y="51.895996">configuration</tspan>
        </text>
      </g>
      <g id="Graphic_25">
        <path d="M 681.4753 311 L 746.6226 355.7412 L 721.7386 428.1338 L 641.2119 428.1338 L 616.3279 355.7412 Z" fill="white"/>
        <path d="M 681.4753 311 L 746.6226 355.7412 L 721.7386 428.1338 L 641.2119 428.1338 L 616.3279 355.7412 Z" stroke="black" stroke-linecap="round" stroke-linejoin="round" stroke-width="1"/>
        <text transform="translate(631.67526 363.777)" fill="black">
          <tspan font-family="Helvetica Neue" font-size="16" fill="black" x="14.84" y="15">Variables/</tspan>
          <tspan font-family="Helvetica Neue" font-size="16" fill="black" x="21.056" y="33.448">features</tspan>
        </text>
      </g>
      <g id="Graphic_24">
        <path d="M 681.4753 462 L 746.6226 506.7412 L 721.7386 579.1338 L 641.2119 579.1338 L 616.3279 506.7412 Z" fill="white"/>
        <path d="M 681.4753 462 L 746.6226 506.7412 L 721.7386 579.1338 L 641.2119 579.1338 L 616.3279 506.7412 Z" stroke="black" stroke-linecap="round" stroke-linejoin="round" stroke-width="1"/>
        <text transform="translate(631.67526 496.329)" fill="black">
          <tspan font-family="Helvetica Neue" font-size="16" fill="black" x="26.232" y="15">Tuning </tspan>
          <tspan font-family="Helvetica Neue" font-size="16" fill="black" x="12.759999" y="33.448">Parameter</tspan>
          <tspan font-family="Helvetica Neue" font-size="16" fill="black" x="26.536" y="51.895996">Values</tspan>
          <tspan font-family="Helvetica Neue" font-size="16" fill="black" x="26.248" y="70.34399">(If any)</tspan>
        </text>
      </g>
      <g id="Graphic_23">
        <path d="M 1065.4258 384 L 1122.8763 442.75 L 1065.4258 501.5 L 1007.9753 442.75 Z" fill="white"/>
        <path d="M 1065.4258 384 L 1122.8763 442.75 L 1065.4258 501.5 L 1007.9753 442.75 Z" stroke="black" stroke-linecap="round" stroke-linejoin="round" stroke-width="1"/>
        <text transform="translate(1028.4869 423.127)" fill="black">
          <tspan font-family="Helvetica Neue" font-size="16" fill="black" x="18.08789" y="15">Good </tspan>
          <tspan font-family="Helvetica Neue" font-size="16" fill="black" x="7.119891" y="33.448">Results?</tspan>
        </text>
      </g>
      <g id="Line_22">
        <line x1="733.42135" y1="394.1463" x2="835.1432" y2="430.17034" marker-end="url(#FilledArrow_Marker)" stroke="black" stroke-linecap="round" stroke-linejoin="round" stroke-width="1"/>
      </g>
      <g id="Line_21">
        <line x1="732.9047" y1="497.32015" x2="835.8827" y2="438.39224" marker-end="url(#FilledArrow_Marker)" stroke="black" stroke-linecap="round" stroke-linejoin="round" stroke-width="1"/>
      </g>
      <g id="Line_20">
        <line x1="959.3763" y1="443.39734" x2="998.4163" y2="443.15904" marker-end="url(#FilledArrow_Marker)" stroke="black" stroke-linecap="round" stroke-linejoin="round" stroke-width="1"/>
      </g>
      <g id="Line_19">
        <line x1="1122.8763" y1="442.75" x2="1219.0753" y2="442.75" marker-end="url(#FilledArrow_Marker)" stroke="black" stroke-linecap="round" stroke-linejoin="round" stroke-width="1"/>
      </g>
      <g id="Line_18">
        <path d="M 1065.6305 384.2094 L 1066.1419 238 L 539.97526 238 L 539.47526 440.5" stroke="black" stroke-linecap="round" stroke-linejoin="round" stroke-width="1"/>
      </g>
      <g id="Line_17">
        <line x1="539.57526" y1="441.20003" x2="622.7898" y2="491.3692" marker-end="url(#FilledArrow_Marker)" stroke="black" stroke-linecap="round" stroke-linejoin="round" stroke-width="1"/>
      </g>
      <g id="Line_16">
        <line x1="539.57526" y1="441.20003" x2="622.19" y2="403.09478" marker-end="url(#FilledArrow_Marker)" stroke="black" stroke-linecap="round" stroke-linejoin="round" stroke-width="1"/>
      </g>
      <g id="Graphic_15">
        <rect x="1151.708" y="428.526" width="34.592" height="28.447998" fill="#fffbf1"/>
        <text transform="translate(1156.412 433.526)" fill="black">
          <tspan font-family="Helvetica Neue" font-size="16" fill="black" x="552447e-18" y="15">Yes</tspan>
        </text>
      </g>
      <g id="Graphic_14">
        <rect x="1035.9936" y="256.0024" width="60.071305" height="28.447998" fill="#fffbf1"/>
        <text transform="translate(1040.9936 261.0024)" fill="black">
          <tspan font-family="Helvetica Neue" font-size="16" fill="black" x="14.667652" y="15">No</tspan>
        </text>
      </g>
      <g id="Graphic_3">
        <text transform="translate(857.0298 411.1617)" fill="black">
          <tspan font-family="Helvetica Neue" font-size="16" fill="black" x="6394885e-19" y="15">Resampling/</tspan>
          <tspan font-family="Helvetica Neue" font-size="16" fill="black" x="7.56" y="33.448">Validation/</tspan>
          <tspan font-family="Helvetica Neue" font-size="16" fill="black" x="21.328" y="51.895996">Tuning</tspan>
        </text>
      </g>
    </g>
  </g>
</svg>
