<?xml version="1.0" encoding="UTF-8" standalone="no"?>
<!DOCTYPE svg PUBLIC "-//W3C//DTD SVG 1.1//EN" "http://www.w3.org/Graphics/SVG/1.1/DTD/svg11.dtd">
<svg xmlns="http://www.w3.org/2000/svg" xmlns:xl="http://www.w3.org/1999/xlink" xmlns:dc="http://purl.org/dc/elements/1.1/" version="1.1" viewBox="5396 2538 744.5 847.1253" width="744.5" height="847.1253">
  <defs>
    <marker orient="auto" overflow="visible" markerUnits="strokeWidth" id="FilledArrow_Marker" stroke-linejoin="miter" stroke-miterlimit="10" viewBox="-1 -4 10 8" markerWidth="10" markerHeight="8" color="black">
      <g>
        <path d="M 8 0 L 0 -3 L 0 3 Z" fill="currentColor" stroke="currentColor" stroke-width="1"/>
      </g>
    </marker>
    <filter id="Shadow" filterUnits="userSpaceOnUse" x="5321.55" y="2453.2875">
      <feGaussianBlur in="SourceAlpha" result="blur" stdDeviation="1.308"/>
      <feOffset in="blur" result="offset" dx="0" dy="2"/>
      <feFlood flood-color="black" flood-opacity=".5" result="flood"/>
      <feComposite in="flood" in2="offset" operator="in" result="color"/>
      <feMerge>
        <feMergeNode in="color"/>
        <feMergeNode in="SourceGraphic"/>
      </feMerge>
    </filter>
  </defs>
  <g id="Canvas_1" fill-opacity="1" stroke="none" stroke-dasharray="none" stroke-opacity="1" fill="none">
    <title>Canvas 1</title>
    <g id="Canvas_1_Layer_1">
      <title>Layer 1</title>
      <g id="Group_694">
        <g id="Group_591">
          <g id="Graphic_554"/>
          <g id="Graphic_553">
            <path d="M 5784.5 3163.1253 L 5927 3163.1253 C 5928.1046 3163.1253 5929 3164.0207 5929 3165.1253 L 5929 3221.1253 C 5929 3222.23 5928.1046 3223.1253 5927 3223.1253 L 5784.5 3223.1253 C 5783.3954 3223.1253 5782.5 3222.23 5782.5 3221.1253 L 5782.5 3165.1253 C 5782.5 3164.0207 5783.3954 3163.1253 5784.5 3163.1253 Z" fill="#ffeabb"/>
            <path d="M 5784.5 3163.1253 L 5927 3163.1253 C 5928.1046 3163.1253 5929 3164.0207 5929 3165.1253 L 5929 3221.1253 C 5929 3222.23 5928.1046 3223.1253 5927 3223.1253 L 5784.5 3223.1253 C 5783.3954 3223.1253 5782.5 3222.23 5782.5 3221.1253 L 5782.5 3165.1253 C 5782.5 3164.0207 5783.3954 3163.1253 5784.5 3163.1253 Z" stroke="black" stroke-linecap="round" stroke-linejoin="round" stroke-width="1"/>
            <text transform="translate(5787.5 3183.9013)" fill="black">
              <tspan font-family="Helvetica Neue" font-size="16" fill="black" x="18.018" y="15">Final model fit</tspan>
            </text>
          </g>
          <g id="Graphic_552">
            <path d="M 5784.5 3045.2505 L 5927 3045.2505 C 5928.1046 3045.2505 5929 3046.146 5929 3047.2505 L 5929 3103.2505 C 5929 3104.355 5928.1046 3105.2505 5927 3105.2505 L 5784.5 3105.2505 C 5783.3954 3105.2505 5782.5 3104.355 5782.5 3103.2505 L 5782.5 3047.2505 C 5782.5 3046.146 5783.3954 3045.2505 5784.5 3045.2505 Z" fill="#7a81ff" fill-opacity=".08"/>
            <path d="M 5784.5 3045.2505 L 5927 3045.2505 C 5928.1046 3045.2505 5929 3046.146 5929 3047.2505 L 5929 3103.2505 C 5929 3104.355 5928.1046 3105.2505 5927 3105.2505 L 5784.5 3105.2505 C 5783.3954 3105.2505 5782.5 3104.355 5782.5 3103.2505 L 5782.5 3047.2505 C 5782.5 3046.146 5783.3954 3045.2505 5784.5 3045.2505 Z" stroke="black" stroke-linecap="round" stroke-linejoin="round" stroke-width="1"/>
            <text transform="translate(5787.5 3066.0265)" fill="black">
              <tspan font-family="Helvetica Neue" font-size="16" fill="black" x="14.762" y="15">Select a Model</tspan>
            </text>
          </g>
          <g id="Graphic_551">
            <path d="M 5784.5 3281 L 5927 3281 C 5928.1046 3281 5929 3281.8954 5929 3283 L 5929 3339 C 5929 3340.1046 5928.1046 3341 5927 3341 L 5784.5 3341 C 5783.3954 3341 5782.5 3340.1046 5782.5 3339 L 5782.5 3283 C 5782.5 3281.8954 5783.3954 3281 5784.5 3281 Z" fill="#7a81ff" fill-opacity=".18181868"/>
            <path d="M 5784.5 3281 L 5927 3281 C 5928.1046 3281 5929 3281.8954 5929 3283 L 5929 3339 C 5929 3340.1046 5928.1046 3341 5927 3341 L 5784.5 3341 C 5783.3954 3341 5782.5 3340.1046 5782.5 3339 L 5782.5 3283 C 5782.5 3281.8954 5783.3954 3281 5784.5 3281 Z" stroke="black" stroke-linecap="round" stroke-linejoin="round" stroke-width="1"/>
            <text transform="translate(5787.5 3292.552)" fill="black">
              <tspan font-family="Helvetica Neue" font-size="16" fill="black" x="24.242" y="15">Verify model </tspan>
              <tspan font-family="Helvetica Neue" font-size="16" fill="black" x="22.762" y="33.448">performance</tspan>
            </text>
          </g>
          <g id="Line_550">
            <line x1="5855.75" y1="3105.2505" x2="5855.75" y2="3153.2253" marker-end="url(#FilledArrow_Marker)" stroke="black" stroke-linecap="round" stroke-linejoin="round" stroke-width="1"/>
          </g>
          <g id="Line_549">
            <line x1="5855.75" y1="3223.1253" x2="5855.75" y2="3271.1" marker-end="url(#FilledArrow_Marker)" stroke="black" stroke-linecap="round" stroke-linejoin="round" stroke-width="1"/>
          </g>
          <g id="Graphic_548">
            <path d="M 5782.5 2752.2444 L 5782.5 2704.2444 C 5782.5 2700.9324 5815.316 2698.2444 5855.75 2698.2444 C 5896.184 2698.2444 5929 2700.9324 5929 2704.2444 L 5929 2752.2444 C 5929 2755.5564 5896.184 2758.2444 5855.75 2758.2444 C 5815.316 2758.2444 5782.5 2755.5564 5782.5 2752.2444" fill="#ffeabb"/>
            <path d="M 5782.5 2752.2444 L 5782.5 2704.2444 C 5782.5 2700.9324 5815.316 2698.2444 5855.75 2698.2444 C 5896.184 2698.2444 5929 2700.9324 5929 2704.2444 L 5929 2752.2444 C 5929 2755.5564 5896.184 2758.2444 5855.75 2758.2444 C 5815.316 2758.2444 5782.5 2755.5564 5782.5 2752.2444 M 5782.5 2704.2444 C 5782.5 2707.5564 5815.316 2710.2444 5855.75 2710.2444 C 5896.184 2710.2444 5929 2707.5564 5929 2704.2444" stroke="black" stroke-linecap="round" stroke-linejoin="round" stroke-width="1"/>
            <text transform="translate(5787.5 2722.0204)" fill="black">
              <tspan font-family="Helvetica Neue" font-size="16" fill="black" x="27.802" y="15">Not Testing</tspan>
            </text>
          </g>
          <g id="Graphic_547">
            <path d="M 5486.5 2752.2444 L 5486.5 2704.2444 C 5486.5 2700.9324 5519.316 2698.2444 5559.75 2698.2444 C 5600.184 2698.2444 5633 2700.9324 5633 2704.2444 L 5633 2752.2444 C 5633 2755.5564 5600.184 2758.2444 5559.75 2758.2444 C 5519.316 2758.2444 5486.5 2755.5564 5486.5 2752.2444" fill="#7a81ff" fill-opacity=".18181868"/>
            <path d="M 5486.5 2752.2444 L 5486.5 2704.2444 C 5486.5 2700.9324 5519.316 2698.2444 5559.75 2698.2444 C 5600.184 2698.2444 5633 2700.9324 5633 2704.2444 L 5633 2752.2444 C 5633 2755.5564 5600.184 2758.2444 5559.75 2758.2444 C 5519.316 2758.2444 5486.5 2755.5564 5486.5 2752.2444 M 5486.5 2704.2444 C 5486.5 2707.5564 5519.316 2710.2444 5559.75 2710.2444 C 5600.184 2710.2444 5633 2707.5564 5633 2704.2444" stroke="black" stroke-linecap="round" stroke-linejoin="round" stroke-width="1"/>
            <text transform="translate(5491.5 2722.0204)" fill="black">
              <tspan font-family="Helvetica Neue" font-size="16" fill="black" x="42.914" y="15">Testing</tspan>
            </text>
          </g>
          <g id="Line_540">
            <path d="M 5546.892 2758.152 C 5521.439 2822.9413 5472.4634 2980.7188 5537.3696 3108.504 C 5588.8655 3209.8875 5697.176 3263.116 5773.105 3289.1004" marker-end="url(#FilledArrow_Marker)" stroke="black" stroke-linecap="round" stroke-linejoin="round" stroke-width="1"/>
          </g>
          <g id="Graphic_538">
            <path d="M 5643.5 2632.1253 L 5643.5 2584.1253 C 5643.5 2580.8133 5676.316 2578.1253 5716.75 2578.1253 C 5757.184 2578.1253 5790 2580.8133 5790 2584.1253 L 5790 2632.1253 C 5790 2635.4373 5757.184 2638.1253 5716.75 2638.1253 C 5676.316 2638.1253 5643.5 2635.4373 5643.5 2632.1253 M 5643.5 2584.1253 C 5643.5 2587.4373 5676.316 2590.1253 5716.75 2590.1253 C 5757.184 2590.1253 5790 2587.4373 5790 2584.1253" stroke="black" stroke-linecap="round" stroke-linejoin="round" stroke-width="1"/>
            <text transform="translate(5648.5 2601.9013)" fill="black">
              <tspan font-family="Helvetica Neue" font-size="16" fill="black" x="40.546" y="15">All Data</tspan>
            </text>
          </g>
          <g id="Line_537">
            <line x1="5678.681" y1="2637.2515" x2="5605.682" y2="2693.1025" marker-end="url(#FilledArrow_Marker)" stroke="black" stroke-linecap="round" stroke-linejoin="round" stroke-width="1"/>
          </g>
          <g id="Line_536">
            <line x1="5750.677" y1="2637.4436" x2="5814.333" y2="2692.453" marker-end="url(#FilledArrow_Marker)" stroke="black" stroke-linecap="round" stroke-linejoin="round" stroke-width="1"/>
          </g>
          <g id="Graphic_529" filter="url(#Shadow)">
            <path d="M 5679 2901.1253 L 5679 2853.1253 C 5679 2849.8133 5711.816 2847.1253 5752.25 2847.1253 C 5792.684 2847.1253 5825.5 2849.8133 5825.5 2853.1253 L 5825.5 2901.1253 C 5825.5 2904.4373 5792.684 2907.1253 5752.25 2907.1253 C 5711.816 2907.1253 5679 2904.4373 5679 2901.1253" fill="#fffbf1"/>
            <path d="M 5679 2901.1253 L 5679 2853.1253 C 5679 2849.8133 5711.816 2847.1253 5752.25 2847.1253 C 5792.684 2847.1253 5825.5 2849.8133 5825.5 2853.1253 L 5825.5 2901.1253 C 5825.5 2904.4373 5792.684 2907.1253 5752.25 2907.1253 C 5711.816 2907.1253 5679 2904.4373 5679 2901.1253 M 5679 2853.1253 C 5679 2856.4373 5711.816 2859.1253 5752.25 2859.1253 C 5792.684 2859.1253 5825.5 2856.4373 5825.5 2853.1253" stroke="black" stroke-linecap="round" stroke-linejoin="round" stroke-width="1"/>
            <text transform="translate(5684 2870.9013)" fill="black">
              <tspan font-family="Helvetica Neue" font-size="16" fill="black" x="40.394" y="15">Training</tspan>
            </text>
          </g>
          <g id="Line_528">
            <line x1="5835.063" y1="2758.0015" x2="5778.588" y2="2839.2395" marker-end="url(#FilledArrow_Marker)" stroke="black" stroke-linecap="round" stroke-linejoin="round" stroke-width="1"/>
          </g>
          <g id="Line_527">
            <path d="M 5902.688 2756.8497 C 5962.856 2797.215 6059.5 2876.169 6059.5 2966.8747 C 6059.5 3050.2663 5977.8135 3118.7617 5917.885 3157.7917" marker-end="url(#FilledArrow_Marker)" stroke="black" stroke-linecap="round" stroke-linejoin="round" stroke-width="1"/>
          </g>
          <g id="Graphic_557">
            <path d="M 5891.5 2895.5253 L 5891.5 2858.7253 C 5891.5 2856.186 5913.34 2854.1253 5940.25 2854.1253 C 5967.16 2854.1253 5989 2856.186 5989 2858.7253 L 5989 2895.5253 C 5989 2898.0645 5967.16 2900.1253 5940.25 2900.1253 C 5913.34 2900.1253 5891.5 2898.0645 5891.5 2895.5253" fill="#7a81ff" fill-opacity=".08"/>
            <path d="M 5891.5 2895.5253 L 5891.5 2858.7253 C 5891.5 2856.186 5913.34 2854.1253 5940.25 2854.1253 C 5967.16 2854.1253 5989 2856.186 5989 2858.7253 L 5989 2895.5253 C 5989 2898.0645 5967.16 2900.1253 5940.25 2900.1253 C 5913.34 2900.1253 5891.5 2898.0645 5891.5 2895.5253 M 5891.5 2858.7253 C 5891.5 2861.2645 5913.34 2863.3253 5940.25 2863.3253 C 5967.16 2863.3253 5989 2861.2645 5989 2858.7253" stroke="black" stroke-linecap="round" stroke-linejoin="round" stroke-width="1"/>
            <text transform="translate(5896.5 2872.0773)" fill="black">
              <tspan font-family="Helvetica Neue" font-size="16" fill="black" x="9.078" y="15">Validation</tspan>
            </text>
          </g>
          <g id="Line_558">
            <line x1="5872.6854" y1="2758.083" x2="5922.4026" y2="2845.68" marker-end="url(#FilledArrow_Marker)" stroke="black" stroke-linecap="round" stroke-linejoin="round" stroke-width="1"/>
          </g>
          <g id="Line_559">
            <line x1="5930.48" y1="2900.0327" x2="5872.429" y2="3036.144" marker-end="url(#FilledArrow_Marker)" stroke="black" stroke-linecap="round" stroke-linejoin="round" stroke-width="1"/>
          </g>
        </g>
        <g id="Graphic_692">
          <ellipse cx="5688.75" cy="2970.5978" rx="42.2500675113558" ry="19.2857451023942" fill="#fffbf1"/>
          <ellipse cx="5688.75" cy="2970.5978" rx="42.2500675113558" ry="19.2857451023942" stroke="black" stroke-linecap="round" stroke-linejoin="round" stroke-width="1"/>
          <text transform="translate(5659.95 2962.0978)" fill="black">
            <tspan font-family="Helvetica Neue" font-size="14" fill="black" x="4.299999" y="13">Logistic</tspan>
          </text>
        </g>
        <g id="Line_691">
          <line x1="5732.027" y1="2906.8934" x2="5706.8295" y2="2943.9846" marker-end="url(#FilledArrow_Marker)" stroke="black" stroke-linecap="round" stroke-linejoin="round" stroke-width="1"/>
        </g>
        <g id="Graphic_690">
          <ellipse cx="5819.75" cy="2970.1635" rx="42.2500675113555" ry="18.8514574734569" fill="#fffbf1"/>
          <ellipse cx="5819.75" cy="2970.1635" rx="42.2500675113555" ry="18.8514574734569" stroke="black" stroke-linecap="round" stroke-linejoin="round" stroke-width="1"/>
          <text transform="translate(5790.95 2961.9675)" fill="black">
            <tspan font-family="Helvetica Neue" font-size="14" fill="black" x="2.6129992" y="13">Xgboost</tspan>
          </text>
        </g>
        <g id="Line_689">
          <line x1="5767.667" y1="2910.5" x2="5797.9014" y2="2945.135" marker-end="url(#FilledArrow_Marker)" stroke="black" stroke-linecap="round" stroke-linejoin="round" stroke-width="1"/>
        </g>
        <g id="Line_688">
          <line x1="5827.1276" y1="2988.727" x2="5845.564" y2="3035.116" marker-end="url(#FilledArrow_Marker)" stroke="black" stroke-linecap="round" stroke-linejoin="round" stroke-width="1"/>
        </g>
        <g id="Line_693">
          <line x1="5716.042" y1="2985.321" x2="5817.954" y2="3040.2996" marker-end="url(#FilledArrow_Marker)" stroke="black" stroke-linecap="round" stroke-linejoin="round" stroke-width="1"/>
        </g>
      </g>
    </g>
  </g>
</svg>
